<svg xmlns="http://www.w3.org/2000/svg" xmlns:xlink="http://www.w3.org/1999/xlink" viewBox="0 0 86.4 127.52"><defs><style>.cls-1{fill:none;}.cls-2{isolation:isolate;}.cls-3{fill:#d4d3d3;}.cls-4{fill:#f8be92;}.cls-5{fill:#393f4a;}.cls-6{mix-blend-mode:multiply;opacity:0.15;}.cls-7{fill:#58211a;}.cls-8{fill:#d7dde4;}.cls-9{fill:#333842;}.cls-10{fill:#eaeaea;}.cls-11{clip-path:url(#clip-path);}.cls-12{fill:#c65a2c;}.cls-13{opacity:0.7;}.cls-14{fill:#e8e7e7;}.cls-15{fill:#c7ccd3;}.cls-16{fill:#a0a5aa;}</style><clipPath id="clip-path" transform="translate(-13.15 -13.83)"><path class="cls-1" d="M69,85.11H43.75a4.37,4.37,0,0,1-4.33-3.77l-3-21.66a4.38,4.38,0,0,1,4.33-5H72a4.38,4.38,0,0,1,4.33,5l-3,21.66A4.37,4.37,0,0,1,69,85.11Z"/></clipPath></defs><g class="cls-2"><g id="Ebene_1" data-name="Ebene 1"><path class="cls-3" d="M31.35,118.84l50.06-.35A47.3,47.3,0,0,1,57.18,125C43.62,124.61,31.35,118.84,31.35,118.84Z" transform="translate(-13.15 -13.83)"/><ellipse class="cls-4" cx="42.84" cy="26.04" rx="25.13" ry="14.54"/><ellipse class="cls-4" cx="44.03" cy="44.68" rx="31.5" ry="24.84"/><path class="cls-4" d="M78,121.86s-4.86,4.32-21.31,4.32-21.32-4.32-21.32-4.32c8.33-8.52,5-23.77,5-23.77H73s-.12.52-.28,1.41c-.06.37-.14.8-.21,1.29-.13.89-.26,1.95-.36,3.12a32.35,32.35,0,0,0,.62,10.31c.13.49.27,1,.44,1.44s.26.73.42,1.08a11.21,11.21,0,0,0,.92,1.75A9.75,9.75,0,0,0,78,121.86Z" transform="translate(-13.15 -13.83)"/><path class="cls-4" d="M84.23,59.57c0-15-11-27.4-25.07-28.93a26.65,26.65,0,0,0-3-.17,27.05,27.05,0,0,0-9.58,1.75h0A29.08,29.08,0,0,0,28.14,59.57c0,.24,0,.48,0,.73h0s0,.1,0,.29a1.86,1.86,0,0,0,0,.22c.19,5,2.51,46.64,28.18,46.64,12.05,0,18.9-10.63,22.78-20.46,4.94-12.5,5.1-26.69,5.1-26.69h0C84.22,60.05,84.23,59.81,84.23,59.57Z" transform="translate(-13.15 -13.83)"/><path class="cls-5" d="M82.48,75.35s3.76-7.22,3.72-8.74C86,59.69,84.46,40.08,74,36.45c-7.74-2.7-9.33,6.37-13.72,9.49h0a5.2,5.2,0,0,1-3.12,1,5.5,5.5,0,0,1-3.68-2h0l-.09-.1-.2-.22h0C49,40,45.14,31,36.38,38.87c-10.56,9.53-9.19,25.43-9,27.63,0,0,0,0,0,.06s0,.06,0,.09v0a.18.18,0,0,1,0,0s2.77,7.5,0,4.86-5.15-12.15-4.31-15c1.28-4.31-.16-6,0-13.38s8.39-12.69,12-14.18c4.53-1.85,6.11-5.55,11.84-9.48s14.23.56,17.69,3.59,10,2.36,15.29,5.44,7.45,7.92,7.45,13.69c0,6.67,0,9,1.32,13.87C90.63,63.07,82.48,75.35,82.48,75.35Z" transform="translate(-13.15 -13.83)"/><path class="cls-4" d="M32.58,84.92a4.81,4.81,0,0,1-.53.49,3.09,3.09,0,0,1-.86.51,2,2,0,0,1-.85.12c-2.78-.25-6.28-6-8-10.39-1.86-4.83-.45-7.68,2.43-8.79a3.92,3.92,0,0,1,1.26-.25c2.89-.1,6.84,2.44,8.45,6.63C36.06,77.26,34.72,82.6,32.58,84.92Z" transform="translate(-13.15 -13.83)"/><g class="cls-6"><path class="cls-7" d="M32.58,84.92a4.81,4.81,0,0,1-.53.49c-.15-.5-.28-1-.41-1.5q-.34-1.35-.63-2.7a.2.2,0,0,1,.16-.25.21.21,0,0,1,.24.15h0c.25.88.51,1.77.79,2.64C32.33,84.15,32.45,84.53,32.58,84.92Z" transform="translate(-13.15 -13.83)"/></g><path class="cls-4" d="M90.21,75.65C88.53,80,85,85.79,82.24,86a2.07,2.07,0,0,1-.85-.12,2.91,2.91,0,0,1-.85-.51,4.81,4.81,0,0,1-.53-.49c-2.15-2.32-3.49-7.66-1.94-11.68,1.61-4.19,5.56-6.73,8.45-6.63a4,4,0,0,1,1.27.25C90.66,68,92.07,70.82,90.21,75.65Z" transform="translate(-13.15 -13.83)"/><g class="cls-6"><path class="cls-7" d="M81.58,81.21c-.2.9-.41,1.8-.64,2.7-.12.5-.26,1-.4,1.5a4.81,4.81,0,0,1-.53-.49c.12-.39.25-.77.38-1.17.28-.87.54-1.76.78-2.64h0a.21.21,0,0,1,.25-.15A.21.21,0,0,1,81.58,81.21Z" transform="translate(-13.15 -13.83)"/></g><path class="cls-4" d="M53.5,44.93l-.09-.1,0,0Z" transform="translate(-13.15 -13.83)"/><path class="cls-5" d="M86.05,48.28l.11-.29.12-.31c.08-.21.16-.43.23-.64.14-.44.28-.87.4-1.32A24.6,24.6,0,0,0,87.49,43a18.74,18.74,0,0,0,.11-5.44c-.06-.44-.16-.88-.25-1.32l-.17-.65c-.06-.22-.15-.42-.22-.63a3,3,0,0,0-.11-.32l-.13-.31-.13-.3-.07-.16-.08-.15-.31-.59c-.11-.19-.24-.37-.35-.56a10.61,10.61,0,0,0-1.75-2,12.28,12.28,0,0,0-1-.87l-.28-.2-.29-.18-.29-.19a2.82,2.82,0,0,0-.29-.18l-.6-.33-.31-.17-.32-.15-1.29-.62-.64-.31L78,27.08l-1.31-.58q-2.64-1.12-5.35-2c-.9-.31-1.81-.6-2.73-.89s-1.83-.58-2.74-.91a15.38,15.38,0,0,1-2.64-1.22A11.37,11.37,0,0,1,61,19.59a.09.09,0,0,1,0-.1.07.07,0,0,1,.09,0h0A11.08,11.08,0,0,0,63.4,21.2,15.45,15.45,0,0,0,66,22.25c.91.28,1.83.52,2.76.76s1.86.49,2.79.75c1.86.52,3.69,1.12,5.51,1.78l1.35.52.68.26.67.28,1.33.56.34.14.34.16.67.33a2.11,2.11,0,0,1,.33.18l.33.19.32.19a2.14,2.14,0,0,1,.32.2,11.71,11.71,0,0,1,1.22.91,12,12,0,0,1,2.11,2.22c.14.2.3.41.44.63l.39.66.1.16.09.18.17.34.17.35.15.35c.09.24.2.48.28.72l.23.73a14.7,14.7,0,0,1,.36,1.49,20.7,20.7,0,0,1,.2,6,29.62,29.62,0,0,1-.48,3c-.11.49-.23,1-.36,1.46-.07.24-.14.49-.22.73l-.12.36-.13.39h0A1.25,1.25,0,1,1,86,48.35Z" transform="translate(-13.15 -13.83)"/><path class="cls-5" d="M23.24,46.81c0-.16,0-.27,0-.4s0-.26,0-.38,0-.5,0-.75c0-.49.05-1,.1-1.47a25.86,25.86,0,0,1,.44-2.91,21.62,21.62,0,0,1,.79-2.83,18.85,18.85,0,0,1,1.19-2.68c.12-.21.23-.43.36-.64l.39-.62A14.34,14.34,0,0,1,27.38,33a6.19,6.19,0,0,1,.47-.55l.5-.54.53-.5.13-.12.14-.12.29-.22.28-.23c.09-.08.19-.14.29-.22L30.6,30l.62-.37.31-.18.32-.16a16.19,16.19,0,0,1,2.65-1,.07.07,0,0,1,.09.05.06.06,0,0,1,0,.09h0a15.75,15.75,0,0,0-2.48,1.29l-.29.18a2.92,2.92,0,0,0-.28.21l-.55.41-.52.45-.26.23-.24.24-.24.25-.12.12-.12.13-.44.52c-.14.17-.27.36-.41.54s-.26.37-.39.56c-.25.38-.47.78-.68,1.17l-.3.61c-.1.2-.18.42-.27.62a16.85,16.85,0,0,0-.83,2.58,19.84,19.84,0,0,0-.45,2.67,24.29,24.29,0,0,0-.13,2.7c0,.44,0,.89.06,1.34q0,.33.06.66l0,.33c0,.1,0,.22.05.29a1.27,1.27,0,1,1-2.49.47s0-.1,0-.15Z" transform="translate(-13.15 -13.83)"/><g class="cls-6"><path class="cls-7" d="M86.38,75.57a.2.2,0,0,1-.11,0,.23.23,0,0,1-.08-.31C87.53,73,87.61,69,87.61,69a.22.22,0,0,1,.22-.22h0a.22.22,0,0,1,.22.22c0,.17-.08,4.21-1.49,6.5A.21.21,0,0,1,86.38,75.57Z" transform="translate(-13.15 -13.83)"/></g><g class="cls-6"><path class="cls-7" d="M26.1,75.57a.23.23,0,0,1-.19-.11c-1.4-2.29-1.48-6.33-1.48-6.5a.22.22,0,0,1,.22-.22.21.21,0,0,1,.22.22S25,73,26.29,75.23a.24.24,0,0,1-.07.31A.27.27,0,0,1,26.1,75.57Z" transform="translate(-13.15 -13.83)"/></g><path class="cls-4" d="M32.58,84.92A86,86,0,0,1,35.32,123L78,121.86S75.77,107.15,80,84.92,29.15,66.82,32.58,84.92Z" transform="translate(-13.15 -13.83)"/><path class="cls-5" d="M87.83,64.61c-.65,2.66-4.51,14.74-8.42,24.76-2.78,7.11-5.59,13.18-7.3,14.1-4.11,2.22-26.21,1.2-29.45.49-2.8-.6-6.63-8.16-9.39-15.25-.44-1.12-.85-2.23-1.22-3.3-2.75-7.81-7.66-19.8-7.66-19.8l5.08-27.12,11.07-7.18s24.5-1.44,36.86.95S89,60.08,87.83,64.61Z" transform="translate(-13.15 -13.83)"/><path class="cls-8" d="M99.55,130.89a89.77,89.77,0,0,1-20.4,7.72,95,95,0,0,1-19.53,2.69c-1.08,0-2.17,0-3.27,0s-2,0-2.94,0a92.25,92.25,0,0,1-40.26-10.42l25.37-9H74.19Z" transform="translate(-13.15 -13.83)"/><path class="cls-9" d="M79.41,89.37c-2.78,7.11-5.59,13.18-7.3,14.1-4.11,2.22-26.21,1.2-29.45.49-2.8-.6-6.63-8.16-9.39-15.25C37,93.32,45.57,102,56.64,101.39,67,100.87,75.3,93.73,79.41,89.37Z" transform="translate(-13.15 -13.83)"/><path class="cls-10" d="M31.35,118.84s25.43,5.38,50.06-.35l2.82,6.94s-21.64,11.32-57.84.75Z" transform="translate(-13.15 -13.83)"/><path class="cls-10" d="M70.52,87.28H68.75a.3.3,0,1,1,0-.59h1.77a4.66,4.66,0,0,0,1.18-.15.31.31,0,0,1,.37.21.3.3,0,0,1-.21.36A5.08,5.08,0,0,1,70.52,87.28Zm-3.55,0H65.19a.3.3,0,0,1,0-.59H67a.3.3,0,1,1,0,.59Zm-3.55,0H61.64a.3.3,0,1,1,0-.59h1.78a.3.3,0,0,1,0,.59Zm-3.56,0H58.09a.3.3,0,1,1,0-.59h1.77a.3.3,0,1,1,0,.59Zm-3.55,0H54.53a.3.3,0,0,1,0-.59h1.78a.3.3,0,1,1,0,.59Zm-3.55,0H51a.3.3,0,1,1,0-.59h1.78a.3.3,0,0,1,0,.59Zm-3.56,0H47.43a.3.3,0,1,1,0-.59H49.2a.3.3,0,1,1,0,.59Zm-3.55,0H43.87a.3.3,0,0,1,0-.59h1.78a.3.3,0,1,1,0,.59Zm-3.55,0h0a5.29,5.29,0,0,1-1.84-.37.3.3,0,0,1,.23-.55,4.46,4.46,0,0,0,1.62.33.29.29,0,0,1,.29.3A.29.29,0,0,1,42.1,87.28Zm31.28-.91a.3.3,0,0,1-.24-.12.29.29,0,0,1,.07-.42,4.49,4.49,0,0,0,1.15-1.19.3.3,0,0,1,.41-.08.3.3,0,0,1,.09.41,5.26,5.26,0,0,1-1.31,1.35A.34.34,0,0,1,73.38,86.37ZM38.87,86a.32.32,0,0,1-.2-.08,5,5,0,0,1-1.13-1.5.3.3,0,0,1,.13-.39.29.29,0,0,1,.4.13,4.61,4.61,0,0,0,1,1.32.3.3,0,0,1,0,.42A.28.28,0,0,1,38.87,86Zm36.44-2.51h-.07a.3.3,0,0,1-.22-.35c0-.14.06-.27.08-.41l.18-1.32a.3.3,0,0,1,.59.08l-.18,1.32-.09.46A.29.29,0,0,1,75.31,83.48Zm-38-.6a.3.3,0,0,1-.3-.25l-.24-1.76a.3.3,0,0,1,.25-.34.31.31,0,0,1,.34.26l.24,1.76a.29.29,0,0,1-.25.33ZM75.82,80h0a.3.3,0,0,1-.26-.33l.25-1.76a.29.29,0,0,1,.33-.25.3.3,0,0,1,.26.33l-.25,1.76A.3.3,0,0,1,75.82,80Zm-39-.61a.28.28,0,0,1-.29-.25l-.25-1.76a.3.3,0,0,1,.26-.34.29.29,0,0,1,.33.26L37.11,79a.29.29,0,0,1-.25.33Zm39.49-2.91h0a.29.29,0,0,1-.26-.33l.25-1.76a.29.29,0,0,1,.58.08l-.24,1.76A.3.3,0,0,1,76.31,76.45Zm-40-.61a.29.29,0,0,1-.29-.25l-.25-1.76a.31.31,0,0,1,.26-.34.29.29,0,0,1,.33.26l.25,1.76a.3.3,0,0,1-.26.33Zm40.46-2.91h0a.29.29,0,0,1-.25-.33l.24-1.76a.3.3,0,0,1,.34-.25.29.29,0,0,1,.25.33l-.24,1.76A.3.3,0,0,1,76.79,72.93Zm-40.95-.61a.29.29,0,0,1-.29-.25l-.24-1.76a.29.29,0,1,1,.58-.08L36.14,72a.29.29,0,0,1-.26.33Zm41.44-2.91h0a.29.29,0,0,1-.25-.33l.24-1.76a.3.3,0,0,1,.59.08l-.25,1.76A.29.29,0,0,1,77.28,69.41ZM35.36,68.8a.29.29,0,0,1-.3-.25l-.24-1.76a.3.3,0,0,1,.25-.34.31.31,0,0,1,.34.26l.24,1.76a.29.29,0,0,1-.25.33Zm42.41-2.91h0a.29.29,0,0,1-.25-.33l.24-1.76a.29.29,0,0,1,.33-.25.29.29,0,0,1,.26.33l-.25,1.76A.3.3,0,0,1,77.77,65.89Zm-42.9-.61a.28.28,0,0,1-.29-.25l-.25-1.76a.3.3,0,0,1,.25-.34.3.3,0,0,1,.34.26L35.16,65a.29.29,0,0,1-.25.33Zm43.39-2.91h0A.29.29,0,0,1,78,62l.25-1.76a.29.29,0,1,1,.58.08l-.24,1.76A.3.3,0,0,1,78.26,62.37Zm-43.88-.61a.29.29,0,0,1-.29-.25l-.25-1.76a.31.31,0,0,1,.26-.34.29.29,0,0,1,.33.26l.24,1.76a.29.29,0,0,1-.25.33Zm44.36-2.91h0a.29.29,0,0,1-.25-.33l0-.13a4.73,4.73,0,0,0,0-.65,5.26,5.26,0,0,0-.08-.89.29.29,0,0,1,.23-.35.3.3,0,0,1,.35.23,5.76,5.76,0,0,1,.1,1,6,6,0,0,1,0,.73l0,.13A.3.3,0,0,1,78.74,58.85Zm-44.82-.61a.3.3,0,0,1-.3-.28v-.23a5.05,5.05,0,0,1,.26-1.63.3.3,0,1,1,.56.19,4.67,4.67,0,0,0-.23,1.44v.2a.3.3,0,0,1-.28.31Zm44.14-2.8a.31.31,0,0,1-.25-.14,4.5,4.5,0,0,0-1.11-1.23.3.3,0,0,1-.06-.42.29.29,0,0,1,.41,0A5.21,5.21,0,0,1,78.32,55a.31.31,0,0,1-.1.41A.3.3,0,0,1,78.06,55.44ZM35,54.94a.33.33,0,0,1-.19-.06.31.31,0,0,1,0-.42,5.35,5.35,0,0,1,1.42-1.22.3.3,0,0,1,.41.11.29.29,0,0,1-.11.4,4.66,4.66,0,0,0-1.26,1.08A.3.3,0,0,1,35,54.94ZM75.3,53.33h-.08a4.56,4.56,0,0,0-1.33-.2h-.35a.3.3,0,0,1,0-.59h.35a5.09,5.09,0,0,1,1.5.22.3.3,0,0,1-.09.58ZM38,53.19a.29.29,0,0,1-.29-.25A.29.29,0,0,1,38,52.6a6.38,6.38,0,0,1,.87-.07h1a.3.3,0,0,1,0,.59h-1a4.9,4.9,0,0,0-.77.07Zm33.76-.07H70a.3.3,0,1,1,0-.59h1.78a.3.3,0,0,1,0,.59Zm-3.56,0H66.44a.3.3,0,1,1,0-.59h1.77a.3.3,0,1,1,0,.59Zm-3.55,0H62.88a.3.3,0,0,1,0-.59h1.78a.3.3,0,1,1,0,.59Zm-3.55,0H59.33a.3.3,0,1,1,0-.59h1.78a.3.3,0,0,1,0,.59Zm-3.56,0H55.78a.3.3,0,1,1,0-.59h1.77a.3.3,0,1,1,0,.59Zm-3.55,0H52.22a.3.3,0,0,1,0-.59H54a.3.3,0,1,1,0,.59Zm-3.55,0H48.67a.3.3,0,1,1,0-.59h1.78a.3.3,0,0,1,0,.59Zm-3.56,0H45.12a.3.3,0,1,1,0-.59h1.77a.3.3,0,1,1,0,.59Zm-3.55,0H41.56a.3.3,0,0,1,0-.59h1.78a.3.3,0,1,1,0,.59Z" transform="translate(-13.15 -13.83)"/><g class="cls-11"><path class="cls-12" d="M35.94,53.7a.62.62,0,1,1-.62-.62A.62.62,0,0,1,35.94,53.7Z" transform="translate(-13.15 -13.83)"/><path class="cls-12" d="M38.73,53.7a.62.62,0,1,1-.62-.62A.62.62,0,0,1,38.73,53.7Z" transform="translate(-13.15 -13.83)"/><path class="cls-12" d="M41.53,53.7a.63.63,0,1,1-.62-.62A.62.62,0,0,1,41.53,53.7Z" transform="translate(-13.15 -13.83)"/><path class="cls-12" d="M44.32,53.7a.62.62,0,1,1-.62-.62A.62.62,0,0,1,44.32,53.7Z" transform="translate(-13.15 -13.83)"/><path class="cls-12" d="M47.11,53.7a.62.62,0,1,1-.62-.62A.62.62,0,0,1,47.11,53.7Z" transform="translate(-13.15 -13.83)"/><path class="cls-12" d="M49.91,53.7a.63.63,0,1,1-.63-.62A.63.63,0,0,1,49.91,53.7Z" transform="translate(-13.15 -13.83)"/><path class="cls-12" d="M52.7,53.7a.62.62,0,1,1-.62-.62A.62.62,0,0,1,52.7,53.7Z" transform="translate(-13.15 -13.83)"/><path class="cls-12" d="M55.49,53.7a.62.62,0,1,1-.62-.62A.62.62,0,0,1,55.49,53.7Z" transform="translate(-13.15 -13.83)"/><path class="cls-12" d="M58.28,53.7a.62.62,0,0,1-.62.62.62.62,0,0,1,0-1.24A.62.62,0,0,1,58.28,53.7Z" transform="translate(-13.15 -13.83)"/><path class="cls-12" d="M61.08,53.7a.62.62,0,0,1-.62.62.62.62,0,0,1,0-1.24A.62.62,0,0,1,61.08,53.7Z" transform="translate(-13.15 -13.83)"/><path class="cls-12" d="M63.87,53.7a.62.62,0,1,1-.62-.62A.62.62,0,0,1,63.87,53.7Z" transform="translate(-13.15 -13.83)"/><path class="cls-12" d="M66.66,53.7a.62.62,0,0,1-.62.62.62.62,0,1,1,0-1.24A.62.62,0,0,1,66.66,53.7Z" transform="translate(-13.15 -13.83)"/><path class="cls-12" d="M69.46,53.7a.62.62,0,0,1-.62.62.62.62,0,1,1,0-1.24A.62.62,0,0,1,69.46,53.7Z" transform="translate(-13.15 -13.83)"/><path class="cls-12" d="M72.25,53.7a.62.62,0,1,1-.62-.62A.62.62,0,0,1,72.25,53.7Z" transform="translate(-13.15 -13.83)"/><path class="cls-12" d="M75,53.7a.62.62,0,0,1-.62.62.62.62,0,1,1,0-1.24A.62.62,0,0,1,75,53.7Z" transform="translate(-13.15 -13.83)"/><path class="cls-12" d="M77.84,53.7a.62.62,0,0,1-.62.62.62.62,0,0,1,0-1.24A.62.62,0,0,1,77.84,53.7Z" transform="translate(-13.15 -13.83)"/><path class="cls-12" d="M34.54,55.84a.62.62,0,0,1-1.24,0,.62.62,0,0,1,1.24,0Z" transform="translate(-13.15 -13.83)"/><path class="cls-12" d="M37.34,55.84a.62.62,0,0,1-.62.62.62.62,0,0,1-.62-.62.61.61,0,0,1,.62-.62A.62.62,0,0,1,37.34,55.84Z" transform="translate(-13.15 -13.83)"/><path class="cls-12" d="M40.13,55.84a.62.62,0,0,1-1.24,0,.62.62,0,0,1,1.24,0Z" transform="translate(-13.15 -13.83)"/><path class="cls-12" d="M42.92,55.84a.62.62,0,0,1-1.24,0,.62.62,0,0,1,1.24,0Z" transform="translate(-13.15 -13.83)"/><path class="cls-12" d="M45.72,55.84a.63.63,0,0,1-1.25,0,.63.63,0,0,1,1.25,0Z" transform="translate(-13.15 -13.83)"/><path class="cls-12" d="M48.51,55.84a.62.62,0,0,1-1.24,0,.62.62,0,0,1,1.24,0Z" transform="translate(-13.15 -13.83)"/><path class="cls-12" d="M51.3,55.84a.62.62,0,1,1-1.24,0,.62.62,0,0,1,1.24,0Z" transform="translate(-13.15 -13.83)"/><path class="cls-12" d="M54.09,55.84a.62.62,0,0,1-.62.62.62.62,0,0,1-.62-.62.62.62,0,0,1,.62-.62A.61.61,0,0,1,54.09,55.84Z" transform="translate(-13.15 -13.83)"/><path class="cls-12" d="M56.89,55.84a.62.62,0,0,1-1.24,0,.62.62,0,0,1,1.24,0Z" transform="translate(-13.15 -13.83)"/><path class="cls-12" d="M59.68,55.84a.62.62,0,0,1-1.24,0,.62.62,0,0,1,1.24,0Z" transform="translate(-13.15 -13.83)"/><path class="cls-12" d="M62.47,55.84a.62.62,0,0,1-.62.62.62.62,0,0,1-.62-.62.62.62,0,0,1,.62-.62A.61.61,0,0,1,62.47,55.84Z" transform="translate(-13.15 -13.83)"/><path class="cls-12" d="M65.27,55.84a.62.62,0,0,1-.62.62.62.62,0,0,1-.62-.62.61.61,0,0,1,.62-.62A.62.62,0,0,1,65.27,55.84Z" transform="translate(-13.15 -13.83)"/><path class="cls-12" d="M68.06,55.84a.62.62,0,0,1-1.24,0,.62.62,0,0,1,1.24,0Z" transform="translate(-13.15 -13.83)"/><path class="cls-12" d="M70.85,55.84a.62.62,0,0,1-.62.62.62.62,0,0,1-.62-.62.62.62,0,0,1,.62-.62A.61.61,0,0,1,70.85,55.84Z" transform="translate(-13.15 -13.83)"/><path class="cls-12" d="M73.65,55.84a.62.62,0,0,1-.62.62.62.62,0,0,1-.62-.62.61.61,0,0,1,.62-.62A.62.62,0,0,1,73.65,55.84Z" transform="translate(-13.15 -13.83)"/><path class="cls-12" d="M76.44,55.84a.62.62,0,0,1-1.24,0,.62.62,0,0,1,1.24,0Z" transform="translate(-13.15 -13.83)"/><path class="cls-12" d="M79.23,55.84a.62.62,0,0,1-.62.62.62.62,0,0,1-.62-.62.62.62,0,0,1,.62-.62A.61.61,0,0,1,79.23,55.84Z" transform="translate(-13.15 -13.83)"/><path class="cls-12" d="M35.94,53.7a.62.62,0,1,1-.62-.62A.62.62,0,0,1,35.94,53.7Z" transform="translate(-13.15 -13.83)"/><path class="cls-12" d="M38.73,53.7a.62.62,0,1,1-.62-.62A.62.62,0,0,1,38.73,53.7Z" transform="translate(-13.15 -13.83)"/><path class="cls-12" d="M41.53,53.7a.63.63,0,1,1-.62-.62A.62.62,0,0,1,41.53,53.7Z" transform="translate(-13.15 -13.83)"/><path class="cls-12" d="M44.32,53.7a.62.62,0,1,1-.62-.62A.62.62,0,0,1,44.32,53.7Z" transform="translate(-13.15 -13.83)"/><path class="cls-12" d="M47.11,53.7a.62.62,0,1,1-.62-.62A.62.62,0,0,1,47.11,53.7Z" transform="translate(-13.15 -13.83)"/><path class="cls-12" d="M49.91,53.7a.63.63,0,1,1-.63-.62A.63.63,0,0,1,49.91,53.7Z" transform="translate(-13.15 -13.83)"/><path class="cls-12" d="M52.7,53.7a.62.62,0,1,1-.62-.62A.62.62,0,0,1,52.7,53.7Z" transform="translate(-13.15 -13.83)"/><path class="cls-12" d="M55.49,53.7a.62.62,0,1,1-.62-.62A.62.62,0,0,1,55.49,53.7Z" transform="translate(-13.15 -13.83)"/><path class="cls-12" d="M58.28,53.7a.62.62,0,0,1-.62.62.62.62,0,0,1,0-1.24A.62.62,0,0,1,58.28,53.7Z" transform="translate(-13.15 -13.83)"/><path class="cls-12" d="M61.08,53.7a.62.62,0,0,1-.62.62.62.62,0,0,1,0-1.24A.62.62,0,0,1,61.08,53.7Z" transform="translate(-13.15 -13.83)"/><path class="cls-12" d="M63.87,53.7a.62.62,0,1,1-.62-.62A.62.62,0,0,1,63.87,53.7Z" transform="translate(-13.15 -13.83)"/><path class="cls-12" d="M66.66,53.7a.62.62,0,0,1-.62.62.62.62,0,1,1,0-1.24A.62.62,0,0,1,66.66,53.7Z" transform="translate(-13.15 -13.83)"/><path class="cls-12" d="M69.46,53.7a.62.62,0,0,1-.62.62.62.62,0,1,1,0-1.24A.62.62,0,0,1,69.46,53.7Z" transform="translate(-13.15 -13.83)"/><path class="cls-12" d="M72.25,53.7a.62.62,0,1,1-.62-.62A.62.62,0,0,1,72.25,53.7Z" transform="translate(-13.15 -13.83)"/><path class="cls-12" d="M75,53.7a.62.62,0,0,1-.62.62.62.62,0,1,1,0-1.24A.62.62,0,0,1,75,53.7Z" transform="translate(-13.15 -13.83)"/><path class="cls-12" d="M77.84,53.7a.62.62,0,0,1-.62.62.62.62,0,0,1,0-1.24A.62.62,0,0,1,77.84,53.7Z" transform="translate(-13.15 -13.83)"/><path class="cls-12" d="M34.54,55.84a.62.62,0,0,1-1.24,0,.62.62,0,0,1,1.24,0Z" transform="translate(-13.15 -13.83)"/><path class="cls-12" d="M37.34,55.84a.62.62,0,0,1-.62.62.62.62,0,0,1-.62-.62.61.61,0,0,1,.62-.62A.62.62,0,0,1,37.34,55.84Z" transform="translate(-13.15 -13.83)"/><path class="cls-12" d="M40.13,55.84a.62.62,0,0,1-1.24,0,.62.62,0,0,1,1.24,0Z" transform="translate(-13.15 -13.83)"/><path class="cls-12" d="M42.92,55.84a.62.62,0,0,1-1.24,0,.62.62,0,0,1,1.24,0Z" transform="translate(-13.15 -13.83)"/><path class="cls-12" d="M45.72,55.84a.63.63,0,0,1-1.25,0,.63.63,0,0,1,1.25,0Z" transform="translate(-13.15 -13.83)"/><path class="cls-12" d="M48.51,55.84a.62.62,0,0,1-1.24,0,.62.62,0,0,1,1.24,0Z" transform="translate(-13.15 -13.83)"/><path class="cls-12" d="M51.3,55.84a.62.62,0,1,1-1.24,0,.62.62,0,0,1,1.24,0Z" transform="translate(-13.15 -13.83)"/><path class="cls-12" d="M54.09,55.84a.62.62,0,0,1-.62.62.62.62,0,0,1-.62-.62.62.62,0,0,1,.62-.62A.61.61,0,0,1,54.09,55.84Z" transform="translate(-13.15 -13.83)"/><path class="cls-12" d="M56.89,55.84a.62.62,0,0,1-1.24,0,.62.62,0,0,1,1.24,0Z" transform="translate(-13.15 -13.83)"/><path class="cls-12" d="M59.68,55.84a.62.62,0,0,1-1.24,0,.62.62,0,0,1,1.24,0Z" transform="translate(-13.15 -13.83)"/><path class="cls-12" d="M62.47,55.84a.62.62,0,0,1-.62.62.62.62,0,0,1-.62-.62.62.62,0,0,1,.62-.62A.61.61,0,0,1,62.47,55.84Z" transform="translate(-13.15 -13.83)"/><path class="cls-12" d="M65.27,55.84a.62.62,0,0,1-.62.62.62.62,0,0,1-.62-.62.61.61,0,0,1,.62-.62A.62.62,0,0,1,65.27,55.84Z" transform="translate(-13.15 -13.83)"/><path class="cls-12" d="M68.06,55.84a.62.62,0,0,1-1.24,0,.62.62,0,0,1,1.24,0Z" transform="translate(-13.15 -13.83)"/><path class="cls-12" d="M70.85,55.84a.62.62,0,0,1-.62.62.62.62,0,0,1-.62-.62.62.62,0,0,1,.62-.62A.61.61,0,0,1,70.85,55.84Z" transform="translate(-13.15 -13.83)"/><path class="cls-12" d="M73.65,55.84a.62.62,0,0,1-.62.62.62.62,0,0,1-.62-.62.61.61,0,0,1,.62-.62A.62.62,0,0,1,73.65,55.84Z" transform="translate(-13.15 -13.83)"/><path class="cls-12" d="M76.44,55.84a.62.62,0,0,1-1.24,0,.62.62,0,0,1,1.24,0Z" transform="translate(-13.15 -13.83)"/><path class="cls-12" d="M79.23,55.84a.62.62,0,0,1-.62.62.62.62,0,0,1-.62-.62.62.62,0,0,1,.62-.62A.61.61,0,0,1,79.23,55.84Z" transform="translate(-13.15 -13.83)"/><path class="cls-12" d="M35.94,58a.62.62,0,1,1-.62-.62A.63.63,0,0,1,35.94,58Z" transform="translate(-13.15 -13.83)"/><path class="cls-12" d="M38.73,58a.62.62,0,1,1-.62-.62A.63.63,0,0,1,38.73,58Z" transform="translate(-13.15 -13.83)"/><path class="cls-12" d="M41.53,58a.63.63,0,1,1-.62-.62A.63.63,0,0,1,41.53,58Z" transform="translate(-13.15 -13.83)"/><path class="cls-12" d="M44.32,58a.62.62,0,1,1-.62-.62A.63.63,0,0,1,44.32,58Z" transform="translate(-13.15 -13.83)"/><path class="cls-12" d="M47.11,58a.62.62,0,1,1-.62-.62A.63.63,0,0,1,47.11,58Z" transform="translate(-13.15 -13.83)"/><path class="cls-12" d="M49.91,58a.63.63,0,1,1-.63-.62A.63.63,0,0,1,49.91,58Z" transform="translate(-13.15 -13.83)"/><path class="cls-12" d="M52.7,58a.62.62,0,1,1-.62-.62A.63.63,0,0,1,52.7,58Z" transform="translate(-13.15 -13.83)"/><path class="cls-12" d="M55.49,58a.62.62,0,1,1-.62-.62A.63.63,0,0,1,55.49,58Z" transform="translate(-13.15 -13.83)"/><path class="cls-12" d="M58.28,58a.62.62,0,0,1-.62.63.63.63,0,0,1,0-1.25A.62.62,0,0,1,58.28,58Z" transform="translate(-13.15 -13.83)"/><path class="cls-12" d="M61.08,58a.63.63,0,0,1-.62.63.63.63,0,1,1,.62-.63Z" transform="translate(-13.15 -13.83)"/><path class="cls-12" d="M63.87,58a.62.62,0,1,1-.62-.62A.63.63,0,0,1,63.87,58Z" transform="translate(-13.15 -13.83)"/><path class="cls-12" d="M66.66,58a.62.62,0,0,1-.62.63.63.63,0,0,1,0-1.25A.62.62,0,0,1,66.66,58Z" transform="translate(-13.15 -13.83)"/><path class="cls-12" d="M69.46,58a.63.63,0,0,1-.62.63.63.63,0,1,1,.62-.63Z" transform="translate(-13.15 -13.83)"/><path class="cls-12" d="M72.25,58a.62.62,0,1,1-.62-.62A.63.63,0,0,1,72.25,58Z" transform="translate(-13.15 -13.83)"/><path class="cls-12" d="M75,58a.62.62,0,0,1-.62.63.63.63,0,0,1,0-1.25A.62.62,0,0,1,75,58Z" transform="translate(-13.15 -13.83)"/><path class="cls-12" d="M77.84,58a.63.63,0,0,1-.62.63.63.63,0,1,1,.62-.63Z" transform="translate(-13.15 -13.83)"/><circle class="cls-12" cx="20.77" cy="46.28" r="0.62"/><path class="cls-12" d="M37.34,60.11a.62.62,0,0,1-.62.62.61.61,0,0,1-.62-.62.62.62,0,0,1,.62-.62A.62.62,0,0,1,37.34,60.11Z" transform="translate(-13.15 -13.83)"/><path class="cls-12" d="M40.13,60.11a.62.62,0,0,1-1.24,0,.62.62,0,1,1,1.24,0Z" transform="translate(-13.15 -13.83)"/><circle class="cls-12" cx="29.15" cy="46.28" r="0.62"/><circle class="cls-12" cx="31.94" cy="46.28" r="0.62"/><circle class="cls-12" cx="34.74" cy="46.28" r="0.62"/><path class="cls-12" d="M51.3,60.11a.62.62,0,1,1-1.24,0,.62.62,0,1,1,1.24,0Z" transform="translate(-13.15 -13.83)"/><path class="cls-12" d="M54.09,60.11a.61.61,0,0,1-.62.62.62.62,0,0,1-.62-.62.62.62,0,0,1,.62-.62A.62.62,0,0,1,54.09,60.11Z" transform="translate(-13.15 -13.83)"/><circle class="cls-12" cx="43.12" cy="46.28" r="0.62"/><circle class="cls-12" cx="45.91" cy="46.28" r="0.62"/><circle class="cls-12" cx="48.7" cy="46.28" r="0.62"/><path class="cls-12" d="M65.27,60.11a.62.62,0,0,1-.62.62.61.61,0,0,1-.62-.62.62.62,0,0,1,.62-.62A.62.62,0,0,1,65.27,60.11Z" transform="translate(-13.15 -13.83)"/><path class="cls-12" d="M68.06,60.11a.62.62,0,0,1-1.24,0,.62.62,0,1,1,1.24,0Z" transform="translate(-13.15 -13.83)"/><circle class="cls-12" cx="57.08" cy="46.28" r="0.62"/><circle class="cls-12" cx="59.88" cy="46.28" r="0.62"/><circle class="cls-12" cx="62.67" cy="46.28" r="0.62"/><path class="cls-12" d="M79.23,60.11a.61.61,0,0,1-.62.62.62.62,0,0,1-.62-.62.62.62,0,0,1,.62-.62A.62.62,0,0,1,79.23,60.11Z" transform="translate(-13.15 -13.83)"/><path class="cls-12" d="M35.94,58a.62.62,0,1,1-.62-.62A.63.63,0,0,1,35.94,58Z" transform="translate(-13.15 -13.83)"/><path class="cls-12" d="M38.73,58a.62.62,0,1,1-.62-.62A.63.63,0,0,1,38.73,58Z" transform="translate(-13.15 -13.83)"/><path class="cls-12" d="M41.53,58a.63.63,0,1,1-.62-.62A.63.63,0,0,1,41.53,58Z" transform="translate(-13.15 -13.83)"/><path class="cls-12" d="M44.32,58a.62.62,0,1,1-.62-.62A.63.63,0,0,1,44.32,58Z" transform="translate(-13.15 -13.83)"/><path class="cls-12" d="M47.11,58a.62.62,0,1,1-.62-.62A.63.63,0,0,1,47.11,58Z" transform="translate(-13.15 -13.83)"/><path class="cls-12" d="M49.91,58a.63.63,0,1,1-.63-.62A.63.63,0,0,1,49.91,58Z" transform="translate(-13.15 -13.83)"/><path class="cls-12" d="M52.7,58a.62.62,0,1,1-.62-.62A.63.63,0,0,1,52.7,58Z" transform="translate(-13.15 -13.83)"/><path class="cls-12" d="M55.49,58a.62.62,0,1,1-.62-.62A.63.63,0,0,1,55.49,58Z" transform="translate(-13.15 -13.83)"/><path class="cls-12" d="M58.28,58a.62.62,0,0,1-.62.63.63.63,0,0,1,0-1.25A.62.62,0,0,1,58.28,58Z" transform="translate(-13.15 -13.83)"/><path class="cls-12" d="M61.08,58a.63.63,0,0,1-.62.63.63.63,0,1,1,.62-.63Z" transform="translate(-13.15 -13.83)"/><path class="cls-12" d="M63.87,58a.62.62,0,1,1-.62-.62A.63.63,0,0,1,63.87,58Z" transform="translate(-13.15 -13.83)"/><path class="cls-12" d="M66.66,58a.62.62,0,0,1-.62.63.63.63,0,0,1,0-1.25A.62.62,0,0,1,66.66,58Z" transform="translate(-13.15 -13.83)"/><path class="cls-12" d="M69.46,58a.63.63,0,0,1-.62.63.63.63,0,1,1,.62-.63Z" transform="translate(-13.15 -13.83)"/><path class="cls-12" d="M72.25,58a.62.62,0,1,1-.62-.62A.63.63,0,0,1,72.25,58Z" transform="translate(-13.15 -13.83)"/><path class="cls-12" d="M75,58a.62.62,0,0,1-.62.63.63.63,0,0,1,0-1.25A.62.62,0,0,1,75,58Z" transform="translate(-13.15 -13.83)"/><path class="cls-12" d="M77.84,58a.63.63,0,0,1-.62.63.63.63,0,1,1,.62-.63Z" transform="translate(-13.15 -13.83)"/><circle class="cls-12" cx="20.77" cy="46.28" r="0.62"/><path class="cls-12" d="M37.34,60.11a.62.62,0,0,1-.62.62.61.61,0,0,1-.62-.62.62.62,0,0,1,.62-.62A.62.62,0,0,1,37.34,60.11Z" transform="translate(-13.15 -13.83)"/><path class="cls-12" d="M40.13,60.11a.62.62,0,0,1-1.24,0,.62.62,0,1,1,1.24,0Z" transform="translate(-13.15 -13.83)"/><circle class="cls-12" cx="29.15" cy="46.28" r="0.62"/><circle class="cls-12" cx="31.94" cy="46.28" r="0.62"/><circle class="cls-12" cx="34.74" cy="46.28" r="0.62"/><path class="cls-12" d="M51.3,60.11a.62.62,0,1,1-1.24,0,.62.62,0,1,1,1.24,0Z" transform="translate(-13.15 -13.83)"/><path class="cls-12" d="M54.09,60.11a.61.61,0,0,1-.62.62.62.62,0,0,1-.62-.62.62.62,0,0,1,.62-.62A.62.62,0,0,1,54.09,60.11Z" transform="translate(-13.15 -13.83)"/><circle class="cls-12" cx="43.12" cy="46.28" r="0.62"/><circle class="cls-12" cx="45.91" cy="46.28" r="0.62"/><circle class="cls-12" cx="48.7" cy="46.28" r="0.62"/><path class="cls-12" d="M65.27,60.11a.62.62,0,0,1-.62.62.61.61,0,0,1-.62-.62.62.62,0,0,1,.62-.62A.62.62,0,0,1,65.27,60.11Z" transform="translate(-13.15 -13.83)"/><path class="cls-12" d="M68.06,60.11a.62.62,0,0,1-1.24,0,.62.62,0,1,1,1.24,0Z" transform="translate(-13.15 -13.83)"/><circle class="cls-12" cx="57.08" cy="46.28" r="0.62"/><circle class="cls-12" cx="59.88" cy="46.28" r="0.62"/><circle class="cls-12" cx="62.67" cy="46.28" r="0.62"/><path class="cls-12" d="M79.23,60.11a.61.61,0,0,1-.62.62.62.62,0,0,1-.62-.62.62.62,0,0,1,.62-.62A.62.62,0,0,1,79.23,60.11Z" transform="translate(-13.15 -13.83)"/><circle class="cls-12" cx="22.17" cy="48.42" r="0.62"/><path class="cls-12" d="M38.73,62.25a.62.62,0,1,1-.62-.62A.62.62,0,0,1,38.73,62.25Z" transform="translate(-13.15 -13.83)"/><path class="cls-12" d="M41.53,62.25a.63.63,0,1,1-.62-.62A.62.62,0,0,1,41.53,62.25Z" transform="translate(-13.15 -13.83)"/><circle class="cls-12" cx="30.55" cy="48.42" r="0.62"/><circle class="cls-12" cx="33.34" cy="48.42" r="0.62"/><path class="cls-12" d="M49.91,62.25a.63.63,0,1,1-.63-.62A.63.63,0,0,1,49.91,62.25Z" transform="translate(-13.15 -13.83)"/><path class="cls-12" d="M52.7,62.25a.62.62,0,1,1-.62-.62A.62.62,0,0,1,52.7,62.25Z" transform="translate(-13.15 -13.83)"/><circle class="cls-12" cx="41.72" cy="48.42" r="0.62"/><circle class="cls-12" cx="44.51" cy="48.42" r="0.62"/><circle class="cls-12" cx="47.31" cy="48.42" r="0.62"/><path class="cls-12" d="M63.87,62.25a.62.62,0,1,1-.62-.62A.62.62,0,0,1,63.87,62.25Z" transform="translate(-13.15 -13.83)"/><path class="cls-12" d="M66.66,62.25a.62.62,0,0,1-.62.62.62.62,0,1,1,0-1.24A.62.62,0,0,1,66.66,62.25Z" transform="translate(-13.15 -13.83)"/><circle class="cls-12" cx="55.69" cy="48.42" r="0.62"/><circle class="cls-12" cx="58.48" cy="48.42" r="0.62"/><circle class="cls-12" cx="61.27" cy="48.42" r="0.62"/><path class="cls-12" d="M77.84,62.25a.62.62,0,0,1-.62.62.62.62,0,0,1,0-1.24A.62.62,0,0,1,77.84,62.25Z" transform="translate(-13.15 -13.83)"/><circle class="cls-12" cx="20.77" cy="50.56" r="0.62"/><path class="cls-12" d="M37.34,64.39a.62.62,0,0,1-.62.62.62.62,0,0,1,0-1.24A.62.62,0,0,1,37.34,64.39Z" transform="translate(-13.15 -13.83)"/><path class="cls-12" d="M40.13,64.39a.62.62,0,1,1-.62-.62A.62.62,0,0,1,40.13,64.39Z" transform="translate(-13.15 -13.83)"/><circle class="cls-12" cx="29.15" cy="50.56" r="0.62"/><circle class="cls-12" cx="31.94" cy="50.56" r="0.62"/><circle class="cls-12" cx="34.74" cy="50.56" r="0.62"/><path class="cls-12" d="M51.3,64.39a.62.62,0,1,1-.62-.62A.62.62,0,0,1,51.3,64.39Z" transform="translate(-13.15 -13.83)"/><path class="cls-12" d="M54.09,64.39a.62.62,0,0,1-.62.62.62.62,0,0,1,0-1.24A.62.62,0,0,1,54.09,64.39Z" transform="translate(-13.15 -13.83)"/><circle class="cls-12" cx="43.12" cy="50.56" r="0.62"/><circle class="cls-12" cx="45.91" cy="50.56" r="0.62"/><circle class="cls-12" cx="48.7" cy="50.56" r="0.62"/><path class="cls-12" d="M65.27,64.39a.62.62,0,0,1-.62.62.62.62,0,0,1,0-1.24A.62.62,0,0,1,65.27,64.39Z" transform="translate(-13.15 -13.83)"/><path class="cls-12" d="M68.06,64.39a.62.62,0,1,1-.62-.62A.62.62,0,0,1,68.06,64.39Z" transform="translate(-13.15 -13.83)"/><circle class="cls-12" cx="57.08" cy="50.56" r="0.62"/><circle class="cls-12" cx="59.88" cy="50.56" r="0.62"/><circle class="cls-12" cx="62.67" cy="50.56" r="0.62"/><path class="cls-12" d="M79.23,64.39a.62.62,0,0,1-.62.62.62.62,0,0,1,0-1.24A.62.62,0,0,1,79.23,64.39Z" transform="translate(-13.15 -13.83)"/><path class="cls-12" d="M35.94,66.64a.62.62,0,1,1-1.24,0,.62.62,0,1,1,1.24,0Z" transform="translate(-13.15 -13.83)"/><path class="cls-12" d="M38.73,66.64a.62.62,0,1,1-1.24,0,.62.62,0,0,1,1.24,0Z" transform="translate(-13.15 -13.83)"/><path class="cls-12" d="M41.53,66.64a.63.63,0,0,1-1.25,0,.63.63,0,0,1,1.25,0Z" transform="translate(-13.15 -13.83)"/><path class="cls-12" d="M44.32,66.64a.62.62,0,1,1-1.24,0,.62.62,0,0,1,1.24,0Z" transform="translate(-13.15 -13.83)"/><path class="cls-12" d="M47.11,66.64a.62.62,0,1,1-1.24,0,.62.62,0,0,1,1.24,0Z" transform="translate(-13.15 -13.83)"/><path class="cls-12" d="M49.91,66.64a.63.63,0,1,1-.63-.62A.63.63,0,0,1,49.91,66.64Z" transform="translate(-13.15 -13.83)"/><path class="cls-12" d="M52.7,66.64a.62.62,0,1,1-1.24,0,.62.62,0,0,1,1.24,0Z" transform="translate(-13.15 -13.83)"/><path class="cls-12" d="M55.49,66.64a.62.62,0,1,1-1.24,0,.62.62,0,0,1,1.24,0Z" transform="translate(-13.15 -13.83)"/><path class="cls-12" d="M58.28,66.64a.61.61,0,0,1-.62.62.62.62,0,0,1-.62-.62.62.62,0,0,1,.62-.62A.62.62,0,0,1,58.28,66.64Z" transform="translate(-13.15 -13.83)"/><path class="cls-12" d="M61.08,66.64a.62.62,0,0,1-.62.62.61.61,0,0,1-.62-.62.62.62,0,0,1,.62-.62A.62.62,0,0,1,61.08,66.64Z" transform="translate(-13.15 -13.83)"/><path class="cls-12" d="M63.87,66.64a.62.62,0,0,1-1.24,0,.62.62,0,1,1,1.24,0Z" transform="translate(-13.15 -13.83)"/><path class="cls-12" d="M66.66,66.64a.61.61,0,0,1-.62.62.62.62,0,0,1-.62-.62A.62.62,0,0,1,66,66,.62.62,0,0,1,66.66,66.64Z" transform="translate(-13.15 -13.83)"/><path class="cls-12" d="M69.46,66.64a.62.62,0,0,1-.62.62.61.61,0,0,1-.62-.62.62.62,0,0,1,.62-.62A.62.62,0,0,1,69.46,66.64Z" transform="translate(-13.15 -13.83)"/><path class="cls-12" d="M72.25,66.64a.62.62,0,1,1-1.24,0,.62.62,0,1,1,1.24,0Z" transform="translate(-13.15 -13.83)"/><path class="cls-12" d="M75,66.64a.61.61,0,0,1-.62.62.62.62,0,0,1-.62-.62.62.62,0,0,1,.62-.62A.62.62,0,0,1,75,66.64Z" transform="translate(-13.15 -13.83)"/><path class="cls-12" d="M77.84,66.64a.62.62,0,0,1-.62.62.61.61,0,0,1-.62-.62.62.62,0,0,1,.62-.62A.62.62,0,0,1,77.84,66.64Z" transform="translate(-13.15 -13.83)"/><circle class="cls-12" cx="20.77" cy="54.95" r="0.62"/><path class="cls-12" d="M37.34,68.78a.62.62,0,0,1-.62.62.62.62,0,0,1,0-1.24A.62.62,0,0,1,37.34,68.78Z" transform="translate(-13.15 -13.83)"/><path class="cls-12" d="M40.13,68.78a.62.62,0,1,1-.62-.62A.62.62,0,0,1,40.13,68.78Z" transform="translate(-13.15 -13.83)"/><circle class="cls-12" cx="29.15" cy="54.95" r="0.62"/><circle class="cls-12" cx="31.94" cy="54.95" r="0.62"/><circle class="cls-12" cx="34.74" cy="54.95" r="0.62"/><path class="cls-12" d="M51.3,68.78a.62.62,0,1,1-.62-.62A.62.62,0,0,1,51.3,68.78Z" transform="translate(-13.15 -13.83)"/><path class="cls-12" d="M54.09,68.78a.62.62,0,0,1-.62.62.62.62,0,0,1,0-1.24A.62.62,0,0,1,54.09,68.78Z" transform="translate(-13.15 -13.83)"/><circle class="cls-12" cx="43.12" cy="54.95" r="0.62"/><circle class="cls-12" cx="45.91" cy="54.95" r="0.62"/><circle class="cls-12" cx="48.7" cy="54.95" r="0.62"/><path class="cls-12" d="M65.27,68.78a.62.62,0,0,1-.62.62.62.62,0,0,1,0-1.24A.62.62,0,0,1,65.27,68.78Z" transform="translate(-13.15 -13.83)"/><path class="cls-12" d="M68.06,68.78a.62.62,0,1,1-.62-.62A.62.62,0,0,1,68.06,68.78Z" transform="translate(-13.15 -13.83)"/><circle class="cls-12" cx="57.08" cy="54.95" r="0.62"/><circle class="cls-12" cx="59.88" cy="54.95" r="0.62"/><circle class="cls-12" cx="62.67" cy="54.95" r="0.62"/><path class="cls-12" d="M79.23,68.78a.62.62,0,0,1-.62.62.62.62,0,1,1,0-1.24A.62.62,0,0,1,79.23,68.78Z" transform="translate(-13.15 -13.83)"/><path class="cls-12" d="M35.94,66.64a.62.62,0,1,1-1.24,0,.62.62,0,1,1,1.24,0Z" transform="translate(-13.15 -13.83)"/><path class="cls-12" d="M38.73,66.64a.62.62,0,1,1-1.24,0,.62.62,0,0,1,1.24,0Z" transform="translate(-13.15 -13.83)"/><path class="cls-12" d="M41.53,66.64a.63.63,0,0,1-1.25,0,.63.63,0,0,1,1.25,0Z" transform="translate(-13.15 -13.83)"/><path class="cls-12" d="M44.32,66.64a.62.62,0,1,1-1.24,0,.62.62,0,0,1,1.24,0Z" transform="translate(-13.15 -13.83)"/><path class="cls-12" d="M47.11,66.64a.62.62,0,1,1-1.24,0,.62.62,0,0,1,1.24,0Z" transform="translate(-13.15 -13.83)"/><path class="cls-12" d="M49.91,66.64a.63.63,0,1,1-.63-.62A.63.63,0,0,1,49.91,66.64Z" transform="translate(-13.15 -13.83)"/><path class="cls-12" d="M52.7,66.64a.62.62,0,1,1-1.24,0,.62.62,0,0,1,1.24,0Z" transform="translate(-13.15 -13.83)"/><path class="cls-12" d="M55.49,66.64a.62.62,0,1,1-1.24,0,.62.62,0,0,1,1.24,0Z" transform="translate(-13.15 -13.83)"/><path class="cls-12" d="M58.28,66.64a.61.61,0,0,1-.62.62.62.62,0,0,1-.62-.62.62.62,0,0,1,.62-.62A.62.62,0,0,1,58.28,66.64Z" transform="translate(-13.15 -13.83)"/><path class="cls-12" d="M61.08,66.64a.62.62,0,0,1-.62.62.61.61,0,0,1-.62-.62.62.62,0,0,1,.62-.62A.62.62,0,0,1,61.08,66.64Z" transform="translate(-13.15 -13.83)"/><path class="cls-12" d="M63.87,66.64a.62.62,0,0,1-1.24,0,.62.62,0,1,1,1.24,0Z" transform="translate(-13.15 -13.83)"/><path class="cls-12" d="M66.66,66.64a.61.61,0,0,1-.62.62.62.62,0,0,1-.62-.62A.62.62,0,0,1,66,66,.62.62,0,0,1,66.66,66.64Z" transform="translate(-13.15 -13.83)"/><path class="cls-12" d="M69.46,66.64a.62.62,0,0,1-.62.62.61.61,0,0,1-.62-.62.62.62,0,0,1,.62-.62A.62.62,0,0,1,69.46,66.64Z" transform="translate(-13.15 -13.83)"/><path class="cls-12" d="M72.25,66.64a.62.62,0,1,1-1.24,0,.62.62,0,1,1,1.24,0Z" transform="translate(-13.15 -13.83)"/><path class="cls-12" d="M75,66.64a.61.61,0,0,1-.62.62.62.62,0,0,1-.62-.62.62.62,0,0,1,.62-.62A.62.62,0,0,1,75,66.64Z" transform="translate(-13.15 -13.83)"/><path class="cls-12" d="M77.84,66.64a.62.62,0,0,1-.62.62.61.61,0,0,1-.62-.62.62.62,0,0,1,.62-.62A.62.62,0,0,1,77.84,66.64Z" transform="translate(-13.15 -13.83)"/><circle class="cls-12" cx="20.77" cy="54.95" r="0.62"/><path class="cls-12" d="M37.34,68.78a.62.62,0,0,1-.62.62.62.62,0,0,1,0-1.24A.62.62,0,0,1,37.34,68.78Z" transform="translate(-13.15 -13.83)"/><path class="cls-12" d="M40.13,68.78a.62.62,0,1,1-.62-.62A.62.62,0,0,1,40.13,68.78Z" transform="translate(-13.15 -13.83)"/><circle class="cls-12" cx="29.15" cy="54.95" r="0.62"/><circle class="cls-12" cx="31.94" cy="54.95" r="0.62"/><circle class="cls-12" cx="34.74" cy="54.95" r="0.62"/><path class="cls-12" d="M51.3,68.78a.62.62,0,1,1-.62-.62A.62.62,0,0,1,51.3,68.78Z" transform="translate(-13.15 -13.83)"/><path class="cls-12" d="M54.09,68.78a.62.62,0,0,1-.62.62.62.62,0,0,1,0-1.24A.62.62,0,0,1,54.09,68.78Z" transform="translate(-13.15 -13.83)"/><circle class="cls-12" cx="43.12" cy="54.95" r="0.62"/><circle class="cls-12" cx="45.91" cy="54.95" r="0.62"/><circle class="cls-12" cx="48.7" cy="54.95" r="0.62"/><path class="cls-12" d="M65.27,68.78a.62.62,0,0,1-.62.62.62.62,0,0,1,0-1.24A.62.62,0,0,1,65.27,68.78Z" transform="translate(-13.15 -13.83)"/><path class="cls-12" d="M68.06,68.78a.62.62,0,1,1-.62-.62A.62.62,0,0,1,68.06,68.78Z" transform="translate(-13.15 -13.83)"/><circle class="cls-12" cx="57.08" cy="54.95" r="0.62"/><circle class="cls-12" cx="59.88" cy="54.95" r="0.62"/><circle class="cls-12" cx="62.67" cy="54.95" r="0.62"/><path class="cls-12" d="M79.23,68.78a.62.62,0,0,1-.62.62.62.62,0,1,1,0-1.24A.62.62,0,0,1,79.23,68.78Z" transform="translate(-13.15 -13.83)"/><circle class="cls-12" cx="22.17" cy="57.09" r="0.62"/><path class="cls-12" d="M38.73,70.92a.62.62,0,1,1-.62-.62A.62.62,0,0,1,38.73,70.92Z" transform="translate(-13.15 -13.83)"/><path class="cls-12" d="M41.53,70.92a.63.63,0,1,1-.62-.62A.62.62,0,0,1,41.53,70.92Z" transform="translate(-13.15 -13.83)"/><circle class="cls-12" cx="30.55" cy="57.09" r="0.62"/><circle class="cls-12" cx="33.34" cy="57.09" r="0.62"/><path class="cls-12" d="M49.91,70.92a.63.63,0,1,1-.63-.62A.63.63,0,0,1,49.91,70.92Z" transform="translate(-13.15 -13.83)"/><path class="cls-12" d="M52.7,70.92a.62.62,0,1,1-.62-.62A.62.62,0,0,1,52.7,70.92Z" transform="translate(-13.15 -13.83)"/><circle class="cls-12" cx="41.72" cy="57.09" r="0.62"/><circle class="cls-12" cx="44.51" cy="57.09" r="0.62"/><circle class="cls-12" cx="47.31" cy="57.09" r="0.62"/><path class="cls-12" d="M63.87,70.92a.62.62,0,1,1-.62-.62A.62.62,0,0,1,63.87,70.92Z" transform="translate(-13.15 -13.83)"/><path class="cls-12" d="M66.66,70.92a.62.62,0,0,1-.62.62.62.62,0,0,1,0-1.24A.62.62,0,0,1,66.66,70.92Z" transform="translate(-13.15 -13.83)"/><circle class="cls-12" cx="55.69" cy="57.09" r="0.62"/><circle class="cls-12" cx="58.48" cy="57.09" r="0.62"/><circle class="cls-12" cx="61.27" cy="57.09" r="0.62"/><path class="cls-12" d="M77.84,70.92a.62.62,0,0,1-.62.62.62.62,0,0,1,0-1.24A.62.62,0,0,1,77.84,70.92Z" transform="translate(-13.15 -13.83)"/><circle class="cls-12" cx="20.77" cy="59.23" r="0.62"/><path class="cls-12" d="M37.34,73.06a.62.62,0,0,1-.62.62.62.62,0,0,1,0-1.24A.62.62,0,0,1,37.34,73.06Z" transform="translate(-13.15 -13.83)"/><path class="cls-12" d="M40.13,73.06a.62.62,0,1,1-.62-.62A.62.62,0,0,1,40.13,73.06Z" transform="translate(-13.15 -13.83)"/><circle class="cls-12" cx="29.15" cy="59.23" r="0.62"/><circle class="cls-12" cx="31.94" cy="59.23" r="0.62"/><circle class="cls-12" cx="34.74" cy="59.23" r="0.62"/><path class="cls-12" d="M51.3,73.06a.62.62,0,1,1-.62-.62A.62.62,0,0,1,51.3,73.06Z" transform="translate(-13.15 -13.83)"/><path class="cls-12" d="M54.09,73.06a.62.62,0,0,1-.62.62.62.62,0,0,1,0-1.24A.62.62,0,0,1,54.09,73.06Z" transform="translate(-13.15 -13.83)"/><circle class="cls-12" cx="43.12" cy="59.23" r="0.62"/><circle class="cls-12" cx="45.91" cy="59.23" r="0.62"/><circle class="cls-12" cx="48.7" cy="59.23" r="0.62"/><path class="cls-12" d="M65.27,73.06a.62.62,0,0,1-.62.62.62.62,0,0,1,0-1.24A.62.62,0,0,1,65.27,73.06Z" transform="translate(-13.15 -13.83)"/><path class="cls-12" d="M68.06,73.06a.62.62,0,1,1-.62-.62A.62.62,0,0,1,68.06,73.06Z" transform="translate(-13.15 -13.83)"/><circle class="cls-12" cx="57.08" cy="59.23" r="0.62"/><circle class="cls-12" cx="59.88" cy="59.23" r="0.62"/><circle class="cls-12" cx="62.67" cy="59.23" r="0.62"/><path class="cls-12" d="M79.23,73.06a.62.62,0,0,1-.62.62.62.62,0,0,1,0-1.24A.62.62,0,0,1,79.23,73.06Z" transform="translate(-13.15 -13.83)"/><circle class="cls-12" cx="22.17" cy="57.09" r="0.62"/><path class="cls-12" d="M38.73,70.92a.62.62,0,1,1-.62-.62A.62.62,0,0,1,38.73,70.92Z" transform="translate(-13.15 -13.83)"/><path class="cls-12" d="M41.53,70.92a.63.63,0,1,1-.62-.62A.62.62,0,0,1,41.53,70.92Z" transform="translate(-13.15 -13.83)"/><circle class="cls-12" cx="30.55" cy="57.09" r="0.62"/><circle class="cls-12" cx="33.34" cy="57.09" r="0.62"/><path class="cls-12" d="M49.91,70.92a.63.63,0,1,1-.63-.62A.63.63,0,0,1,49.91,70.92Z" transform="translate(-13.15 -13.83)"/><path class="cls-12" d="M52.7,70.92a.62.62,0,1,1-.62-.62A.62.62,0,0,1,52.7,70.92Z" transform="translate(-13.15 -13.83)"/><circle class="cls-12" cx="41.72" cy="57.09" r="0.62"/><circle class="cls-12" cx="44.51" cy="57.09" r="0.62"/><circle class="cls-12" cx="47.31" cy="57.09" r="0.62"/><path class="cls-12" d="M63.87,70.92a.62.62,0,1,1-.62-.62A.62.62,0,0,1,63.87,70.92Z" transform="translate(-13.15 -13.83)"/><path class="cls-12" d="M66.66,70.92a.62.62,0,0,1-.62.62.62.62,0,0,1,0-1.24A.62.62,0,0,1,66.66,70.92Z" transform="translate(-13.15 -13.83)"/><circle class="cls-12" cx="55.69" cy="57.09" r="0.62"/><circle class="cls-12" cx="58.48" cy="57.09" r="0.62"/><circle class="cls-12" cx="61.27" cy="57.09" r="0.62"/><path class="cls-12" d="M77.84,70.92a.62.62,0,0,1-.62.62.62.62,0,0,1,0-1.24A.62.62,0,0,1,77.84,70.92Z" transform="translate(-13.15 -13.83)"/><circle class="cls-12" cx="20.77" cy="59.23" r="0.62"/><path class="cls-12" d="M37.34,73.06a.62.62,0,0,1-.62.62.62.62,0,0,1,0-1.24A.62.62,0,0,1,37.34,73.06Z" transform="translate(-13.15 -13.83)"/><path class="cls-12" d="M40.13,73.06a.62.62,0,1,1-.62-.62A.62.62,0,0,1,40.13,73.06Z" transform="translate(-13.15 -13.83)"/><circle class="cls-12" cx="29.15" cy="59.23" r="0.62"/><circle class="cls-12" cx="31.94" cy="59.23" r="0.62"/><circle class="cls-12" cx="34.74" cy="59.23" r="0.62"/><path class="cls-12" d="M51.3,73.06a.62.62,0,1,1-.62-.62A.62.62,0,0,1,51.3,73.06Z" transform="translate(-13.15 -13.83)"/><path class="cls-12" d="M54.09,73.06a.62.62,0,0,1-.62.62.62.62,0,0,1,0-1.24A.62.62,0,0,1,54.09,73.06Z" transform="translate(-13.15 -13.83)"/><circle class="cls-12" cx="43.12" cy="59.23" r="0.62"/><circle class="cls-12" cx="45.91" cy="59.23" r="0.62"/><circle class="cls-12" cx="48.7" cy="59.23" r="0.62"/><path class="cls-12" d="M65.27,73.06a.62.62,0,0,1-.62.62.62.62,0,0,1,0-1.24A.62.62,0,0,1,65.27,73.06Z" transform="translate(-13.15 -13.83)"/><path class="cls-12" d="M68.06,73.06a.62.62,0,1,1-.62-.62A.62.62,0,0,1,68.06,73.06Z" transform="translate(-13.15 -13.83)"/><circle class="cls-12" cx="57.08" cy="59.23" r="0.62"/><circle class="cls-12" cx="59.88" cy="59.23" r="0.62"/><circle class="cls-12" cx="62.67" cy="59.23" r="0.62"/><path class="cls-12" d="M79.23,73.06a.62.62,0,0,1-.62.62.62.62,0,0,1,0-1.24A.62.62,0,0,1,79.23,73.06Z" transform="translate(-13.15 -13.83)"/><circle class="cls-12" cx="22.17" cy="61.37" r="0.62"/><path class="cls-12" d="M38.73,75.2a.62.62,0,1,1-.62-.62A.62.62,0,0,1,38.73,75.2Z" transform="translate(-13.15 -13.83)"/><path class="cls-12" d="M41.53,75.2a.63.63,0,1,1-.62-.62A.62.62,0,0,1,41.53,75.2Z" transform="translate(-13.15 -13.83)"/><circle class="cls-12" cx="30.55" cy="61.37" r="0.62"/><circle class="cls-12" cx="33.34" cy="61.37" r="0.62"/><path class="cls-12" d="M49.91,75.2a.63.63,0,1,1-.63-.62A.63.63,0,0,1,49.91,75.2Z" transform="translate(-13.15 -13.83)"/><path class="cls-12" d="M52.7,75.2a.62.62,0,1,1-.62-.62A.62.62,0,0,1,52.7,75.2Z" transform="translate(-13.15 -13.83)"/><circle class="cls-12" cx="41.72" cy="61.37" r="0.62"/><circle class="cls-12" cx="44.51" cy="61.37" r="0.62"/><circle class="cls-12" cx="47.31" cy="61.37" r="0.62"/><path class="cls-12" d="M63.87,75.2a.62.62,0,1,1-.62-.62A.62.62,0,0,1,63.87,75.2Z" transform="translate(-13.15 -13.83)"/><path class="cls-12" d="M66.66,75.2a.62.62,0,0,1-.62.62.62.62,0,1,1,0-1.24A.62.62,0,0,1,66.66,75.2Z" transform="translate(-13.15 -13.83)"/><circle class="cls-12" cx="55.69" cy="61.37" r="0.62"/><circle class="cls-12" cx="58.48" cy="61.37" r="0.62"/><circle class="cls-12" cx="61.27" cy="61.37" r="0.62"/><path class="cls-12" d="M77.84,75.2a.62.62,0,0,1-.62.62.62.62,0,1,1,0-1.24A.62.62,0,0,1,77.84,75.2Z" transform="translate(-13.15 -13.83)"/><path class="cls-12" d="M34.54,77.34a.62.62,0,0,1-1.24,0,.62.62,0,0,1,1.24,0Z" transform="translate(-13.15 -13.83)"/><path class="cls-12" d="M37.34,77.34a.62.62,0,0,1-.62.62.62.62,0,0,1-.62-.62.61.61,0,0,1,.62-.62A.62.62,0,0,1,37.34,77.34Z" transform="translate(-13.15 -13.83)"/><path class="cls-12" d="M40.13,77.34a.62.62,0,0,1-1.24,0,.62.62,0,1,1,1.24,0Z" transform="translate(-13.15 -13.83)"/><path class="cls-12" d="M42.92,77.34a.62.62,0,0,1-1.24,0,.62.62,0,1,1,1.24,0Z" transform="translate(-13.15 -13.83)"/><path class="cls-12" d="M45.72,77.34a.63.63,0,0,1-1.25,0,.63.63,0,0,1,1.25,0Z" transform="translate(-13.15 -13.83)"/><path class="cls-12" d="M48.51,77.34a.62.62,0,0,1-1.24,0,.62.62,0,0,1,1.24,0Z" transform="translate(-13.15 -13.83)"/><path class="cls-12" d="M51.3,77.34a.62.62,0,0,1-1.24,0,.62.62,0,0,1,1.24,0Z" transform="translate(-13.15 -13.83)"/><path class="cls-12" d="M54.09,77.34a.62.62,0,0,1-.62.62.62.62,0,0,1-.62-.62.62.62,0,0,1,.62-.62A.61.61,0,0,1,54.09,77.34Z" transform="translate(-13.15 -13.83)"/><path class="cls-12" d="M56.89,77.34a.62.62,0,0,1-1.24,0,.62.62,0,1,1,1.24,0Z" transform="translate(-13.15 -13.83)"/><path class="cls-12" d="M59.68,77.34a.62.62,0,0,1-1.24,0,.62.62,0,1,1,1.24,0Z" transform="translate(-13.15 -13.83)"/><path class="cls-12" d="M62.47,77.34a.62.62,0,0,1-.62.62.62.62,0,0,1-.62-.62.62.62,0,0,1,.62-.62A.61.61,0,0,1,62.47,77.34Z" transform="translate(-13.15 -13.83)"/><path class="cls-12" d="M65.27,77.34a.62.62,0,0,1-.62.62.62.62,0,0,1-.62-.62.61.61,0,0,1,.62-.62A.62.62,0,0,1,65.27,77.34Z" transform="translate(-13.15 -13.83)"/><path class="cls-12" d="M68.06,77.34a.62.62,0,0,1-1.24,0,.62.62,0,0,1,1.24,0Z" transform="translate(-13.15 -13.83)"/><path class="cls-12" d="M70.85,77.34a.62.62,0,0,1-.62.62.62.62,0,0,1-.62-.62.62.62,0,0,1,.62-.62A.61.61,0,0,1,70.85,77.34Z" transform="translate(-13.15 -13.83)"/><path class="cls-12" d="M73.65,77.34A.62.62,0,0,1,73,78a.62.62,0,0,1-.62-.62.61.61,0,0,1,.62-.62A.62.62,0,0,1,73.65,77.34Z" transform="translate(-13.15 -13.83)"/><path class="cls-12" d="M76.44,77.34a.62.62,0,0,1-1.24,0,.62.62,0,0,1,1.24,0Z" transform="translate(-13.15 -13.83)"/><path class="cls-12" d="M79.23,77.34a.62.62,0,0,1-.62.62.62.62,0,0,1-.62-.62.62.62,0,0,1,.62-.62A.61.61,0,0,1,79.23,77.34Z" transform="translate(-13.15 -13.83)"/><circle class="cls-12" cx="22.17" cy="61.37" r="0.62"/><path class="cls-12" d="M38.73,75.2a.62.62,0,1,1-.62-.62A.62.62,0,0,1,38.73,75.2Z" transform="translate(-13.15 -13.83)"/><path class="cls-12" d="M41.53,75.2a.63.63,0,1,1-.62-.62A.62.62,0,0,1,41.53,75.2Z" transform="translate(-13.15 -13.83)"/><circle class="cls-12" cx="30.55" cy="61.37" r="0.62"/><circle class="cls-12" cx="33.34" cy="61.37" r="0.62"/><path class="cls-12" d="M49.91,75.2a.63.63,0,1,1-.63-.62A.63.63,0,0,1,49.91,75.2Z" transform="translate(-13.15 -13.83)"/><path class="cls-12" d="M52.7,75.2a.62.62,0,1,1-.62-.62A.62.62,0,0,1,52.7,75.2Z" transform="translate(-13.15 -13.83)"/><circle class="cls-12" cx="41.72" cy="61.37" r="0.62"/><circle class="cls-12" cx="44.51" cy="61.37" r="0.62"/><circle class="cls-12" cx="47.31" cy="61.37" r="0.62"/><path class="cls-12" d="M63.87,75.2a.62.62,0,1,1-.62-.62A.62.62,0,0,1,63.87,75.2Z" transform="translate(-13.15 -13.83)"/><path class="cls-12" d="M66.66,75.2a.62.62,0,0,1-.62.62.62.62,0,1,1,0-1.24A.62.62,0,0,1,66.66,75.2Z" transform="translate(-13.15 -13.83)"/><circle class="cls-12" cx="55.69" cy="61.37" r="0.62"/><circle class="cls-12" cx="58.48" cy="61.37" r="0.62"/><circle class="cls-12" cx="61.27" cy="61.37" r="0.62"/><path class="cls-12" d="M77.84,75.2a.62.62,0,0,1-.62.62.62.62,0,1,1,0-1.24A.62.62,0,0,1,77.84,75.2Z" transform="translate(-13.15 -13.83)"/><path class="cls-12" d="M34.54,77.34a.62.62,0,0,1-1.24,0,.62.62,0,0,1,1.24,0Z" transform="translate(-13.15 -13.83)"/><path class="cls-12" d="M37.34,77.34a.62.62,0,0,1-.62.62.62.62,0,0,1-.62-.62.61.61,0,0,1,.62-.62A.62.62,0,0,1,37.34,77.34Z" transform="translate(-13.15 -13.83)"/><path class="cls-12" d="M40.13,77.34a.62.62,0,0,1-1.24,0,.62.62,0,1,1,1.24,0Z" transform="translate(-13.15 -13.83)"/><path class="cls-12" d="M42.92,77.34a.62.62,0,0,1-1.24,0,.62.62,0,1,1,1.24,0Z" transform="translate(-13.15 -13.83)"/><path class="cls-12" d="M45.72,77.34a.63.63,0,0,1-1.25,0,.63.63,0,0,1,1.25,0Z" transform="translate(-13.15 -13.83)"/><path class="cls-12" d="M48.51,77.34a.62.62,0,0,1-1.24,0,.62.62,0,0,1,1.24,0Z" transform="translate(-13.15 -13.83)"/><path class="cls-12" d="M51.3,77.34a.62.62,0,0,1-1.24,0,.62.62,0,0,1,1.24,0Z" transform="translate(-13.15 -13.83)"/><path class="cls-12" d="M54.09,77.34a.62.62,0,0,1-.62.62.62.62,0,0,1-.62-.62.62.62,0,0,1,.62-.62A.61.61,0,0,1,54.09,77.34Z" transform="translate(-13.15 -13.83)"/><path class="cls-12" d="M56.89,77.34a.62.62,0,0,1-1.24,0,.62.62,0,1,1,1.24,0Z" transform="translate(-13.15 -13.83)"/><path class="cls-12" d="M59.68,77.34a.62.62,0,0,1-1.24,0,.62.62,0,1,1,1.24,0Z" transform="translate(-13.15 -13.83)"/><path class="cls-12" d="M62.47,77.34a.62.62,0,0,1-.62.62.62.62,0,0,1-.62-.62.62.62,0,0,1,.62-.62A.61.61,0,0,1,62.47,77.34Z" transform="translate(-13.15 -13.83)"/><path class="cls-12" d="M65.27,77.34a.62.62,0,0,1-.62.62.62.62,0,0,1-.62-.62.61.61,0,0,1,.62-.62A.62.62,0,0,1,65.27,77.34Z" transform="translate(-13.15 -13.83)"/><path class="cls-12" d="M68.06,77.34a.62.62,0,0,1-1.24,0,.62.62,0,0,1,1.24,0Z" transform="translate(-13.15 -13.83)"/><path class="cls-12" d="M70.85,77.34a.62.62,0,0,1-.62.62.62.62,0,0,1-.62-.62.62.62,0,0,1,.62-.62A.61.61,0,0,1,70.85,77.34Z" transform="translate(-13.15 -13.83)"/><path class="cls-12" d="M73.65,77.34A.62.62,0,0,1,73,78a.62.62,0,0,1-.62-.62.61.61,0,0,1,.62-.62A.62.62,0,0,1,73.65,77.34Z" transform="translate(-13.15 -13.83)"/><path class="cls-12" d="M76.44,77.34a.62.62,0,0,1-1.24,0,.62.62,0,0,1,1.24,0Z" transform="translate(-13.15 -13.83)"/><path class="cls-12" d="M79.23,77.34a.62.62,0,0,1-.62.62.62.62,0,0,1-.62-.62.62.62,0,0,1,.62-.62A.61.61,0,0,1,79.23,77.34Z" transform="translate(-13.15 -13.83)"/><path class="cls-12" d="M35.94,79.47a.62.62,0,0,1-1.24,0,.62.62,0,1,1,1.24,0Z" transform="translate(-13.15 -13.83)"/><path class="cls-12" d="M38.73,79.47a.62.62,0,0,1-1.24,0,.62.62,0,1,1,1.24,0Z" transform="translate(-13.15 -13.83)"/><path class="cls-12" d="M41.53,79.47a.63.63,0,0,1-1.25,0,.63.63,0,0,1,1.25,0Z" transform="translate(-13.15 -13.83)"/><path class="cls-12" d="M44.32,79.47a.62.62,0,0,1-1.24,0,.62.62,0,0,1,1.24,0Z" transform="translate(-13.15 -13.83)"/><path class="cls-12" d="M47.11,79.47a.62.62,0,0,1-1.24,0,.62.62,0,0,1,1.24,0Z" transform="translate(-13.15 -13.83)"/><path class="cls-12" d="M49.91,79.47a.63.63,0,1,1-.63-.62A.63.63,0,0,1,49.91,79.47Z" transform="translate(-13.15 -13.83)"/><path class="cls-12" d="M52.7,79.47a.62.62,0,0,1-1.24,0,.62.62,0,0,1,1.24,0Z" transform="translate(-13.15 -13.83)"/><path class="cls-12" d="M55.49,79.47a.62.62,0,0,1-1.24,0,.62.62,0,0,1,1.24,0Z" transform="translate(-13.15 -13.83)"/><path class="cls-12" d="M58.28,79.47a.61.61,0,0,1-.62.62.62.62,0,0,1-.62-.62.62.62,0,0,1,.62-.62A.62.62,0,0,1,58.28,79.47Z" transform="translate(-13.15 -13.83)"/><path class="cls-12" d="M61.08,79.47a.62.62,0,0,1-.62.62.61.61,0,0,1-.62-.62.62.62,0,0,1,.62-.62A.62.62,0,0,1,61.08,79.47Z" transform="translate(-13.15 -13.83)"/><path class="cls-12" d="M63.87,79.47a.62.62,0,0,1-1.24,0,.62.62,0,1,1,1.24,0Z" transform="translate(-13.15 -13.83)"/><path class="cls-12" d="M66.66,79.47a.61.61,0,0,1-.62.62.62.62,0,0,1-.62-.62.62.62,0,0,1,.62-.62A.62.62,0,0,1,66.66,79.47Z" transform="translate(-13.15 -13.83)"/><path class="cls-12" d="M69.46,79.47a.62.62,0,0,1-.62.62.61.61,0,0,1-.62-.62.62.62,0,0,1,.62-.62A.62.62,0,0,1,69.46,79.47Z" transform="translate(-13.15 -13.83)"/><path class="cls-12" d="M72.25,79.47a.62.62,0,1,1-1.24,0,.62.62,0,1,1,1.24,0Z" transform="translate(-13.15 -13.83)"/><path class="cls-12" d="M75,79.47a.61.61,0,0,1-.62.62.62.62,0,0,1-.62-.62.62.62,0,0,1,.62-.62A.62.62,0,0,1,75,79.47Z" transform="translate(-13.15 -13.83)"/><path class="cls-12" d="M77.84,79.47a.62.62,0,0,1-.62.62.61.61,0,0,1-.62-.62.62.62,0,0,1,.62-.62A.62.62,0,0,1,77.84,79.47Z" transform="translate(-13.15 -13.83)"/><path class="cls-12" d="M34.54,81.61a.62.62,0,0,1-1.24,0,.62.62,0,0,1,1.24,0Z" transform="translate(-13.15 -13.83)"/><path class="cls-12" d="M37.34,81.61a.62.62,0,0,1-.62.62.61.61,0,0,1-.62-.62.62.62,0,0,1,.62-.62A.62.62,0,0,1,37.34,81.61Z" transform="translate(-13.15 -13.83)"/><path class="cls-12" d="M40.13,81.61a.62.62,0,1,1-1.24,0,.62.62,0,1,1,1.24,0Z" transform="translate(-13.15 -13.83)"/><path class="cls-12" d="M42.92,81.61a.62.62,0,1,1-1.24,0,.62.62,0,1,1,1.24,0Z" transform="translate(-13.15 -13.83)"/><path class="cls-12" d="M45.72,81.61a.63.63,0,1,1-.63-.62A.63.63,0,0,1,45.72,81.61Z" transform="translate(-13.15 -13.83)"/><path class="cls-12" d="M48.51,81.61a.62.62,0,0,1-1.24,0,.62.62,0,1,1,1.24,0Z" transform="translate(-13.15 -13.83)"/><path class="cls-12" d="M51.3,81.61a.62.62,0,0,1-1.24,0,.62.62,0,1,1,1.24,0Z" transform="translate(-13.15 -13.83)"/><path class="cls-12" d="M54.09,81.61a.61.61,0,0,1-.62.62.62.62,0,0,1-.62-.62.62.62,0,0,1,.62-.62A.62.62,0,0,1,54.09,81.61Z" transform="translate(-13.15 -13.83)"/><path class="cls-12" d="M56.89,81.61a.62.62,0,1,1-1.24,0,.62.62,0,1,1,1.24,0Z" transform="translate(-13.15 -13.83)"/><path class="cls-12" d="M59.68,81.61a.62.62,0,1,1-1.24,0,.62.62,0,1,1,1.24,0Z" transform="translate(-13.15 -13.83)"/><path class="cls-12" d="M62.47,81.61a.61.61,0,0,1-.62.62.62.62,0,0,1-.62-.62.62.62,0,0,1,.62-.62A.62.62,0,0,1,62.47,81.61Z" transform="translate(-13.15 -13.83)"/><path class="cls-12" d="M65.27,81.61a.62.62,0,0,1-.62.62.61.61,0,0,1-.62-.62.62.62,0,0,1,.62-.62A.62.62,0,0,1,65.27,81.61Z" transform="translate(-13.15 -13.83)"/><path class="cls-12" d="M68.06,81.61a.62.62,0,1,1-1.24,0,.62.62,0,0,1,1.24,0Z" transform="translate(-13.15 -13.83)"/><path class="cls-12" d="M70.85,81.61a.61.61,0,0,1-.62.62.62.62,0,0,1-.62-.62.62.62,0,0,1,.62-.62A.62.62,0,0,1,70.85,81.61Z" transform="translate(-13.15 -13.83)"/><path class="cls-12" d="M73.65,81.61a.62.62,0,0,1-.62.62.61.61,0,0,1-.62-.62A.62.62,0,0,1,73,81,.62.62,0,0,1,73.65,81.61Z" transform="translate(-13.15 -13.83)"/><path class="cls-12" d="M76.44,81.61a.62.62,0,1,1-1.24,0,.62.62,0,1,1,1.24,0Z" transform="translate(-13.15 -13.83)"/><path class="cls-12" d="M79.23,81.61a.61.61,0,0,1-.62.62.62.62,0,0,1-.62-.62.62.62,0,0,1,.62-.62A.62.62,0,0,1,79.23,81.61Z" transform="translate(-13.15 -13.83)"/><path class="cls-12" d="M35.94,83.91a.62.62,0,1,1-.62-.62A.62.62,0,0,1,35.94,83.91Z" transform="translate(-13.15 -13.83)"/><path class="cls-12" d="M38.73,83.91a.62.62,0,1,1-.62-.62A.62.62,0,0,1,38.73,83.91Z" transform="translate(-13.15 -13.83)"/><path class="cls-12" d="M41.53,83.91a.63.63,0,1,1-.62-.62A.62.62,0,0,1,41.53,83.91Z" transform="translate(-13.15 -13.83)"/><path class="cls-12" d="M44.32,83.91a.62.62,0,1,1-.62-.62A.62.62,0,0,1,44.32,83.91Z" transform="translate(-13.15 -13.83)"/><path class="cls-12" d="M47.11,83.91a.62.62,0,1,1-.62-.62A.62.62,0,0,1,47.11,83.91Z" transform="translate(-13.15 -13.83)"/><path class="cls-12" d="M49.91,83.91a.63.63,0,1,1-.63-.62A.63.63,0,0,1,49.91,83.91Z" transform="translate(-13.15 -13.83)"/><path class="cls-12" d="M52.7,83.91a.62.62,0,1,1-.62-.62A.62.62,0,0,1,52.7,83.91Z" transform="translate(-13.15 -13.83)"/><path class="cls-12" d="M55.49,83.91a.62.62,0,1,1-.62-.62A.62.62,0,0,1,55.49,83.91Z" transform="translate(-13.15 -13.83)"/><path class="cls-12" d="M58.28,83.91a.62.62,0,0,1-.62.62.62.62,0,1,1,0-1.24A.62.62,0,0,1,58.28,83.91Z" transform="translate(-13.15 -13.83)"/><path class="cls-12" d="M61.08,83.91a.62.62,0,0,1-.62.62.62.62,0,1,1,0-1.24A.62.62,0,0,1,61.08,83.91Z" transform="translate(-13.15 -13.83)"/><path class="cls-12" d="M63.87,83.91a.62.62,0,1,1-.62-.62A.62.62,0,0,1,63.87,83.91Z" transform="translate(-13.15 -13.83)"/><path class="cls-12" d="M66.66,83.91a.62.62,0,0,1-.62.62.62.62,0,0,1,0-1.24A.62.62,0,0,1,66.66,83.91Z" transform="translate(-13.15 -13.83)"/><path class="cls-12" d="M69.46,83.91a.62.62,0,0,1-.62.62.62.62,0,0,1,0-1.24A.62.62,0,0,1,69.46,83.91Z" transform="translate(-13.15 -13.83)"/><path class="cls-12" d="M72.25,83.91a.62.62,0,1,1-.62-.62A.62.62,0,0,1,72.25,83.91Z" transform="translate(-13.15 -13.83)"/><path class="cls-12" d="M75,83.91a.62.62,0,0,1-.62.62.62.62,0,1,1,0-1.24A.62.62,0,0,1,75,83.91Z" transform="translate(-13.15 -13.83)"/><path class="cls-12" d="M77.84,83.91a.62.62,0,0,1-.62.62.62.62,0,1,1,0-1.24A.62.62,0,0,1,77.84,83.91Z" transform="translate(-13.15 -13.83)"/><path class="cls-12" d="M34.54,86.05a.62.62,0,1,1-.62-.62A.62.62,0,0,1,34.54,86.05Z" transform="translate(-13.15 -13.83)"/><path class="cls-12" d="M37.34,86.05a.62.62,0,0,1-.62.62.62.62,0,0,1,0-1.24A.62.62,0,0,1,37.34,86.05Z" transform="translate(-13.15 -13.83)"/><path class="cls-12" d="M40.13,86.05a.62.62,0,1,1-.62-.62A.62.62,0,0,1,40.13,86.05Z" transform="translate(-13.15 -13.83)"/><path class="cls-12" d="M42.92,86.05a.62.62,0,1,1-.62-.62A.62.62,0,0,1,42.92,86.05Z" transform="translate(-13.15 -13.83)"/><path class="cls-12" d="M45.72,86.05a.63.63,0,1,1-.63-.62A.63.63,0,0,1,45.72,86.05Z" transform="translate(-13.15 -13.83)"/><path class="cls-12" d="M48.51,86.05a.62.62,0,1,1-.62-.62A.62.62,0,0,1,48.51,86.05Z" transform="translate(-13.15 -13.83)"/><path class="cls-12" d="M51.3,86.05a.62.62,0,1,1-.62-.62A.62.62,0,0,1,51.3,86.05Z" transform="translate(-13.15 -13.83)"/><path class="cls-12" d="M54.09,86.05a.62.62,0,0,1-.62.62.62.62,0,1,1,0-1.24A.62.62,0,0,1,54.09,86.05Z" transform="translate(-13.15 -13.83)"/><path class="cls-12" d="M56.89,86.05a.62.62,0,1,1-.62-.62A.62.62,0,0,1,56.89,86.05Z" transform="translate(-13.15 -13.83)"/><path class="cls-12" d="M59.68,86.05a.62.62,0,1,1-.62-.62A.62.62,0,0,1,59.68,86.05Z" transform="translate(-13.15 -13.83)"/><path class="cls-12" d="M62.47,86.05a.62.62,0,0,1-.62.62.62.62,0,0,1,0-1.24A.62.62,0,0,1,62.47,86.05Z" transform="translate(-13.15 -13.83)"/><path class="cls-12" d="M65.27,86.05a.62.62,0,0,1-.62.62.62.62,0,0,1,0-1.24A.62.62,0,0,1,65.27,86.05Z" transform="translate(-13.15 -13.83)"/><path class="cls-12" d="M68.06,86.05a.62.62,0,1,1-.62-.62A.62.62,0,0,1,68.06,86.05Z" transform="translate(-13.15 -13.83)"/><path class="cls-12" d="M70.85,86.05a.62.62,0,0,1-.62.62.62.62,0,0,1,0-1.24A.62.62,0,0,1,70.85,86.05Z" transform="translate(-13.15 -13.83)"/><path class="cls-12" d="M73.65,86.05a.62.62,0,0,1-.62.62.62.62,0,1,1,0-1.24A.62.62,0,0,1,73.65,86.05Z" transform="translate(-13.15 -13.83)"/><path class="cls-12" d="M76.44,86.05a.62.62,0,1,1-.62-.62A.62.62,0,0,1,76.44,86.05Z" transform="translate(-13.15 -13.83)"/><path class="cls-12" d="M79.23,86.05a.62.62,0,0,1-.62.62.62.62,0,1,1,0-1.24A.62.62,0,0,1,79.23,86.05Z" transform="translate(-13.15 -13.83)"/></g><g class="cls-13"><rect class="cls-14" x="40.28" y="55.84" width="1.54" height="4.29" transform="translate(7.98 -24.04) rotate(19.01)"/></g><rect class="cls-10" x="40.79" y="52.19" width="3.38" height="3.25" transform="translate(6.7 -24.73) rotate(19.01)"/><rect class="cls-10" x="41.59" y="48.33" width="4.46" height="3.25" transform="translate(5.51 -25.38) rotate(19.01)"/><polygon class="cls-15" points="31.46 39 28.26 37.9 28.03 36.93 32.24 38.39 31.46 39"/><polygon class="cls-10" points="34.33 34.51 28.77 32.59 35.22 13.78 40.77 15.69 34.33 34.51"/><polygon class="cls-15" points="33.3 35.31 29.09 33.86 28.77 32.59 34.33 34.51 33.3 35.31"/><path class="cls-15" d="M42.81,56.32l-2.12-.73a.27.27,0,0,1-.19-.18l-.14-.61,3.19,1.11-.48.38A.29.29,0,0,1,42.81,56.32Z" transform="translate(-13.15 -13.83)"/><path class="cls-16" d="M53.92,29.52l-5.55-1.91L49,25.74a2.94,2.94,0,0,1,3.74-1.82h0a2.94,2.94,0,0,1,1.82,3.73Z" transform="translate(-13.15 -13.83)"/><path class="cls-16" d="M98.1,35.85a.44.44,0,0,1-.44-.39A22.77,22.77,0,0,0,87.5,19.65,31.86,31.86,0,0,0,69,14.73a21.68,21.68,0,0,0-10.23,2.49,11.48,11.48,0,0,0-5.92,8.16.44.44,0,0,1-.49.39.45.45,0,0,1-.39-.5,12.33,12.33,0,0,1,6.36-8.82,22.4,22.4,0,0,1,10.65-2.6A32.7,32.7,0,0,1,88,18.91,23.7,23.7,0,0,1,98.55,35.35a.46.46,0,0,1-.39.5Z" transform="translate(-13.15 -13.83)"/></g></g></svg>