<svg id="Ebene_1" data-name="Ebene 1" xmlns="http://www.w3.org/2000/svg" viewBox="0 0 173.58 154.98"><defs><style>.cls-1{fill:#1d1d1b;}.cls-2{isolation:isolate;}.cls-3{fill:#3c3c3b;}</style></defs><path class="cls-1" d="M33.6,4.63H2.72V8.15H33.6q21.76,0,33,12.72t11.2,37v4.32q0,24.63-11.76,37.2T31,112H6.4V36.75H2.72v78.8h29q24.63,0,37.36-14.08T81.76,60.19q0-27.36-12.25-41.44T33.6,4.63Z" transform="translate(-2.72 -4.63)"/><polygon class="cls-1" points="105.3 52.36 105.3 48.93 105.3 0.04 101.62 0.04 101.62 110.92 105.3 110.92 105.3 61.08 105.3 55.88 105.3 52.36"/><polygon class="cls-1" points="169.9 0.04 169.9 52.36 126.88 52.36 126.88 55.88 169.9 55.88 169.9 110.92 173.58 110.92 173.58 0.04 169.9 0.04"/><rect class="cls-1" y="118.78" width="173.58" height="4.05"/><g class="cls-2"><path class="cls-3" d="M26.83,158.56a13.76,13.76,0,0,1-2.79.77,18.44,18.44,0,0,1-3.12.27q-5.69,0-8.55-3.24t-2.86-9.54q0-6.25,3-9.52T21.1,134a14.42,14.42,0,0,1,5.37,1v.8a16.61,16.61,0,0,0-5.37-.94q-5.22,0-8,3t-2.74,8.51v.94q0,5.58,2.7,8.53t7.81,3a18.89,18.89,0,0,0,5.91-1Z" transform="translate(-2.72 -4.63)"/><path class="cls-3" d="M44,159.21v-25h.83v24.15H57.93v.8Z" transform="translate(-2.72 -4.63)"/><path class="cls-3" d="M74.38,159.21v-25h.83v25Z" transform="translate(-2.72 -4.63)"/><path class="cls-3" d="M95.19,135.55v23.66h-.83v-25h.9l16.24,23.65V134.26h.83v25h-.91Z" transform="translate(-2.72 -4.63)"/><path class="cls-3" d="M131.48,159.21v-25h.82v25Z" transform="translate(-2.72 -4.63)"/><path class="cls-3" d="M168,158.56a13.76,13.76,0,0,1-2.79.77,18.23,18.23,0,0,1-3.11.27q-5.69,0-8.55-3.24t-2.87-9.54q0-6.25,3-9.52t8.64-3.26a14.41,14.41,0,0,1,5.36,1v.8a16.6,16.6,0,0,0-5.36-.94c-3.48,0-6.14,1-8,3s-2.74,4.82-2.74,8.51v.94q0,5.58,2.71,8.53c1.79,2,4.4,3,7.81,3a18.88,18.88,0,0,0,5.9-1Z" transform="translate(-2.72 -4.63)"/></g></svg>