<svg xmlns="http://www.w3.org/2000/svg" xmlns:xlink="http://www.w3.org/1999/xlink" viewBox="0 0 93.52 119.88"><defs><style>.cls-1,.cls-18{fill:none;}.cls-2{isolation:isolate;}.cls-3{fill:#2b3038;}.cls-4{fill:#545e6e;}.cls-5{fill:#fec093;}.cls-6{mix-blend-mode:multiply;opacity:0.15;}.cls-7{fill:#59221a;}.cls-8{fill:#393f4a;}.cls-9{fill:#f0a384;}.cls-10{fill:#fff;}.cls-11{clip-path:url(#clip-path);}.cls-12{fill:#c65a2c;}.cls-13{opacity:0.7;}.cls-14{fill:#e8e7e7;}.cls-15{fill:#eaeaea;}.cls-16{fill:#c7ccd3;}.cls-17{fill:#a0a5aa;}.cls-18{stroke:#fff;stroke-linecap:round;stroke-miterlimit:10;stroke-width:0.5px;stroke-dasharray:3;}</style><clipPath id="clip-path" transform="translate(-8.89 -13.14)"><path class="cls-1" d="M62.83,82.07H45.43c-1.5,0-2.78-.52-3-1.21l-2.07-7c-.25-.84,1.16-1.6,3-1.6H64.9c1.83,0,3.24.76,3,1.6l-2.07,7C65.61,81.55,64.34,82.07,62.83,82.07Z"/></clipPath></defs><g class="cls-2"><g id="Ebene_1" data-name="Ebene 1"><g id="Schritt_1"><path class="cls-3" d="M23.89,68.4c-3,5.26,4.2,15.7,1.81,21.13s-7.07,16.82.54,29.41,46.61,0,46.61,0S84.21,105.4,83,97.71,73.7,79.85,73.35,76.17,30.36,57,23.89,68.4Z" transform="translate(-8.89 -13.14)"/><path class="cls-4" d="M66.74,113.89l27.19,8.87h0A90.89,90.89,0,0,1,51.53,133,90.88,90.88,0,0,1,9.14,122.76h0l27.19-8.87Z" transform="translate(-8.89 -13.14)"/><path class="cls-5" d="M26.64,78.62a1.72,1.72,0,0,1-.84.11c-2.72-.23-6.16-5.89-7.82-10.18-1.83-4.75-.44-7.55,2.38-8.63a3.85,3.85,0,0,1,1.24-.25c2.84-.1,6.71,2.4,8.3,6.51C31.73,70.92,29.46,77.54,26.64,78.62Z" transform="translate(-8.89 -13.14)"/><path class="cls-5" d="M78.89,54.41c0,.23,0,.46,0,.69a27.52,27.52,0,0,1-55,.48,1.34,1.34,0,0,0,0-.21V55.1c0-.23,0-.46,0-.69A27.53,27.53,0,0,1,42,28.54h0a27.46,27.46,0,0,1,9.41-1.65,28.12,28.12,0,0,1,2.92.15A27.52,27.52,0,0,1,78.89,54.41Z" transform="translate(-8.89 -13.14)"/><path class="cls-5" d="M66.74,113.89s-3.48,4.24-15.21,4.24-15.2-4.24-15.2-4.24c6.63-5.19,3.56-23.33,3.56-23.33H63.17s-.17,1-.34,2.66A49,49,0,0,0,63,106.4C63.59,109.51,64.71,112.31,66.74,113.89Z" transform="translate(-8.89 -13.14)"/><g class="cls-6"><path class="cls-7" d="M63,106.4a11.29,11.29,0,0,1-3.54-.21C48.22,103.84,43.78,96,43.78,96c2.27-4.59,11.92-4,19-2.79A49,49,0,0,0,63,106.4Z" transform="translate(-8.89 -13.14)"/></g><path class="cls-5" d="M78.89,55.1s-.15,13.43-5,25.25C70.08,89.65,63.37,98,51.53,98,26.34,98,24.06,60.29,23.87,55.58a1.34,1.34,0,0,0,0-.21V55.1Z" transform="translate(-8.89 -13.14)"/><path class="cls-8" d="M52.4,61.32a15.13,15.13,0,0,0,.34,2.28q.24,1.14.51,2.28c.37,1.52.76,3,1.09,4.57.17.77.33,1.54.43,2.34,0,.2,0,.41,0,.62a1.73,1.73,0,0,1-.12.72,2.14,2.14,0,0,1-.41.58,3.77,3.77,0,0,1-.49.42,9.62,9.62,0,0,1-2.18,1.08,16.14,16.14,0,0,1-2.28.67.21.21,0,0,1-.24-.16.2.2,0,0,1,.13-.23h0q1.1-.39,2.16-.84c.35-.16.7-.32,1-.5a6.92,6.92,0,0,0,.95-.59,1.9,1.9,0,0,0,.66-.71,2.35,2.35,0,0,0,0-1c-.09-.75-.24-1.52-.4-2.28l-1-4.58c-.16-.77-.32-1.54-.44-2.32A13.31,13.31,0,0,1,52,61.32a.2.2,0,0,1,.21-.2.19.19,0,0,1,.19.19Z" transform="translate(-8.89 -13.14)"/><path class="cls-9" d="M56.63,84.46c0,1.37-2.39,3.4-5.34,3.4s-5.34-2-5.34-3.4,2.39-1.81,5.34-1.81S56.63,83.1,56.63,84.46Z" transform="translate(-8.89 -13.14)"/><ellipse class="cls-9" cx="61.49" cy="56.61" rx="4.36" ry="4.31"/><path class="cls-8" d="M35,33.81c-3,5.89-4.45,12.64-10.79,26.35,0,0-9.18-20.93,6.61-29.12S71,18.27,78.36,27.94,87,60,85.05,69.26s3.47,25.19,3.47,25.19S81,88.51,79.6,86.55s-8.15-7.81-6.23-16.27c.9-3.93,3-10.52,2.26-15.87S69,46.45,60.5,42.13C53.36,38.52,51.53,25.86,35,33.81Z" transform="translate(-8.89 -13.14)"/><ellipse class="cls-9" cx="25.31" cy="56.61" rx="4.36" ry="4.31"/><path class="cls-8" d="M44.6,84.32l1.67.14c.56,0,1.12.08,1.67.1,1.12.06,2.23.1,3.35.08s2.22,0,3.34-.11,2.24-.13,3.35-.21h0a.21.21,0,0,1,.22.19.2.2,0,0,1-.17.21c-1.11.2-2.23.33-3.35.43s-2.26.16-3.39.18-2.26,0-3.39-.14c-.56,0-1.12-.12-1.68-.19s-1.12-.16-1.68-.28a.21.21,0,0,1-.16-.24.21.21,0,0,1,.22-.16Z" transform="translate(-8.89 -13.14)"/><path class="cls-8" d="M60.83,50.85l-1.41,2.2s10.2-1.19,13.67-.24S66.9,48.67,60.83,50.85Z" transform="translate(-8.89 -13.14)"/><path class="cls-8" d="M42.1,50.85l1.41,2.2s-10.2-1.19-13.66-.24S36,48.67,42.1,50.85Z" transform="translate(-8.89 -13.14)"/><path class="cls-8" d="M62.71,62.75s3.63.66,8.34-2c0,0-.74-1.26,2.74-3.68C73.79,57,63.58,60.64,62.71,62.75Z" transform="translate(-8.89 -13.14)"/><path class="cls-8" d="M59.54,61.93S61.07,53.22,73.79,57c0,0-2,1.39-4.13,3.14A10.33,10.33,0,0,1,59.54,61.93Z" transform="translate(-8.89 -13.14)"/><path class="cls-10" d="M70.16,58.41A6.36,6.36,0,0,1,68.1,61l-.29.22a8.51,8.51,0,0,1-2.24,1.11,8.06,8.06,0,0,1-2.48.42h-.38a7.22,7.22,0,0,1-3.17-.82,7.11,7.11,0,0,1,2.06-2.57l.27-.21a8.59,8.59,0,0,1,4.76-1.59H67A6.45,6.45,0,0,1,70.16,58.41Z" transform="translate(-8.89 -13.14)"/><path class="cls-8" d="M68.2,60.27a5.16,5.16,0,0,1-.15,1c-.09.07-.16.14-.26.21a8.12,8.12,0,0,1-2.17,1,3.15,3.15,0,0,1-1.54.32c-.13,0-1.25,0-1.37,0a3.34,3.34,0,0,1-1.11-3.39,2.41,2.41,0,0,1,.08-.25A3.35,3.35,0,0,1,65,56.82a3.31,3.31,0,0,1,1.78.58,1.66,1.66,0,0,1,.21.16A3.31,3.31,0,0,1,68.2,60.27Z" transform="translate(-8.89 -13.14)"/><path class="cls-8" d="M40.62,62.75s-3.63.66-8.34-2c0,0,.74-1.26-2.74-3.68C29.54,57,39.75,60.64,40.62,62.75Z" transform="translate(-8.89 -13.14)"/><path class="cls-8" d="M43.78,61.93S42.25,53.22,29.54,57c0,0,1.95,1.39,4.13,3.14A10.31,10.31,0,0,0,43.78,61.93Z" transform="translate(-8.89 -13.14)"/><path class="cls-10" d="M33.16,58.41A6.34,6.34,0,0,0,35.23,61c.09.07.18.15.29.22a8.43,8.43,0,0,0,2.23,1.11,8.16,8.16,0,0,0,2.49.42h.38a7.15,7.15,0,0,0,3.16-.82,7,7,0,0,0-2.05-2.57l-.28-.21A8.1,8.1,0,0,0,39.19,58a8.34,8.34,0,0,0-2.49-.44h-.33A6.45,6.45,0,0,0,33.16,58.41Z" transform="translate(-8.89 -13.14)"/><path class="cls-8" d="M35.12,60.27a5.17,5.17,0,0,0,.16,1c.09.07.16.14.26.21a7.83,7.83,0,0,0,2.17,1,3.13,3.13,0,0,0,1.54.32c.13,0,1.24,0,1.37,0a3.43,3.43,0,0,0,1.11-3.39c0-.08,0-.17-.08-.25a3.36,3.36,0,0,0-5.07-1.71l-.21.16A3.34,3.34,0,0,0,35.12,60.27Z" transform="translate(-8.89 -13.14)"/><g class="cls-6"><path class="cls-7" d="M74.92,80.27h0a8.61,8.61,0,0,1-3.36-6c-1-7,3.22-16.36,2.07-19.16-1.65-4-8.44-6.57-14.55-8.65s-5.17-9.58-8.48-13.3c3.74,2.53,6,6.91,9.72,8.89l.18.1C69,46.45,74.89,49.06,75.63,54.41s-1.36,11.94-2.26,15.88c-.08.38-.15.77-.21,1.15s-.06.5-.08.75l0,.36a14.56,14.56,0,0,0,0,2,14.17,14.17,0,0,0,.61,2.91c0,.1.07.2.1.3l.09.25.12.32c.06.16.13.31.19.47s.07.17.11.25.15.32.23.48,0,0,0,0l.12.25C74.75,80,74.83,80.11,74.92,80.27Z" transform="translate(-8.89 -13.14)"/></g><path class="cls-8" d="M22.55,62.74a2.62,2.62,0,0,0-.56,0l-.29,0-.27.08a2,2,0,0,0-.91.65A3,3,0,0,0,20,64.59c0,.2-.07.41-.1.62l0,.63v0a.2.2,0,0,1-.4,0l0-.68c0-.23,0-.46.07-.68a3.65,3.65,0,0,1,.5-1.33,2.7,2.7,0,0,1,1.14-.92,3.59,3.59,0,0,1,.35-.12l.35-.08a3.09,3.09,0,0,1,.75,0,.37.37,0,0,1,.35.4.38.38,0,0,1-.4.34h0Z" transform="translate(-8.89 -13.14)"/><path class="cls-8" d="M20.35,63.1c.11-.14.18-.15.24-.13l.19.06.37.14a4.92,4.92,0,0,1,.68.37,4.36,4.36,0,0,1,1.15,1,5.06,5.06,0,0,1,.75,1.34,5.94,5.94,0,0,1,.21.72c0,.25.08.5.11.74a.2.2,0,0,1-.39.09v0c-.07-.22-.13-.45-.2-.66a4.42,4.42,0,0,0-.27-.63l-.15-.3-.18-.29a2.22,2.22,0,0,0-.19-.27c-.07-.08-.13-.18-.21-.26a4.57,4.57,0,0,0-1-.84,6.36,6.36,0,0,0-.58-.3l-.31-.11-.15-.05c-.06,0-.1,0-.11-.22v-.12A.46.46,0,0,1,20.35,63.1Z" transform="translate(-8.89 -13.14)"/><path class="cls-3" d="M26.85,73.9c.24.87.5,1.74.77,2.59s.54,1.67.87,2.49l-.06.19c.07.19.08.26-.11.34a.38.38,0,0,1-.48-.21v0c-.3-.87-.54-1.75-.76-2.63s-.43-1.76-.62-2.65a.2.2,0,0,1,.39-.1Z" transform="translate(-8.89 -13.14)"/><path class="cls-8" d="M33,30a.74.74,0,0,1-.58-.32,4.34,4.34,0,0,1-.2-.5c-.11-.33-.21-.67-.3-1a12.18,12.18,0,0,1-.33-2.08,10.41,10.41,0,0,1,2.7-7.75,13.58,13.58,0,0,1,3.17-2.59.21.21,0,0,1,.27.07.21.21,0,0,1,0,.27,15.79,15.79,0,0,0-2.77,2.77c-.21.25-.38.53-.56.79a7.74,7.74,0,0,0-.48.83,9,9,0,0,0-.72,1.77A9.71,9.71,0,0,0,32.76,26a10.75,10.75,0,0,0,.32,1.87,7.35,7.35,0,0,0,.28.91c0,.15.12.29.15.44a.76.76,0,0,1-.17.59l0,0A.34.34,0,0,1,33,30Z" transform="translate(-8.89 -13.14)"/><path class="cls-8" d="M30.44,28.47c0-.16.07-.27.1-.4l.12-.36c.07-.24.16-.47.25-.7.18-.45.38-.9.6-1.33A17.79,17.79,0,0,1,33,23.21a20.78,20.78,0,0,1,4-4.12,23.39,23.39,0,0,1,4.89-2.93,31.86,31.86,0,0,1,5.35-1.83,44.92,44.92,0,0,1,11.13-1.18,76.2,76.2,0,0,1,11.1,1,.2.2,0,0,1,.17.23.21.21,0,0,1-.23.17,74.13,74.13,0,0,0-11-.67,44.14,44.14,0,0,0-10.87,1.46,31.58,31.58,0,0,0-5.1,1.91,22.89,22.89,0,0,0-4.54,2.9,19.51,19.51,0,0,0-3.6,3.94A16.9,16.9,0,0,0,33,26.39c-.19.39-.35.8-.51,1.21-.07.2-.14.41-.2.61l-.09.31c0,.09,0,.21-.06.28v0a.85.85,0,0,1-1.66-.33Z" transform="translate(-8.89 -13.14)"/><path class="cls-8" d="M37.48,30.82c.37-.07.69-.11,1-.15s.67-.07,1-.08a17.19,17.19,0,0,1,2,0,17,17,0,0,1,4,.66,14,14,0,0,1,3.7,1.68,13,13,0,0,1,3,2.72,50.52,50.52,0,0,0,5.2,5.72,15.78,15.78,0,0,0,3.12,2.19,29.43,29.43,0,0,0,3.53,1.58.2.2,0,0,1,.12.26.21.21,0,0,1-.26.12,29.16,29.16,0,0,1-3.64-1.47A16.48,16.48,0,0,1,57,41.9a51.08,51.08,0,0,1-5.5-5.61,11.85,11.85,0,0,0-2.85-2.39,12.72,12.72,0,0,0-3.43-1.41,15.83,15.83,0,0,0-3.7-.47c-.63,0-1.25,0-1.87.07l-.93.11c-.3,0-.62.1-.88.16h0a.8.8,0,0,1-.36-1.55Z" transform="translate(-8.89 -13.14)"/><path class="cls-8" d="M75,76.4a40.13,40.13,0,0,1,3.22,5.81,41.4,41.4,0,0,1,2.31,6.25,32.54,32.54,0,0,1,.76,3.28,27,27,0,0,1,.39,3.39,16.37,16.37,0,0,1-.19,3.48,6.72,6.72,0,0,1-.18.87c0,.15-.07.29-.12.44l-.14.43c0,.14-.1.29-.15.42l-.16.39-.33.77c-.9,2-1.9,4-2.91,5.95s-2,3.88-2.91,5.83c-.46,1-.89,2-1.28,3a23.9,23.9,0,0,0-1,3,10.94,10.94,0,0,0-.35,3.1,4.83,4.83,0,0,0,1,2.81h0a.33.33,0,0,1-.49.43,5.51,5.51,0,0,1-1.44-3.16,11.49,11.49,0,0,1,.15-3.42,31.57,31.57,0,0,1,2-6.38c1.68-4.08,3.77-8,5.44-11.92l.3-.74.14-.38.12-.35.11-.35c0-.11,0-.24.08-.36l.09-.36c0-.12,0-.24.06-.37a14.79,14.79,0,0,0,.14-3.06A30.65,30.65,0,0,0,78.62,89a128.6,128.6,0,0,0-4.16-12.28h0a.32.32,0,0,1,.19-.42A.33.33,0,0,1,75,76.4Z" transform="translate(-8.89 -13.14)"/><path class="cls-5" d="M36.33,113.89s7.87,8.39,15.2,11.13c0,0,9.38-3.28,15.21-11.13C66.74,113.89,49.5,110,36.33,113.89Z" transform="translate(-8.89 -13.14)"/><path class="cls-4" d="M51.68,114.87a28.87,28.87,0,0,1-5.36-.51,27.21,27.21,0,0,1-8-2.8.22.22,0,1,1,.22-.38,26.7,26.7,0,0,0,7.91,2.75,27.19,27.19,0,0,0,18.14-2.75.22.22,0,0,1,.3.09.21.21,0,0,1-.09.29A27.41,27.41,0,0,1,51.68,114.87Z" transform="translate(-8.89 -13.14)"/><path class="cls-8" d="M31.93,25.74s15.53-20.59,44.76-5C102.59,34.46,88,61.46,92.37,69.26c8.6,15.44,11.14,18.08,9.63,30a34.48,34.48,0,0,1-16.26,24.53c-2,1.19-4.1,1.88-8.19,3.26-11.8,4-20.33,6.83-29.27,4.44-2.62-.7-12.2-3.71-15.4-4.34-5.31-1-5-.52-7-1.16-9-2.83-17.82-13.51-16.95-23.87,1.37-16.25,8.27-16.29,6.91-23.89-2.5-13.93-3.61-27.6-1.29-35.53C16,37.69,20.15,31.37,31.93,25.74Z" transform="translate(-8.89 -13.14)"/><g class="cls-11"><path class="cls-12" d="M36.9,60.19a.51.51,0,0,1-.51.51.51.51,0,0,1,0-1A.51.51,0,0,1,36.9,60.19Z" transform="translate(-8.89 -13.14)"/><path class="cls-12" d="M39.19,60.19a.51.51,0,0,1-.51.51.51.51,0,0,1,0-1A.51.51,0,0,1,39.19,60.19Z" transform="translate(-8.89 -13.14)"/><path class="cls-12" d="M41.49,60.19a.51.51,0,1,1-.51-.51A.51.51,0,0,1,41.49,60.19Z" transform="translate(-8.89 -13.14)"/><path class="cls-12" d="M43.79,60.19a.51.51,0,1,1-.51-.51A.51.51,0,0,1,43.79,60.19Z" transform="translate(-8.89 -13.14)"/><path class="cls-12" d="M46.09,60.19a.51.51,0,1,1-.51-.51A.51.51,0,0,1,46.09,60.19Z" transform="translate(-8.89 -13.14)"/><path class="cls-12" d="M48.39,60.19a.51.51,0,0,1-.51.51.51.51,0,1,1,0-1A.51.51,0,0,1,48.39,60.19Z" transform="translate(-8.89 -13.14)"/><path class="cls-12" d="M50.69,60.19a.52.52,0,1,1-.52-.51A.51.51,0,0,1,50.69,60.19Z" transform="translate(-8.89 -13.14)"/><path class="cls-12" d="M53,60.19a.51.51,0,1,1-.51-.51A.51.51,0,0,1,53,60.19Z" transform="translate(-8.89 -13.14)"/><path class="cls-12" d="M55.28,60.19a.51.51,0,1,1-.51-.51A.51.51,0,0,1,55.28,60.19Z" transform="translate(-8.89 -13.14)"/><path class="cls-12" d="M57.58,60.19a.51.51,0,1,1-.51-.51A.51.51,0,0,1,57.58,60.19Z" transform="translate(-8.89 -13.14)"/><path class="cls-12" d="M59.88,60.19a.51.51,0,1,1-.51-.51A.51.51,0,0,1,59.88,60.19Z" transform="translate(-8.89 -13.14)"/><path class="cls-12" d="M62.18,60.19a.51.51,0,0,1-.51.51.51.51,0,1,1,0-1A.51.51,0,0,1,62.18,60.19Z" transform="translate(-8.89 -13.14)"/><path class="cls-12" d="M64.47,60.19a.51.51,0,0,1-.51.51.51.51,0,0,1,0-1A.51.51,0,0,1,64.47,60.19Z" transform="translate(-8.89 -13.14)"/><path class="cls-12" d="M66.77,60.19a.51.51,0,1,1-.51-.51A.51.51,0,0,1,66.77,60.19Z" transform="translate(-8.89 -13.14)"/><path class="cls-12" d="M69.07,60.19a.51.51,0,1,1-.51-.51A.51.51,0,0,1,69.07,60.19Z" transform="translate(-8.89 -13.14)"/><path class="cls-12" d="M71.37,60.19a.51.51,0,1,1-.51-.51A.51.51,0,0,1,71.37,60.19Z" transform="translate(-8.89 -13.14)"/><path class="cls-12" d="M35.75,62a.51.51,0,1,1-.51-.51A.51.51,0,0,1,35.75,62Z" transform="translate(-8.89 -13.14)"/><path class="cls-12" d="M38.05,62a.52.52,0,1,1-.51-.51A.51.51,0,0,1,38.05,62Z" transform="translate(-8.89 -13.14)"/><path class="cls-12" d="M40.34,62a.51.51,0,0,1-.51.51.51.51,0,0,1,0-1A.51.51,0,0,1,40.34,62Z" transform="translate(-8.89 -13.14)"/><path class="cls-12" d="M42.64,62a.51.51,0,1,1-.51-.51A.51.51,0,0,1,42.64,62Z" transform="translate(-8.89 -13.14)"/><path class="cls-12" d="M44.94,62a.51.51,0,1,1-.51-.51A.51.51,0,0,1,44.94,62Z" transform="translate(-8.89 -13.14)"/><path class="cls-12" d="M47.24,62a.51.51,0,1,1-.51-.51A.51.51,0,0,1,47.24,62Z" transform="translate(-8.89 -13.14)"/><path class="cls-12" d="M49.54,62a.51.51,0,0,1-.51.51.51.51,0,0,1,0-1A.51.51,0,0,1,49.54,62Z" transform="translate(-8.89 -13.14)"/><path class="cls-12" d="M51.83,62a.51.51,0,0,1-.51.51.51.51,0,0,1,0-1A.51.51,0,0,1,51.83,62Z" transform="translate(-8.89 -13.14)"/><path class="cls-12" d="M54.13,62a.51.51,0,1,1-.51-.51A.51.51,0,0,1,54.13,62Z" transform="translate(-8.89 -13.14)"/><path class="cls-12" d="M56.43,62a.51.51,0,1,1-.51-.51A.51.51,0,0,1,56.43,62Z" transform="translate(-8.89 -13.14)"/><path class="cls-12" d="M58.73,62a.51.51,0,1,1-.51-.51A.51.51,0,0,1,58.73,62Z" transform="translate(-8.89 -13.14)"/><path class="cls-12" d="M61,62a.51.51,0,0,1-.51.51.51.51,0,1,1,0-1A.51.51,0,0,1,61,62Z" transform="translate(-8.89 -13.14)"/><path class="cls-12" d="M63.32,62a.51.51,0,0,1-.51.51.51.51,0,1,1,0-1A.51.51,0,0,1,63.32,62Z" transform="translate(-8.89 -13.14)"/><path class="cls-12" d="M65.62,62a.51.51,0,1,1-.51-.51A.51.51,0,0,1,65.62,62Z" transform="translate(-8.89 -13.14)"/><path class="cls-12" d="M67.92,62a.51.51,0,1,1-.51-.51A.51.51,0,0,1,67.92,62Z" transform="translate(-8.89 -13.14)"/><path class="cls-12" d="M70.22,62a.51.51,0,1,1-.51-.51A.51.51,0,0,1,70.22,62Z" transform="translate(-8.89 -13.14)"/><path class="cls-12" d="M72.52,62a.51.51,0,1,1-.51-.51A.51.51,0,0,1,72.52,62Z" transform="translate(-8.89 -13.14)"/><path class="cls-12" d="M36.9,60.19a.51.51,0,0,1-.51.51.51.51,0,0,1,0-1A.51.51,0,0,1,36.9,60.19Z" transform="translate(-8.89 -13.14)"/><path class="cls-12" d="M39.19,60.19a.51.51,0,0,1-.51.51.51.51,0,0,1,0-1A.51.51,0,0,1,39.19,60.19Z" transform="translate(-8.89 -13.14)"/><path class="cls-12" d="M41.49,60.19a.51.51,0,1,1-.51-.51A.51.51,0,0,1,41.49,60.19Z" transform="translate(-8.89 -13.14)"/><path class="cls-12" d="M43.79,60.19a.51.51,0,1,1-.51-.51A.51.51,0,0,1,43.79,60.19Z" transform="translate(-8.89 -13.14)"/><path class="cls-12" d="M46.09,60.19a.51.51,0,1,1-.51-.51A.51.51,0,0,1,46.09,60.19Z" transform="translate(-8.89 -13.14)"/><path class="cls-12" d="M48.39,60.19a.51.51,0,0,1-.51.51.51.51,0,1,1,0-1A.51.51,0,0,1,48.39,60.19Z" transform="translate(-8.89 -13.14)"/><path class="cls-12" d="M50.69,60.19a.52.52,0,1,1-.52-.51A.51.51,0,0,1,50.69,60.19Z" transform="translate(-8.89 -13.14)"/><path class="cls-12" d="M53,60.19a.51.51,0,1,1-.51-.51A.51.51,0,0,1,53,60.19Z" transform="translate(-8.89 -13.14)"/><path class="cls-12" d="M55.28,60.19a.51.51,0,1,1-.51-.51A.51.51,0,0,1,55.28,60.19Z" transform="translate(-8.89 -13.14)"/><path class="cls-12" d="M57.58,60.19a.51.51,0,1,1-.51-.51A.51.51,0,0,1,57.58,60.19Z" transform="translate(-8.89 -13.14)"/><path class="cls-12" d="M59.88,60.19a.51.51,0,1,1-.51-.51A.51.51,0,0,1,59.88,60.19Z" transform="translate(-8.89 -13.14)"/><path class="cls-12" d="M62.18,60.19a.51.51,0,0,1-.51.51.51.51,0,1,1,0-1A.51.51,0,0,1,62.18,60.19Z" transform="translate(-8.89 -13.14)"/><path class="cls-12" d="M64.47,60.19a.51.51,0,0,1-.51.51.51.51,0,0,1,0-1A.51.51,0,0,1,64.47,60.19Z" transform="translate(-8.89 -13.14)"/><path class="cls-12" d="M66.77,60.19a.51.51,0,1,1-.51-.51A.51.51,0,0,1,66.77,60.19Z" transform="translate(-8.89 -13.14)"/><path class="cls-12" d="M69.07,60.19a.51.51,0,1,1-.51-.51A.51.51,0,0,1,69.07,60.19Z" transform="translate(-8.89 -13.14)"/><path class="cls-12" d="M71.37,60.19a.51.51,0,1,1-.51-.51A.51.51,0,0,1,71.37,60.19Z" transform="translate(-8.89 -13.14)"/><path class="cls-12" d="M35.75,62a.51.51,0,1,1-.51-.51A.51.51,0,0,1,35.75,62Z" transform="translate(-8.89 -13.14)"/><path class="cls-12" d="M38.05,62a.52.52,0,1,1-.51-.51A.51.51,0,0,1,38.05,62Z" transform="translate(-8.89 -13.14)"/><path class="cls-12" d="M40.34,62a.51.51,0,0,1-.51.51.51.51,0,0,1,0-1A.51.51,0,0,1,40.34,62Z" transform="translate(-8.89 -13.14)"/><path class="cls-12" d="M42.64,62a.51.51,0,1,1-.51-.51A.51.51,0,0,1,42.64,62Z" transform="translate(-8.89 -13.14)"/><path class="cls-12" d="M44.94,62a.51.51,0,1,1-.51-.51A.51.51,0,0,1,44.94,62Z" transform="translate(-8.89 -13.14)"/><path class="cls-12" d="M47.24,62a.51.51,0,1,1-.51-.51A.51.51,0,0,1,47.24,62Z" transform="translate(-8.89 -13.14)"/><path class="cls-12" d="M49.54,62a.51.51,0,0,1-.51.51.51.51,0,0,1,0-1A.51.51,0,0,1,49.54,62Z" transform="translate(-8.89 -13.14)"/><path class="cls-12" d="M51.83,62a.51.51,0,0,1-.51.51.51.51,0,0,1,0-1A.51.51,0,0,1,51.83,62Z" transform="translate(-8.89 -13.14)"/><path class="cls-12" d="M54.13,62a.51.51,0,1,1-.51-.51A.51.51,0,0,1,54.13,62Z" transform="translate(-8.89 -13.14)"/><path class="cls-12" d="M56.43,62a.51.51,0,1,1-.51-.51A.51.51,0,0,1,56.43,62Z" transform="translate(-8.89 -13.14)"/><path class="cls-12" d="M58.73,62a.51.51,0,1,1-.51-.51A.51.51,0,0,1,58.73,62Z" transform="translate(-8.89 -13.14)"/><path class="cls-12" d="M61,62a.51.51,0,0,1-.51.51.51.51,0,1,1,0-1A.51.51,0,0,1,61,62Z" transform="translate(-8.89 -13.14)"/><path class="cls-12" d="M63.32,62a.51.51,0,0,1-.51.51.51.51,0,1,1,0-1A.51.51,0,0,1,63.32,62Z" transform="translate(-8.89 -13.14)"/><path class="cls-12" d="M65.62,62a.51.51,0,1,1-.51-.51A.51.51,0,0,1,65.62,62Z" transform="translate(-8.89 -13.14)"/><path class="cls-12" d="M67.92,62a.51.51,0,1,1-.51-.51A.51.51,0,0,1,67.92,62Z" transform="translate(-8.89 -13.14)"/><path class="cls-12" d="M70.22,62a.51.51,0,1,1-.51-.51A.51.51,0,0,1,70.22,62Z" transform="translate(-8.89 -13.14)"/><path class="cls-12" d="M72.52,62a.51.51,0,1,1-.51-.51A.51.51,0,0,1,72.52,62Z" transform="translate(-8.89 -13.14)"/><path class="cls-12" d="M36.9,63.71a.51.51,0,0,1-.51.51.51.51,0,0,1,0-1A.51.51,0,0,1,36.9,63.71Z" transform="translate(-8.89 -13.14)"/><path class="cls-12" d="M39.19,63.71a.51.51,0,0,1-.51.51.51.51,0,0,1,0-1A.51.51,0,0,1,39.19,63.71Z" transform="translate(-8.89 -13.14)"/><path class="cls-12" d="M41.49,63.71A.51.51,0,1,1,41,63.2.51.51,0,0,1,41.49,63.71Z" transform="translate(-8.89 -13.14)"/><path class="cls-12" d="M43.79,63.71a.51.51,0,1,1-.51-.51A.51.51,0,0,1,43.79,63.71Z" transform="translate(-8.89 -13.14)"/><path class="cls-12" d="M46.09,63.71a.51.51,0,1,1-.51-.51A.51.51,0,0,1,46.09,63.71Z" transform="translate(-8.89 -13.14)"/><path class="cls-12" d="M48.39,63.71a.51.51,0,0,1-.51.51.51.51,0,1,1,0-1A.51.51,0,0,1,48.39,63.71Z" transform="translate(-8.89 -13.14)"/><path class="cls-12" d="M50.69,63.71a.52.52,0,1,1-.52-.51A.51.51,0,0,1,50.69,63.71Z" transform="translate(-8.89 -13.14)"/><path class="cls-12" d="M53,63.71a.51.51,0,1,1-.51-.51A.51.51,0,0,1,53,63.71Z" transform="translate(-8.89 -13.14)"/><path class="cls-12" d="M55.28,63.71a.51.51,0,1,1-.51-.51A.51.51,0,0,1,55.28,63.71Z" transform="translate(-8.89 -13.14)"/><path class="cls-12" d="M57.58,63.71a.51.51,0,1,1-.51-.51A.51.51,0,0,1,57.58,63.71Z" transform="translate(-8.89 -13.14)"/><path class="cls-12" d="M59.88,63.71a.51.51,0,1,1-.51-.51A.51.51,0,0,1,59.88,63.71Z" transform="translate(-8.89 -13.14)"/><path class="cls-12" d="M62.18,63.71a.51.51,0,0,1-.51.51.51.51,0,1,1,0-1A.51.51,0,0,1,62.18,63.71Z" transform="translate(-8.89 -13.14)"/><path class="cls-12" d="M64.47,63.71a.51.51,0,0,1-.51.51.51.51,0,0,1,0-1A.51.51,0,0,1,64.47,63.71Z" transform="translate(-8.89 -13.14)"/><path class="cls-12" d="M66.77,63.71a.51.51,0,1,1-.51-.51A.51.51,0,0,1,66.77,63.71Z" transform="translate(-8.89 -13.14)"/><path class="cls-12" d="M69.07,63.71a.51.51,0,1,1-.51-.51A.51.51,0,0,1,69.07,63.71Z" transform="translate(-8.89 -13.14)"/><path class="cls-12" d="M71.37,63.71a.51.51,0,1,1-.51-.51A.51.51,0,0,1,71.37,63.71Z" transform="translate(-8.89 -13.14)"/><circle class="cls-12" cx="26.34" cy="52.32" r="0.51"/><path class="cls-12" d="M38.05,65.47a.52.52,0,1,1-.51-.51A.51.51,0,0,1,38.05,65.47Z" transform="translate(-8.89 -13.14)"/><path class="cls-12" d="M40.34,65.47a.51.51,0,0,1-.51.51.51.51,0,0,1,0-1A.51.51,0,0,1,40.34,65.47Z" transform="translate(-8.89 -13.14)"/><circle class="cls-12" cx="33.24" cy="52.32" r="0.51"/><circle class="cls-12" cx="35.54" cy="52.32" r="0.51"/><circle class="cls-12" cx="37.83" cy="52.32" r="0.51"/><path class="cls-12" d="M49.54,65.47A.51.51,0,0,1,49,66a.51.51,0,0,1,0-1A.51.51,0,0,1,49.54,65.47Z" transform="translate(-8.89 -13.14)"/><path class="cls-12" d="M51.83,65.47a.51.51,0,0,1-.51.51.51.51,0,0,1,0-1A.51.51,0,0,1,51.83,65.47Z" transform="translate(-8.89 -13.14)"/><circle class="cls-12" cx="44.73" cy="52.32" r="0.51"/><circle class="cls-12" cx="47.03" cy="52.32" r="0.51"/><circle class="cls-12" cx="49.32" cy="52.32" r="0.51"/><path class="cls-12" d="M61,65.47a.51.51,0,0,1-.51.51.51.51,0,1,1,0-1A.51.51,0,0,1,61,65.47Z" transform="translate(-8.89 -13.14)"/><path class="cls-12" d="M63.32,65.47a.51.51,0,0,1-.51.51.51.51,0,0,1,0-1A.51.51,0,0,1,63.32,65.47Z" transform="translate(-8.89 -13.14)"/><circle class="cls-12" cx="56.22" cy="52.32" r="0.51"/><circle class="cls-12" cx="58.52" cy="52.32" r="0.51"/><circle class="cls-12" cx="60.82" cy="52.32" r="0.51"/><path class="cls-12" d="M72.52,65.47A.51.51,0,1,1,72,65,.51.51,0,0,1,72.52,65.47Z" transform="translate(-8.89 -13.14)"/><path class="cls-12" d="M36.9,63.71a.51.51,0,0,1-.51.51.51.51,0,0,1,0-1A.51.51,0,0,1,36.9,63.71Z" transform="translate(-8.89 -13.14)"/><path class="cls-12" d="M39.19,63.71a.51.51,0,0,1-.51.51.51.51,0,0,1,0-1A.51.51,0,0,1,39.19,63.71Z" transform="translate(-8.89 -13.14)"/><path class="cls-12" d="M41.49,63.71A.51.51,0,1,1,41,63.2.51.51,0,0,1,41.49,63.71Z" transform="translate(-8.89 -13.14)"/><path class="cls-12" d="M43.79,63.71a.51.51,0,1,1-.51-.51A.51.51,0,0,1,43.79,63.71Z" transform="translate(-8.89 -13.14)"/><path class="cls-12" d="M46.09,63.71a.51.51,0,1,1-.51-.51A.51.51,0,0,1,46.09,63.71Z" transform="translate(-8.89 -13.14)"/><path class="cls-12" d="M48.39,63.71a.51.51,0,0,1-.51.51.51.51,0,1,1,0-1A.51.51,0,0,1,48.39,63.71Z" transform="translate(-8.89 -13.14)"/><path class="cls-12" d="M50.69,63.71a.52.52,0,1,1-.52-.51A.51.51,0,0,1,50.69,63.71Z" transform="translate(-8.89 -13.14)"/><path class="cls-12" d="M53,63.71a.51.51,0,1,1-.51-.51A.51.51,0,0,1,53,63.71Z" transform="translate(-8.89 -13.14)"/><path class="cls-12" d="M55.28,63.71a.51.51,0,1,1-.51-.51A.51.51,0,0,1,55.28,63.71Z" transform="translate(-8.89 -13.14)"/><path class="cls-12" d="M57.58,63.71a.51.51,0,1,1-.51-.51A.51.51,0,0,1,57.58,63.71Z" transform="translate(-8.89 -13.14)"/><path class="cls-12" d="M59.88,63.71a.51.51,0,1,1-.51-.51A.51.51,0,0,1,59.88,63.71Z" transform="translate(-8.89 -13.14)"/><path class="cls-12" d="M62.18,63.71a.51.51,0,0,1-.51.51.51.51,0,1,1,0-1A.51.51,0,0,1,62.18,63.71Z" transform="translate(-8.89 -13.14)"/><path class="cls-12" d="M64.47,63.71a.51.51,0,0,1-.51.51.51.51,0,0,1,0-1A.51.51,0,0,1,64.47,63.71Z" transform="translate(-8.89 -13.14)"/><path class="cls-12" d="M66.77,63.71a.51.51,0,1,1-.51-.51A.51.51,0,0,1,66.77,63.71Z" transform="translate(-8.89 -13.14)"/><path class="cls-12" d="M69.07,63.71a.51.51,0,1,1-.51-.51A.51.51,0,0,1,69.07,63.71Z" transform="translate(-8.89 -13.14)"/><path class="cls-12" d="M71.37,63.71a.51.51,0,1,1-.51-.51A.51.51,0,0,1,71.37,63.71Z" transform="translate(-8.89 -13.14)"/><circle class="cls-12" cx="26.34" cy="52.32" r="0.51"/><path class="cls-12" d="M38.05,65.47a.52.52,0,1,1-.51-.51A.51.51,0,0,1,38.05,65.47Z" transform="translate(-8.89 -13.14)"/><path class="cls-12" d="M40.34,65.47a.51.51,0,0,1-.51.51.51.51,0,0,1,0-1A.51.51,0,0,1,40.34,65.47Z" transform="translate(-8.89 -13.14)"/><circle class="cls-12" cx="33.24" cy="52.32" r="0.51"/><circle class="cls-12" cx="35.54" cy="52.32" r="0.51"/><circle class="cls-12" cx="37.83" cy="52.32" r="0.51"/><path class="cls-12" d="M49.54,65.47A.51.51,0,0,1,49,66a.51.51,0,0,1,0-1A.51.51,0,0,1,49.54,65.47Z" transform="translate(-8.89 -13.14)"/><path class="cls-12" d="M51.83,65.47a.51.51,0,0,1-.51.51.51.51,0,0,1,0-1A.51.51,0,0,1,51.83,65.47Z" transform="translate(-8.89 -13.14)"/><circle class="cls-12" cx="44.73" cy="52.32" r="0.51"/><circle class="cls-12" cx="47.03" cy="52.32" r="0.51"/><circle class="cls-12" cx="49.32" cy="52.32" r="0.51"/><path class="cls-12" d="M61,65.47a.51.51,0,0,1-.51.51.51.51,0,1,1,0-1A.51.51,0,0,1,61,65.47Z" transform="translate(-8.89 -13.14)"/><path class="cls-12" d="M63.32,65.47a.51.51,0,0,1-.51.51.51.51,0,0,1,0-1A.51.51,0,0,1,63.32,65.47Z" transform="translate(-8.89 -13.14)"/><circle class="cls-12" cx="56.22" cy="52.32" r="0.51"/><circle class="cls-12" cx="58.52" cy="52.32" r="0.51"/><circle class="cls-12" cx="60.82" cy="52.32" r="0.51"/><path class="cls-12" d="M72.52,65.47A.51.51,0,1,1,72,65,.51.51,0,0,1,72.52,65.47Z" transform="translate(-8.89 -13.14)"/><circle class="cls-12" cx="27.49" cy="54.08" r="0.51"/><path class="cls-12" d="M39.19,67.23a.51.51,0,0,1-.51.51.51.51,0,0,1,0-1A.51.51,0,0,1,39.19,67.23Z" transform="translate(-8.89 -13.14)"/><path class="cls-12" d="M41.49,67.23a.51.51,0,1,1-.51-.51A.51.51,0,0,1,41.49,67.23Z" transform="translate(-8.89 -13.14)"/><circle class="cls-12" cx="34.39" cy="54.08" r="0.51"/><circle class="cls-12" cx="36.68" cy="54.08" r="0.51"/><path class="cls-12" d="M48.39,67.23a.51.51,0,0,1-.51.51.51.51,0,1,1,0-1A.51.51,0,0,1,48.39,67.23Z" transform="translate(-8.89 -13.14)"/><path class="cls-12" d="M50.69,67.23a.52.52,0,1,1-.52-.51A.51.51,0,0,1,50.69,67.23Z" transform="translate(-8.89 -13.14)"/><circle class="cls-12" cx="43.58" cy="54.08" r="0.51"/><circle class="cls-12" cx="45.88" cy="54.08" r="0.51"/><circle class="cls-12" cx="48.18" cy="54.08" r="0.51"/><path class="cls-12" d="M59.88,67.23a.51.51,0,1,1-.51-.51A.51.51,0,0,1,59.88,67.23Z" transform="translate(-8.89 -13.14)"/><path class="cls-12" d="M62.18,67.23a.51.51,0,0,1-.51.51.51.51,0,1,1,0-1A.51.51,0,0,1,62.18,67.23Z" transform="translate(-8.89 -13.14)"/><circle class="cls-12" cx="55.07" cy="54.08" r="0.51"/><circle class="cls-12" cx="57.37" cy="54.08" r="0.51"/><circle class="cls-12" cx="59.67" cy="54.08" r="0.51"/><path class="cls-12" d="M71.37,67.23a.51.51,0,1,1-.51-.51A.51.51,0,0,1,71.37,67.23Z" transform="translate(-8.89 -13.14)"/><circle class="cls-12" cx="26.34" cy="55.84" r="0.51"/><path class="cls-12" d="M38.05,69a.52.52,0,1,1-.51-.51A.51.51,0,0,1,38.05,69Z" transform="translate(-8.89 -13.14)"/><path class="cls-12" d="M40.34,69a.51.51,0,0,1-.51.51.51.51,0,0,1,0-1A.51.51,0,0,1,40.34,69Z" transform="translate(-8.89 -13.14)"/><circle class="cls-12" cx="33.24" cy="55.84" r="0.51"/><circle class="cls-12" cx="35.54" cy="55.84" r="0.51"/><circle class="cls-12" cx="37.83" cy="55.84" r="0.51"/><path class="cls-12" d="M49.54,69a.51.51,0,0,1-.51.51.51.51,0,0,1,0-1A.51.51,0,0,1,49.54,69Z" transform="translate(-8.89 -13.14)"/><path class="cls-12" d="M51.83,69a.51.51,0,0,1-.51.51.51.51,0,0,1,0-1A.51.51,0,0,1,51.83,69Z" transform="translate(-8.89 -13.14)"/><circle class="cls-12" cx="44.73" cy="55.84" r="0.51"/><circle class="cls-12" cx="47.03" cy="55.84" r="0.51"/><circle class="cls-12" cx="49.32" cy="55.84" r="0.51"/><path class="cls-12" d="M61,69a.51.51,0,0,1-.51.51.51.51,0,1,1,0-1A.51.51,0,0,1,61,69Z" transform="translate(-8.89 -13.14)"/><path class="cls-12" d="M63.32,69a.51.51,0,0,1-.51.51.51.51,0,0,1,0-1A.51.51,0,0,1,63.32,69Z" transform="translate(-8.89 -13.14)"/><circle class="cls-12" cx="56.22" cy="55.84" r="0.51"/><circle class="cls-12" cx="58.52" cy="55.84" r="0.51"/><circle class="cls-12" cx="60.82" cy="55.84" r="0.51"/><path class="cls-12" d="M72.52,69a.51.51,0,1,1-.51-.51A.51.51,0,0,1,72.52,69Z" transform="translate(-8.89 -13.14)"/><path class="cls-12" d="M36.9,70.84a.51.51,0,0,1-.51.51.51.51,0,0,1,0-1A.51.51,0,0,1,36.9,70.84Z" transform="translate(-8.89 -13.14)"/><path class="cls-12" d="M39.19,70.84a.51.51,0,0,1-.51.51.51.51,0,1,1,0-1A.51.51,0,0,1,39.19,70.84Z" transform="translate(-8.89 -13.14)"/><path class="cls-12" d="M41.49,70.84a.51.51,0,1,1-.51-.51A.51.51,0,0,1,41.49,70.84Z" transform="translate(-8.89 -13.14)"/><path class="cls-12" d="M43.79,70.84a.51.51,0,1,1-.51-.51A.51.51,0,0,1,43.79,70.84Z" transform="translate(-8.89 -13.14)"/><path class="cls-12" d="M46.09,70.84a.51.51,0,1,1-.51-.51A.51.51,0,0,1,46.09,70.84Z" transform="translate(-8.89 -13.14)"/><path class="cls-12" d="M48.39,70.84a.51.51,0,0,1-.51.51.51.51,0,1,1,0-1A.51.51,0,0,1,48.39,70.84Z" transform="translate(-8.89 -13.14)"/><path class="cls-12" d="M50.69,70.84a.52.52,0,1,1-.52-.51A.51.51,0,0,1,50.69,70.84Z" transform="translate(-8.89 -13.14)"/><path class="cls-12" d="M53,70.84a.51.51,0,1,1-.51-.51A.51.51,0,0,1,53,70.84Z" transform="translate(-8.89 -13.14)"/><path class="cls-12" d="M55.28,70.84a.51.51,0,1,1-.51-.51A.51.51,0,0,1,55.28,70.84Z" transform="translate(-8.89 -13.14)"/><path class="cls-12" d="M57.58,70.84a.51.51,0,1,1-.51-.51A.51.51,0,0,1,57.58,70.84Z" transform="translate(-8.89 -13.14)"/><path class="cls-12" d="M59.88,70.84a.51.51,0,1,1-.51-.51A.51.51,0,0,1,59.88,70.84Z" transform="translate(-8.89 -13.14)"/><path class="cls-12" d="M62.18,70.84a.51.51,0,0,1-.51.51.51.51,0,1,1,0-1A.51.51,0,0,1,62.18,70.84Z" transform="translate(-8.89 -13.14)"/><path class="cls-12" d="M64.47,70.84a.51.51,0,0,1-.51.51.51.51,0,0,1,0-1A.51.51,0,0,1,64.47,70.84Z" transform="translate(-8.89 -13.14)"/><path class="cls-12" d="M66.77,70.84a.51.51,0,1,1-.51-.51A.51.51,0,0,1,66.77,70.84Z" transform="translate(-8.89 -13.14)"/><path class="cls-12" d="M69.07,70.84a.51.51,0,1,1-.51-.51A.51.51,0,0,1,69.07,70.84Z" transform="translate(-8.89 -13.14)"/><path class="cls-12" d="M71.37,70.84a.51.51,0,1,1-.51-.51A.51.51,0,0,1,71.37,70.84Z" transform="translate(-8.89 -13.14)"/><circle class="cls-12" cx="26.34" cy="59.46" r="0.51"/><path class="cls-12" d="M38.05,72.6a.52.52,0,1,1-.51-.51A.51.51,0,0,1,38.05,72.6Z" transform="translate(-8.89 -13.14)"/><path class="cls-12" d="M40.34,72.6a.51.51,0,0,1-.51.51.51.51,0,0,1,0-1A.51.51,0,0,1,40.34,72.6Z" transform="translate(-8.89 -13.14)"/><circle class="cls-12" cx="33.24" cy="59.46" r="0.51"/><circle class="cls-12" cx="35.54" cy="59.46" r="0.51"/><circle class="cls-12" cx="37.83" cy="59.46" r="0.51"/><path class="cls-12" d="M49.54,72.6a.51.51,0,0,1-.51.51.51.51,0,0,1,0-1A.51.51,0,0,1,49.54,72.6Z" transform="translate(-8.89 -13.14)"/><path class="cls-12" d="M51.83,72.6a.51.51,0,0,1-.51.51.51.51,0,1,1,0-1A.51.51,0,0,1,51.83,72.6Z" transform="translate(-8.89 -13.14)"/><circle class="cls-12" cx="44.73" cy="59.46" r="0.51"/><circle class="cls-12" cx="47.03" cy="59.46" r="0.51"/><circle class="cls-12" cx="49.32" cy="59.46" r="0.51"/><path class="cls-12" d="M61,72.6a.51.51,0,0,1-.51.51.51.51,0,1,1,0-1A.51.51,0,0,1,61,72.6Z" transform="translate(-8.89 -13.14)"/><path class="cls-12" d="M63.32,72.6a.51.51,0,0,1-.51.51.51.51,0,1,1,0-1A.51.51,0,0,1,63.32,72.6Z" transform="translate(-8.89 -13.14)"/><circle class="cls-12" cx="56.22" cy="59.46" r="0.51"/><circle class="cls-12" cx="58.52" cy="59.46" r="0.51"/><circle class="cls-12" cx="60.82" cy="59.46" r="0.51"/><path class="cls-12" d="M72.52,72.6a.51.51,0,1,1-.51-.51A.51.51,0,0,1,72.52,72.6Z" transform="translate(-8.89 -13.14)"/><path class="cls-12" d="M36.9,70.84a.51.51,0,0,1-.51.51.51.51,0,0,1,0-1A.51.51,0,0,1,36.9,70.84Z" transform="translate(-8.89 -13.14)"/><path class="cls-12" d="M39.19,70.84a.51.51,0,0,1-.51.51.51.51,0,1,1,0-1A.51.51,0,0,1,39.19,70.84Z" transform="translate(-8.89 -13.14)"/><path class="cls-12" d="M41.49,70.84a.51.51,0,1,1-.51-.51A.51.51,0,0,1,41.49,70.84Z" transform="translate(-8.89 -13.14)"/><path class="cls-12" d="M43.79,70.84a.51.51,0,1,1-.51-.51A.51.51,0,0,1,43.79,70.84Z" transform="translate(-8.89 -13.14)"/><path class="cls-12" d="M46.09,70.84a.51.51,0,1,1-.51-.51A.51.51,0,0,1,46.09,70.84Z" transform="translate(-8.89 -13.14)"/><path class="cls-12" d="M48.39,70.84a.51.51,0,0,1-.51.51.51.51,0,1,1,0-1A.51.51,0,0,1,48.39,70.84Z" transform="translate(-8.89 -13.14)"/><path class="cls-12" d="M50.69,70.84a.52.52,0,1,1-.52-.51A.51.51,0,0,1,50.69,70.84Z" transform="translate(-8.89 -13.14)"/><path class="cls-12" d="M53,70.84a.51.51,0,1,1-.51-.51A.51.51,0,0,1,53,70.84Z" transform="translate(-8.89 -13.14)"/><path class="cls-12" d="M55.28,70.84a.51.51,0,1,1-.51-.51A.51.51,0,0,1,55.28,70.84Z" transform="translate(-8.89 -13.14)"/><path class="cls-12" d="M57.58,70.84a.51.51,0,1,1-.51-.51A.51.51,0,0,1,57.58,70.84Z" transform="translate(-8.89 -13.14)"/><path class="cls-12" d="M59.88,70.84a.51.51,0,1,1-.51-.51A.51.51,0,0,1,59.88,70.84Z" transform="translate(-8.89 -13.14)"/><path class="cls-12" d="M62.18,70.84a.51.51,0,0,1-.51.51.51.51,0,1,1,0-1A.51.51,0,0,1,62.18,70.84Z" transform="translate(-8.89 -13.14)"/><path class="cls-12" d="M64.47,70.84a.51.51,0,0,1-.51.51.51.51,0,0,1,0-1A.51.51,0,0,1,64.47,70.84Z" transform="translate(-8.89 -13.14)"/><path class="cls-12" d="M66.77,70.84a.51.51,0,1,1-.51-.51A.51.51,0,0,1,66.77,70.84Z" transform="translate(-8.89 -13.14)"/><path class="cls-12" d="M69.07,70.84a.51.51,0,1,1-.51-.51A.51.51,0,0,1,69.07,70.84Z" transform="translate(-8.89 -13.14)"/><path class="cls-12" d="M71.37,70.84a.51.51,0,1,1-.51-.51A.51.51,0,0,1,71.37,70.84Z" transform="translate(-8.89 -13.14)"/><circle class="cls-12" cx="26.34" cy="59.46" r="0.51"/><path class="cls-12" d="M38.05,72.6a.52.52,0,1,1-.51-.51A.51.51,0,0,1,38.05,72.6Z" transform="translate(-8.89 -13.14)"/><path class="cls-12" d="M40.34,72.6a.51.51,0,0,1-.51.51.51.51,0,0,1,0-1A.51.51,0,0,1,40.34,72.6Z" transform="translate(-8.89 -13.14)"/><circle class="cls-12" cx="33.24" cy="59.46" r="0.51"/><circle class="cls-12" cx="35.54" cy="59.46" r="0.51"/><circle class="cls-12" cx="37.83" cy="59.46" r="0.51"/><path class="cls-12" d="M49.54,72.6a.51.51,0,0,1-.51.51.51.51,0,0,1,0-1A.51.51,0,0,1,49.54,72.6Z" transform="translate(-8.89 -13.14)"/><path class="cls-12" d="M51.83,72.6a.51.51,0,0,1-.51.51.51.51,0,1,1,0-1A.51.51,0,0,1,51.83,72.6Z" transform="translate(-8.89 -13.14)"/><circle class="cls-12" cx="44.73" cy="59.46" r="0.51"/><circle class="cls-12" cx="47.03" cy="59.46" r="0.51"/><circle class="cls-12" cx="49.32" cy="59.46" r="0.51"/><path class="cls-12" d="M61,72.6a.51.51,0,0,1-.51.51.51.51,0,1,1,0-1A.51.51,0,0,1,61,72.6Z" transform="translate(-8.89 -13.14)"/><path class="cls-12" d="M63.32,72.6a.51.51,0,0,1-.51.51.51.51,0,1,1,0-1A.51.51,0,0,1,63.32,72.6Z" transform="translate(-8.89 -13.14)"/><circle class="cls-12" cx="56.22" cy="59.46" r="0.51"/><circle class="cls-12" cx="58.52" cy="59.46" r="0.51"/><circle class="cls-12" cx="60.82" cy="59.46" r="0.51"/><path class="cls-12" d="M72.52,72.6a.51.51,0,1,1-.51-.51A.51.51,0,0,1,72.52,72.6Z" transform="translate(-8.89 -13.14)"/><circle class="cls-12" cx="27.49" cy="61.22" r="0.51"/><path class="cls-12" d="M39.19,74.36a.51.51,0,0,1-.51.51.51.51,0,0,1,0-1A.51.51,0,0,1,39.19,74.36Z" transform="translate(-8.89 -13.14)"/><path class="cls-12" d="M41.49,74.36a.51.51,0,1,1-.51-.51A.51.51,0,0,1,41.49,74.36Z" transform="translate(-8.89 -13.14)"/><circle class="cls-12" cx="34.39" cy="61.22" r="0.51"/><circle class="cls-12" cx="36.68" cy="61.22" r="0.51"/><path class="cls-12" d="M48.39,74.36a.51.51,0,0,1-.51.51.51.51,0,0,1,0-1A.51.51,0,0,1,48.39,74.36Z" transform="translate(-8.89 -13.14)"/><path class="cls-12" d="M50.69,74.36a.52.52,0,1,1-.52-.51A.51.51,0,0,1,50.69,74.36Z" transform="translate(-8.89 -13.14)"/><circle class="cls-12" cx="43.58" cy="61.22" r="0.51"/><circle class="cls-12" cx="45.88" cy="61.22" r="0.51"/><circle class="cls-12" cx="48.18" cy="61.22" r="0.51"/><path class="cls-12" d="M59.88,74.36a.51.51,0,1,1-.51-.51A.51.51,0,0,1,59.88,74.36Z" transform="translate(-8.89 -13.14)"/><path class="cls-12" d="M62.18,74.36a.51.51,0,0,1-.51.51.51.51,0,0,1,0-1A.51.51,0,0,1,62.18,74.36Z" transform="translate(-8.89 -13.14)"/><circle class="cls-12" cx="55.07" cy="61.22" r="0.51"/><circle class="cls-12" cx="57.37" cy="61.22" r="0.51"/><circle class="cls-12" cx="59.67" cy="61.22" r="0.51"/><path class="cls-12" d="M71.37,74.36a.51.51,0,1,1-.51-.51A.51.51,0,0,1,71.37,74.36Z" transform="translate(-8.89 -13.14)"/><circle class="cls-12" cx="26.34" cy="62.98" r="0.51"/><path class="cls-12" d="M38.05,76.12a.52.52,0,1,1-.51-.51A.51.51,0,0,1,38.05,76.12Z" transform="translate(-8.89 -13.14)"/><path class="cls-12" d="M40.34,76.12a.51.51,0,0,1-.51.51.51.51,0,0,1,0-1A.51.51,0,0,1,40.34,76.12Z" transform="translate(-8.89 -13.14)"/><circle class="cls-12" cx="33.24" cy="62.98" r="0.51"/><circle class="cls-12" cx="35.54" cy="62.98" r="0.51"/><circle class="cls-12" cx="37.83" cy="62.98" r="0.51"/><path class="cls-12" d="M49.54,76.12a.51.51,0,0,1-.51.51.51.51,0,0,1,0-1A.51.51,0,0,1,49.54,76.12Z" transform="translate(-8.89 -13.14)"/><path class="cls-12" d="M51.83,76.12a.51.51,0,0,1-.51.51.51.51,0,1,1,0-1A.51.51,0,0,1,51.83,76.12Z" transform="translate(-8.89 -13.14)"/><circle class="cls-12" cx="44.73" cy="62.98" r="0.51"/><circle class="cls-12" cx="47.03" cy="62.98" r="0.51"/><circle class="cls-12" cx="49.32" cy="62.98" r="0.51"/><path class="cls-12" d="M61,76.12a.51.51,0,0,1-.51.51.51.51,0,1,1,0-1A.51.51,0,0,1,61,76.12Z" transform="translate(-8.89 -13.14)"/><path class="cls-12" d="M63.32,76.12a.51.51,0,0,1-.51.51.51.51,0,1,1,0-1A.51.51,0,0,1,63.32,76.12Z" transform="translate(-8.89 -13.14)"/><circle class="cls-12" cx="56.22" cy="62.98" r="0.51"/><circle class="cls-12" cx="58.52" cy="62.98" r="0.51"/><circle class="cls-12" cx="60.82" cy="62.98" r="0.51"/><path class="cls-12" d="M72.52,76.12a.51.51,0,1,1-.51-.51A.51.51,0,0,1,72.52,76.12Z" transform="translate(-8.89 -13.14)"/><circle class="cls-12" cx="27.49" cy="61.22" r="0.51"/><path class="cls-12" d="M39.19,74.36a.51.51,0,0,1-.51.51.51.51,0,0,1,0-1A.51.51,0,0,1,39.19,74.36Z" transform="translate(-8.89 -13.14)"/><path class="cls-12" d="M41.49,74.36a.51.51,0,1,1-.51-.51A.51.51,0,0,1,41.49,74.36Z" transform="translate(-8.89 -13.14)"/><circle class="cls-12" cx="34.39" cy="61.22" r="0.51"/><circle class="cls-12" cx="36.68" cy="61.22" r="0.51"/><path class="cls-12" d="M48.39,74.36a.51.51,0,0,1-.51.51.51.51,0,0,1,0-1A.51.51,0,0,1,48.39,74.36Z" transform="translate(-8.89 -13.14)"/><path class="cls-12" d="M50.69,74.36a.52.52,0,1,1-.52-.51A.51.51,0,0,1,50.69,74.36Z" transform="translate(-8.89 -13.14)"/><circle class="cls-12" cx="43.58" cy="61.22" r="0.51"/><circle class="cls-12" cx="45.88" cy="61.22" r="0.51"/><circle class="cls-12" cx="48.18" cy="61.22" r="0.51"/><path class="cls-12" d="M59.88,74.36a.51.51,0,1,1-.51-.51A.51.51,0,0,1,59.88,74.36Z" transform="translate(-8.89 -13.14)"/><path class="cls-12" d="M62.18,74.36a.51.51,0,0,1-.51.51.51.51,0,0,1,0-1A.51.51,0,0,1,62.18,74.36Z" transform="translate(-8.89 -13.14)"/><circle class="cls-12" cx="55.07" cy="61.22" r="0.51"/><circle class="cls-12" cx="57.37" cy="61.22" r="0.51"/><circle class="cls-12" cx="59.67" cy="61.22" r="0.51"/><path class="cls-12" d="M71.37,74.36a.51.51,0,1,1-.51-.51A.51.51,0,0,1,71.37,74.36Z" transform="translate(-8.89 -13.14)"/><circle class="cls-12" cx="26.34" cy="62.98" r="0.51"/><path class="cls-12" d="M38.05,76.12a.52.52,0,1,1-.51-.51A.51.51,0,0,1,38.05,76.12Z" transform="translate(-8.89 -13.14)"/><path class="cls-12" d="M40.34,76.12a.51.51,0,0,1-.51.51.51.51,0,0,1,0-1A.51.51,0,0,1,40.34,76.12Z" transform="translate(-8.89 -13.14)"/><circle class="cls-12" cx="33.24" cy="62.98" r="0.51"/><circle class="cls-12" cx="35.54" cy="62.98" r="0.51"/><circle class="cls-12" cx="37.83" cy="62.98" r="0.51"/><path class="cls-12" d="M49.54,76.12a.51.51,0,0,1-.51.51.51.51,0,0,1,0-1A.51.51,0,0,1,49.54,76.12Z" transform="translate(-8.89 -13.14)"/><path class="cls-12" d="M51.83,76.12a.51.51,0,0,1-.51.51.51.51,0,1,1,0-1A.51.51,0,0,1,51.83,76.12Z" transform="translate(-8.89 -13.14)"/><circle class="cls-12" cx="44.73" cy="62.98" r="0.51"/><circle class="cls-12" cx="47.03" cy="62.98" r="0.51"/><circle class="cls-12" cx="49.32" cy="62.98" r="0.51"/><path class="cls-12" d="M61,76.12a.51.51,0,0,1-.51.51.51.51,0,1,1,0-1A.51.51,0,0,1,61,76.12Z" transform="translate(-8.89 -13.14)"/><path class="cls-12" d="M63.32,76.12a.51.51,0,0,1-.51.51.51.51,0,1,1,0-1A.51.51,0,0,1,63.32,76.12Z" transform="translate(-8.89 -13.14)"/><circle class="cls-12" cx="56.22" cy="62.98" r="0.51"/><circle class="cls-12" cx="58.52" cy="62.98" r="0.51"/><circle class="cls-12" cx="60.82" cy="62.98" r="0.51"/><path class="cls-12" d="M72.52,76.12a.51.51,0,1,1-.51-.51A.51.51,0,0,1,72.52,76.12Z" transform="translate(-8.89 -13.14)"/><circle class="cls-12" cx="27.49" cy="64.73" r="0.51"/><path class="cls-12" d="M39.19,77.88a.51.51,0,0,1-.51.51.51.51,0,0,1,0-1A.51.51,0,0,1,39.19,77.88Z" transform="translate(-8.89 -13.14)"/><path class="cls-12" d="M41.49,77.88a.51.51,0,1,1-.51-.51A.51.51,0,0,1,41.49,77.88Z" transform="translate(-8.89 -13.14)"/><circle class="cls-12" cx="34.39" cy="64.73" r="0.51"/><circle class="cls-12" cx="36.68" cy="64.73" r="0.51"/><path class="cls-12" d="M48.39,77.88a.51.51,0,0,1-.51.51.51.51,0,1,1,0-1A.51.51,0,0,1,48.39,77.88Z" transform="translate(-8.89 -13.14)"/><path class="cls-12" d="M50.69,77.88a.52.52,0,1,1-.52-.51A.51.51,0,0,1,50.69,77.88Z" transform="translate(-8.89 -13.14)"/><circle class="cls-12" cx="43.58" cy="64.73" r="0.51"/><circle class="cls-12" cx="45.88" cy="64.73" r="0.51"/><circle class="cls-12" cx="48.18" cy="64.73" r="0.51"/><path class="cls-12" d="M59.88,77.88a.51.51,0,1,1-.51-.51A.51.51,0,0,1,59.88,77.88Z" transform="translate(-8.89 -13.14)"/><path class="cls-12" d="M62.18,77.88a.51.51,0,0,1-.51.51.51.51,0,1,1,0-1A.51.51,0,0,1,62.18,77.88Z" transform="translate(-8.89 -13.14)"/><circle class="cls-12" cx="55.07" cy="64.73" r="0.51"/><circle class="cls-12" cx="57.37" cy="64.73" r="0.51"/><circle class="cls-12" cx="59.67" cy="64.73" r="0.51"/><path class="cls-12" d="M71.37,77.88a.51.51,0,1,1-.51-.51A.51.51,0,0,1,71.37,77.88Z" transform="translate(-8.89 -13.14)"/><path class="cls-12" d="M35.75,79.64a.51.51,0,1,1-.51-.51A.51.51,0,0,1,35.75,79.64Z" transform="translate(-8.89 -13.14)"/><path class="cls-12" d="M38.05,79.64a.52.52,0,1,1-.51-.51A.51.51,0,0,1,38.05,79.64Z" transform="translate(-8.89 -13.14)"/><path class="cls-12" d="M40.34,79.64a.51.51,0,0,1-.51.51.51.51,0,0,1,0-1A.51.51,0,0,1,40.34,79.64Z" transform="translate(-8.89 -13.14)"/><path class="cls-12" d="M42.64,79.64a.51.51,0,1,1-.51-.51A.51.51,0,0,1,42.64,79.64Z" transform="translate(-8.89 -13.14)"/><path class="cls-12" d="M44.94,79.64a.51.51,0,1,1-.51-.51A.51.51,0,0,1,44.94,79.64Z" transform="translate(-8.89 -13.14)"/><path class="cls-12" d="M47.24,79.64a.51.51,0,1,1-.51-.51A.51.51,0,0,1,47.24,79.64Z" transform="translate(-8.89 -13.14)"/><path class="cls-12" d="M49.54,79.64a.51.51,0,0,1-.51.51.51.51,0,0,1,0-1A.51.51,0,0,1,49.54,79.64Z" transform="translate(-8.89 -13.14)"/><path class="cls-12" d="M51.83,79.64a.51.51,0,0,1-.51.51.51.51,0,1,1,0-1A.51.51,0,0,1,51.83,79.64Z" transform="translate(-8.89 -13.14)"/><path class="cls-12" d="M54.13,79.64a.51.51,0,1,1-.51-.51A.51.51,0,0,1,54.13,79.64Z" transform="translate(-8.89 -13.14)"/><path class="cls-12" d="M56.43,79.64a.51.51,0,1,1-.51-.51A.51.51,0,0,1,56.43,79.64Z" transform="translate(-8.89 -13.14)"/><path class="cls-12" d="M58.73,79.64a.51.51,0,1,1-.51-.51A.51.51,0,0,1,58.73,79.64Z" transform="translate(-8.89 -13.14)"/><path class="cls-12" d="M61,79.64a.51.51,0,0,1-.51.51.51.51,0,0,1,0-1A.51.51,0,0,1,61,79.64Z" transform="translate(-8.89 -13.14)"/><path class="cls-12" d="M63.32,79.64a.51.51,0,0,1-.51.51.51.51,0,0,1,0-1A.51.51,0,0,1,63.32,79.64Z" transform="translate(-8.89 -13.14)"/><path class="cls-12" d="M65.62,79.64a.51.51,0,1,1-.51-.51A.51.51,0,0,1,65.62,79.64Z" transform="translate(-8.89 -13.14)"/><path class="cls-12" d="M67.92,79.64a.51.51,0,1,1-.51-.51A.51.51,0,0,1,67.92,79.64Z" transform="translate(-8.89 -13.14)"/><path class="cls-12" d="M70.22,79.64a.51.51,0,1,1-.51-.51A.51.51,0,0,1,70.22,79.64Z" transform="translate(-8.89 -13.14)"/><path class="cls-12" d="M72.52,79.64a.51.51,0,1,1-.51-.51A.51.51,0,0,1,72.52,79.64Z" transform="translate(-8.89 -13.14)"/><circle class="cls-12" cx="27.49" cy="64.73" r="0.51"/><path class="cls-12" d="M39.19,77.88a.51.51,0,0,1-.51.51.51.51,0,0,1,0-1A.51.51,0,0,1,39.19,77.88Z" transform="translate(-8.89 -13.14)"/><path class="cls-12" d="M41.49,77.88a.51.51,0,1,1-.51-.51A.51.51,0,0,1,41.49,77.88Z" transform="translate(-8.89 -13.14)"/><circle class="cls-12" cx="34.39" cy="64.73" r="0.51"/><circle class="cls-12" cx="36.68" cy="64.73" r="0.51"/><path class="cls-12" d="M48.39,77.88a.51.51,0,0,1-.51.51.51.51,0,1,1,0-1A.51.51,0,0,1,48.39,77.88Z" transform="translate(-8.89 -13.14)"/><path class="cls-12" d="M50.69,77.88a.52.52,0,1,1-.52-.51A.51.51,0,0,1,50.69,77.88Z" transform="translate(-8.89 -13.14)"/><circle class="cls-12" cx="43.58" cy="64.73" r="0.51"/><circle class="cls-12" cx="45.88" cy="64.73" r="0.51"/><circle class="cls-12" cx="48.18" cy="64.73" r="0.51"/><path class="cls-12" d="M59.88,77.88a.51.51,0,1,1-.51-.51A.51.51,0,0,1,59.88,77.88Z" transform="translate(-8.89 -13.14)"/><path class="cls-12" d="M62.18,77.88a.51.51,0,0,1-.51.51.51.51,0,1,1,0-1A.51.51,0,0,1,62.18,77.88Z" transform="translate(-8.89 -13.14)"/><circle class="cls-12" cx="55.07" cy="64.73" r="0.51"/><circle class="cls-12" cx="57.37" cy="64.73" r="0.51"/><circle class="cls-12" cx="59.67" cy="64.73" r="0.51"/><path class="cls-12" d="M71.37,77.88a.51.51,0,1,1-.51-.51A.51.51,0,0,1,71.37,77.88Z" transform="translate(-8.89 -13.14)"/><path class="cls-12" d="M35.75,79.64a.51.51,0,1,1-.51-.51A.51.51,0,0,1,35.75,79.64Z" transform="translate(-8.89 -13.14)"/><path class="cls-12" d="M38.05,79.64a.52.52,0,1,1-.51-.51A.51.51,0,0,1,38.05,79.64Z" transform="translate(-8.89 -13.14)"/><path class="cls-12" d="M40.34,79.64a.51.51,0,0,1-.51.51.51.51,0,0,1,0-1A.51.51,0,0,1,40.34,79.64Z" transform="translate(-8.89 -13.14)"/><path class="cls-12" d="M42.64,79.64a.51.51,0,1,1-.51-.51A.51.51,0,0,1,42.64,79.64Z" transform="translate(-8.89 -13.14)"/><path class="cls-12" d="M44.94,79.64a.51.51,0,1,1-.51-.51A.51.51,0,0,1,44.94,79.64Z" transform="translate(-8.89 -13.14)"/><path class="cls-12" d="M47.24,79.64a.51.51,0,1,1-.51-.51A.51.51,0,0,1,47.24,79.64Z" transform="translate(-8.89 -13.14)"/><path class="cls-12" d="M49.54,79.64a.51.51,0,0,1-.51.51.51.51,0,0,1,0-1A.51.51,0,0,1,49.54,79.64Z" transform="translate(-8.89 -13.14)"/><path class="cls-12" d="M51.83,79.64a.51.51,0,0,1-.51.51.51.51,0,1,1,0-1A.51.51,0,0,1,51.83,79.64Z" transform="translate(-8.89 -13.14)"/><path class="cls-12" d="M54.13,79.64a.51.51,0,1,1-.51-.51A.51.51,0,0,1,54.13,79.64Z" transform="translate(-8.89 -13.14)"/><path class="cls-12" d="M56.43,79.64a.51.51,0,1,1-.51-.51A.51.51,0,0,1,56.43,79.64Z" transform="translate(-8.89 -13.14)"/><path class="cls-12" d="M58.73,79.64a.51.51,0,1,1-.51-.51A.51.51,0,0,1,58.73,79.64Z" transform="translate(-8.89 -13.14)"/><path class="cls-12" d="M61,79.64a.51.51,0,0,1-.51.51.51.51,0,0,1,0-1A.51.51,0,0,1,61,79.64Z" transform="translate(-8.89 -13.14)"/><path class="cls-12" d="M63.32,79.64a.51.51,0,0,1-.51.51.51.51,0,0,1,0-1A.51.51,0,0,1,63.32,79.64Z" transform="translate(-8.89 -13.14)"/><path class="cls-12" d="M65.62,79.64a.51.51,0,1,1-.51-.51A.51.51,0,0,1,65.62,79.64Z" transform="translate(-8.89 -13.14)"/><path class="cls-12" d="M67.92,79.64a.51.51,0,1,1-.51-.51A.51.51,0,0,1,67.92,79.64Z" transform="translate(-8.89 -13.14)"/><path class="cls-12" d="M70.22,79.64a.51.51,0,1,1-.51-.51A.51.51,0,0,1,70.22,79.64Z" transform="translate(-8.89 -13.14)"/><path class="cls-12" d="M72.52,79.64a.51.51,0,1,1-.51-.51A.51.51,0,0,1,72.52,79.64Z" transform="translate(-8.89 -13.14)"/><path class="cls-12" d="M36.9,81.4a.51.51,0,0,1-.51.51.51.51,0,0,1,0-1A.51.51,0,0,1,36.9,81.4Z" transform="translate(-8.89 -13.14)"/><path class="cls-12" d="M39.19,81.4a.51.51,0,0,1-.51.51.51.51,0,1,1,0-1A.51.51,0,0,1,39.19,81.4Z" transform="translate(-8.89 -13.14)"/><path class="cls-12" d="M41.49,81.4a.51.51,0,1,1-.51-.51A.51.51,0,0,1,41.49,81.4Z" transform="translate(-8.89 -13.14)"/><path class="cls-12" d="M43.79,81.4a.51.51,0,1,1-.51-.51A.51.51,0,0,1,43.79,81.4Z" transform="translate(-8.89 -13.14)"/><path class="cls-12" d="M46.09,81.4a.51.51,0,1,1-.51-.51A.51.51,0,0,1,46.09,81.4Z" transform="translate(-8.89 -13.14)"/><path class="cls-12" d="M48.39,81.4a.51.51,0,0,1-.51.51.51.51,0,1,1,0-1A.51.51,0,0,1,48.39,81.4Z" transform="translate(-8.89 -13.14)"/><path class="cls-12" d="M50.69,81.4a.52.52,0,1,1-.52-.51A.51.51,0,0,1,50.69,81.4Z" transform="translate(-8.89 -13.14)"/><path class="cls-12" d="M53,81.4a.51.51,0,1,1-.51-.51A.51.51,0,0,1,53,81.4Z" transform="translate(-8.89 -13.14)"/><path class="cls-12" d="M55.28,81.4a.51.51,0,1,1-.51-.51A.51.51,0,0,1,55.28,81.4Z" transform="translate(-8.89 -13.14)"/><path class="cls-12" d="M57.58,81.4a.51.51,0,1,1-.51-.51A.51.51,0,0,1,57.58,81.4Z" transform="translate(-8.89 -13.14)"/><path class="cls-12" d="M59.88,81.4a.51.51,0,1,1-.51-.51A.51.51,0,0,1,59.88,81.4Z" transform="translate(-8.89 -13.14)"/><path class="cls-12" d="M62.18,81.4a.51.51,0,0,1-.51.51.51.51,0,1,1,0-1A.51.51,0,0,1,62.18,81.4Z" transform="translate(-8.89 -13.14)"/><path class="cls-12" d="M64.47,81.4a.51.51,0,0,1-.51.51.51.51,0,0,1,0-1A.51.51,0,0,1,64.47,81.4Z" transform="translate(-8.89 -13.14)"/><path class="cls-12" d="M66.77,81.4a.51.51,0,1,1-.51-.51A.51.51,0,0,1,66.77,81.4Z" transform="translate(-8.89 -13.14)"/><path class="cls-12" d="M69.07,81.4a.51.51,0,1,1-.51-.51A.51.51,0,0,1,69.07,81.4Z" transform="translate(-8.89 -13.14)"/><path class="cls-12" d="M71.37,81.4a.51.51,0,1,1-.51-.51A.51.51,0,0,1,71.37,81.4Z" transform="translate(-8.89 -13.14)"/><path class="cls-12" d="M35.75,83.16a.51.51,0,1,1-.51-.51A.51.51,0,0,1,35.75,83.16Z" transform="translate(-8.89 -13.14)"/><path class="cls-12" d="M38.05,83.16a.52.52,0,1,1-.51-.51A.51.51,0,0,1,38.05,83.16Z" transform="translate(-8.89 -13.14)"/><path class="cls-12" d="M40.34,83.16a.51.51,0,0,1-.51.51.51.51,0,0,1,0-1A.51.51,0,0,1,40.34,83.16Z" transform="translate(-8.89 -13.14)"/><path class="cls-12" d="M42.64,83.16a.51.51,0,1,1-.51-.51A.51.51,0,0,1,42.64,83.16Z" transform="translate(-8.89 -13.14)"/><path class="cls-12" d="M44.94,83.16a.51.51,0,1,1-.51-.51A.51.51,0,0,1,44.94,83.16Z" transform="translate(-8.89 -13.14)"/><path class="cls-12" d="M47.24,83.16a.51.51,0,1,1-.51-.51A.51.51,0,0,1,47.24,83.16Z" transform="translate(-8.89 -13.14)"/><path class="cls-12" d="M49.54,83.16a.51.51,0,0,1-.51.51.51.51,0,1,1,0-1A.51.51,0,0,1,49.54,83.16Z" transform="translate(-8.89 -13.14)"/><path class="cls-12" d="M51.83,83.16a.51.51,0,0,1-.51.51.51.51,0,1,1,0-1A.51.51,0,0,1,51.83,83.16Z" transform="translate(-8.89 -13.14)"/><path class="cls-12" d="M54.13,83.16a.51.51,0,1,1-.51-.51A.51.51,0,0,1,54.13,83.16Z" transform="translate(-8.89 -13.14)"/><path class="cls-12" d="M56.43,83.16a.51.51,0,1,1-.51-.51A.51.51,0,0,1,56.43,83.16Z" transform="translate(-8.89 -13.14)"/><path class="cls-12" d="M58.73,83.16a.51.51,0,1,1-.51-.51A.51.51,0,0,1,58.73,83.16Z" transform="translate(-8.89 -13.14)"/><path class="cls-12" d="M61,83.16a.51.51,0,0,1-.51.51.51.51,0,1,1,0-1A.51.51,0,0,1,61,83.16Z" transform="translate(-8.89 -13.14)"/><path class="cls-12" d="M63.32,83.16a.51.51,0,0,1-.51.51.51.51,0,1,1,0-1A.51.51,0,0,1,63.32,83.16Z" transform="translate(-8.89 -13.14)"/><path class="cls-12" d="M65.62,83.16a.51.51,0,1,1-.51-.51A.51.51,0,0,1,65.62,83.16Z" transform="translate(-8.89 -13.14)"/><path class="cls-12" d="M67.92,83.16a.51.51,0,1,1-.51-.51A.51.51,0,0,1,67.92,83.16Z" transform="translate(-8.89 -13.14)"/><path class="cls-12" d="M70.22,83.16a.51.51,0,1,1-.51-.51A.51.51,0,0,1,70.22,83.16Z" transform="translate(-8.89 -13.14)"/><path class="cls-12" d="M72.52,83.16a.51.51,0,1,1-.51-.51A.51.51,0,0,1,72.52,83.16Z" transform="translate(-8.89 -13.14)"/><path class="cls-12" d="M36.9,85.05a.51.51,0,0,1-.51.51.51.51,0,0,1,0-1A.51.51,0,0,1,36.9,85.05Z" transform="translate(-8.89 -13.14)"/><path class="cls-12" d="M39.19,85.05a.51.51,0,0,1-.51.51.51.51,0,0,1,0-1A.51.51,0,0,1,39.19,85.05Z" transform="translate(-8.89 -13.14)"/><path class="cls-12" d="M41.49,85.05a.51.51,0,1,1-.51-.51A.51.51,0,0,1,41.49,85.05Z" transform="translate(-8.89 -13.14)"/><path class="cls-12" d="M43.79,85.05a.51.51,0,1,1-.51-.51A.51.51,0,0,1,43.79,85.05Z" transform="translate(-8.89 -13.14)"/><path class="cls-12" d="M46.09,85.05a.51.51,0,1,1-.51-.51A.51.51,0,0,1,46.09,85.05Z" transform="translate(-8.89 -13.14)"/><path class="cls-12" d="M48.39,85.05a.51.51,0,0,1-.51.51.51.51,0,1,1,0-1A.51.51,0,0,1,48.39,85.05Z" transform="translate(-8.89 -13.14)"/><path class="cls-12" d="M50.69,85.05a.52.52,0,1,1-.52-.51A.51.51,0,0,1,50.69,85.05Z" transform="translate(-8.89 -13.14)"/><path class="cls-12" d="M53,85.05a.51.51,0,1,1-.51-.51A.51.51,0,0,1,53,85.05Z" transform="translate(-8.89 -13.14)"/><path class="cls-12" d="M55.28,85.05a.51.51,0,1,1-.51-.51A.51.51,0,0,1,55.28,85.05Z" transform="translate(-8.89 -13.14)"/><path class="cls-12" d="M57.58,85.05a.51.51,0,1,1-.51-.51A.51.51,0,0,1,57.58,85.05Z" transform="translate(-8.89 -13.14)"/><path class="cls-12" d="M59.88,85.05a.51.51,0,1,1-.51-.51A.51.51,0,0,1,59.88,85.05Z" transform="translate(-8.89 -13.14)"/><path class="cls-12" d="M62.18,85.05a.51.51,0,0,1-.51.51.51.51,0,1,1,0-1A.51.51,0,0,1,62.18,85.05Z" transform="translate(-8.89 -13.14)"/><path class="cls-12" d="M64.47,85.05a.51.51,0,0,1-.51.51.51.51,0,1,1,0-1A.51.51,0,0,1,64.47,85.05Z" transform="translate(-8.89 -13.14)"/><path class="cls-12" d="M66.77,85.05a.51.51,0,1,1-.51-.51A.51.51,0,0,1,66.77,85.05Z" transform="translate(-8.89 -13.14)"/><path class="cls-12" d="M69.07,85.05a.51.51,0,1,1-.51-.51A.51.51,0,0,1,69.07,85.05Z" transform="translate(-8.89 -13.14)"/><path class="cls-12" d="M71.37,85.05a.51.51,0,1,1-.51-.51A.51.51,0,0,1,71.37,85.05Z" transform="translate(-8.89 -13.14)"/><path class="cls-12" d="M35.75,86.81a.51.51,0,1,1-.51-.51A.51.51,0,0,1,35.75,86.81Z" transform="translate(-8.89 -13.14)"/><path class="cls-12" d="M38.05,86.81a.52.52,0,1,1-.51-.51A.51.51,0,0,1,38.05,86.81Z" transform="translate(-8.89 -13.14)"/><path class="cls-12" d="M40.34,86.81a.51.51,0,0,1-.51.51.51.51,0,0,1,0-1A.51.51,0,0,1,40.34,86.81Z" transform="translate(-8.89 -13.14)"/><path class="cls-12" d="M42.64,86.81a.51.51,0,1,1-.51-.51A.51.51,0,0,1,42.64,86.81Z" transform="translate(-8.89 -13.14)"/><path class="cls-12" d="M44.94,86.81a.51.51,0,1,1-.51-.51A.51.51,0,0,1,44.94,86.81Z" transform="translate(-8.89 -13.14)"/><path class="cls-12" d="M47.24,86.81a.51.51,0,1,1-.51-.51A.51.51,0,0,1,47.24,86.81Z" transform="translate(-8.89 -13.14)"/><path class="cls-12" d="M49.54,86.81a.51.51,0,0,1-.51.51.51.51,0,0,1,0-1A.51.51,0,0,1,49.54,86.81Z" transform="translate(-8.89 -13.14)"/><path class="cls-12" d="M51.83,86.81a.51.51,0,0,1-.51.51.51.51,0,0,1,0-1A.51.51,0,0,1,51.83,86.81Z" transform="translate(-8.89 -13.14)"/><path class="cls-12" d="M54.13,86.81a.51.51,0,1,1-.51-.51A.51.51,0,0,1,54.13,86.81Z" transform="translate(-8.89 -13.14)"/><path class="cls-12" d="M56.43,86.81a.51.51,0,1,1-.51-.51A.51.51,0,0,1,56.43,86.81Z" transform="translate(-8.89 -13.14)"/><path class="cls-12" d="M58.73,86.81a.51.51,0,1,1-.51-.51A.51.51,0,0,1,58.73,86.81Z" transform="translate(-8.89 -13.14)"/><path class="cls-12" d="M61,86.81a.51.51,0,0,1-.51.51.51.51,0,1,1,0-1A.51.51,0,0,1,61,86.81Z" transform="translate(-8.89 -13.14)"/><path class="cls-12" d="M63.32,86.81a.51.51,0,0,1-.51.51.51.51,0,1,1,0-1A.51.51,0,0,1,63.32,86.81Z" transform="translate(-8.89 -13.14)"/><path class="cls-12" d="M65.62,86.81a.51.51,0,1,1-.51-.51A.51.51,0,0,1,65.62,86.81Z" transform="translate(-8.89 -13.14)"/><path class="cls-12" d="M67.92,86.81a.51.51,0,1,1-.51-.51A.51.51,0,0,1,67.92,86.81Z" transform="translate(-8.89 -13.14)"/><path class="cls-12" d="M70.22,86.81a.51.51,0,1,1-.51-.51A.51.51,0,0,1,70.22,86.81Z" transform="translate(-8.89 -13.14)"/><path class="cls-12" d="M72.52,86.81A.51.51,0,1,1,72,86.3.51.51,0,0,1,72.52,86.81Z" transform="translate(-8.89 -13.14)"/></g><g class="cls-13"><rect class="cls-14" x="40.31" y="68.73" width="1.27" height="3.53" transform="translate(16.3 -22.64) rotate(19.01)"/></g><rect class="cls-15" x="40.74" y="65.73" width="2.78" height="2.68" transform="translate(15.25 -23.21) rotate(19.01)"/><rect class="cls-15" x="41.39" y="62.55" width="3.67" height="2.68" transform="translate(14.28 -23.74) rotate(19.01)"/><polygon class="cls-16" points="34.98 53.11 32.35 52.2 32.16 51.41 35.63 52.6 34.98 53.11"/><polygon class="cls-15" points="37.34 49.41 32.77 47.84 38.07 32.36 42.64 33.93 37.34 49.41"/><polygon class="cls-16" points="36.5 50.07 33.03 48.88 32.77 47.84 37.34 49.41 36.5 50.07"/><path class="cls-16" d="M42.39,69.12l-1.74-.6a.19.19,0,0,1-.15-.15l-.12-.49,2.63.9-.41.32A.22.22,0,0,1,42.39,69.12Z" transform="translate(-8.89 -13.14)"/><path class="cls-17" d="M51.54,47.08,47,45.5,47.5,44a2.41,2.41,0,0,1,3.07-1.49h0a2.42,2.42,0,0,1,1.5,3.07Z" transform="translate(-8.89 -13.14)"/><path class="cls-17" d="M93.1,43.81a.41.41,0,0,1-.46-.25c-1.66-5-6-9.2-11.68-11.33a30.71,30.71,0,0,0-17.37-.78,20.9,20.9,0,0,0-8.73,3.88,9.78,9.78,0,0,0-3.93,7.83.41.41,0,0,1-.38.41.39.39,0,0,1-.43-.35,10.53,10.53,0,0,1,4.22-8.45,21.64,21.64,0,0,1,9.08-4.05,31.52,31.52,0,0,1,17.86.81c5.86,2.21,10.4,6.61,12.13,11.79a.37.37,0,0,1-.26.47Z" transform="translate(-8.89 -13.14)"/><path class="cls-18" d="M64.1,83.75H44.28c-1.72,0-3.17-.7-3.41-1.65l-2.36-9.48c-.28-1.15,1.32-2.17,3.41-2.17H66.45c2.09,0,3.7,1,3.41,2.17L67.5,82.1C67.27,83.05,65.81,83.75,64.1,83.75Z" transform="translate(-8.89 -13.14)"/></g></g></g></svg>