<svg xmlns="http://www.w3.org/2000/svg" viewBox="0 0 94.4 130.13"><defs><style>.cls-1{isolation:isolate;}.cls-2{fill:#393f4a;}.cls-3{fill:#2b3038;}.cls-4{fill:#545e6e;}.cls-5{fill:#fec093;}.cls-6{mix-blend-mode:multiply;opacity:0.15;}.cls-7{fill:#59221a;}.cls-8{fill:#f0a384;}.cls-9{fill:#fff;}</style></defs><g class="cls-1"><g id="Ebene_1" data-name="Ebene 1"><g id="Schritt_3"><path class="cls-2" d="M32.32,25.18s15.62-20.69,45-5.07c26,13.84,11.4,41,15.76,48.82s13.13,18.68,9.68,30.15-19,26.87-19,26.87H26.26s-18.41-7.67-17-24,8.32-16.37,6.94-24S8.13,58,14.87,42.22C21.54,26.57,32.32,25.18,32.32,25.18Z" transform="translate(-9.15 -12.52)"/><path class="cls-3" d="M24.24,68.07c-3,5.29,4.22,15.79,1.81,21.25s-7.1,16.91.55,29.56,46.86,0,46.86,0,11.42-13.61,10.18-21.34-9.33-18-9.68-21.65S30.74,56.65,24.24,68.07Z" transform="translate(-9.15 -12.52)"/><path class="cls-4" d="M67.31,113.81l27.34,8.91h0A91.43,91.43,0,0,1,52,133,91.4,91.4,0,0,1,9.41,122.72h0l27.33-8.91Z" transform="translate(-9.15 -12.52)"/><path class="cls-5" d="M27,78.35a1.84,1.84,0,0,1-.84.11c-2.74-.24-6.2-5.93-7.86-10.24-1.84-4.77-.44-7.58,2.39-8.68a4.14,4.14,0,0,1,1.25-.24c2.85-.1,6.75,2.41,8.34,6.54C32.12,70.6,29.84,77.26,27,78.35Z" transform="translate(-9.15 -12.52)"/><path class="cls-5" d="M79.53,54c0,.23,0,.46,0,.69a27.67,27.67,0,0,1-55.3.49c0-.08,0-.15,0-.21V54.7c0-.23,0-.46,0-.69A27.68,27.68,0,0,1,42.4,28h0a27.65,27.65,0,0,1,9.45-1.66,28.51,28.51,0,0,1,2.94.15A27.68,27.68,0,0,1,79.53,54Z" transform="translate(-9.15 -12.52)"/><path class="cls-5" d="M67.31,113.81s-3.49,4.26-15.28,4.26-15.29-4.26-15.29-4.26c6.66-5.22,3.58-23.46,3.58-23.46H63.73s-.17,1-.35,2.67a49.12,49.12,0,0,0,.19,13.25C64.15,109.4,65.28,112.21,67.31,113.81Z" transform="translate(-9.15 -12.52)"/><g class="cls-6"><path class="cls-7" d="M63.57,106.27a10.91,10.91,0,0,1-3.57-.21C48.7,103.7,44.23,95.83,44.23,95.83c2.29-4.62,12-4,19.15-2.81A49.12,49.12,0,0,0,63.57,106.27Z" transform="translate(-9.15 -12.52)"/></g><path class="cls-5" d="M79.53,54.7s-.15,13.5-5,25.39C70.68,89.44,63.92,97.79,52,97.79c-25.33,0-27.62-37.87-27.81-42.6,0-.08,0-.15,0-.21s0-.28,0-.28Z" transform="translate(-9.15 -12.52)"/><path class="cls-2" d="M52.9,61a16.8,16.8,0,0,0,.34,2.3c.16.76.33,1.52.52,2.29.36,1.52.76,3,1.09,4.59.17.78.33,1.55.43,2.36,0,.2,0,.41,0,.62a1.73,1.73,0,0,1-.12.72,2,2,0,0,1-.41.59,4.84,4.84,0,0,1-.5.42,9.62,9.62,0,0,1-2.18,1.08,18.24,18.24,0,0,1-2.29.68.22.22,0,0,1-.25-.16.22.22,0,0,1,.14-.24h0c.73-.25,1.46-.54,2.17-.84.36-.16.71-.32,1-.5a7,7,0,0,0,1-.59,1.92,1.92,0,0,0,.66-.72,2.26,2.26,0,0,0,0-1,23.12,23.12,0,0,0-.39-2.28l-1-4.61c-.16-.77-.32-1.55-.44-2.33A12.58,12.58,0,0,1,52.5,61a.2.2,0,1,1,.4,0Z" transform="translate(-9.15 -12.52)"/><path class="cls-8" d="M57.15,84.22c0,1.37-2.4,3.42-5.37,3.42s-5.36-2-5.36-3.42,2.4-1.82,5.36-1.82S57.15,82.85,57.15,84.22Z" transform="translate(-9.15 -12.52)"/><ellipse class="cls-8" cx="61.83" cy="56.91" rx="4.38" ry="4.33"/><path class="cls-2" d="M35.42,33.3c-3,5.92-4.48,12.7-10.85,26.49,0,0-9.23-21,6.64-29.27S71.64,17.68,79,27.4s8.73,32.2,6.74,41.53,3.49,25.33,3.49,25.33-7.61-6-9-7.94S72.05,78.46,74,70c.9-4,3-10.59,2.26-16S69.6,46,61,41.67C53.86,38,52,25.31,35.42,33.3Z" transform="translate(-9.15 -12.52)"/><ellipse class="cls-8" cx="25.46" cy="56.91" rx="4.38" ry="4.33"/><path class="cls-2" d="M45.06,84.08c.56,0,1.12.1,1.68.13s1.12.08,1.68.11c1.12.06,2.24.1,3.36.08s2.24-.05,3.36-.11,2.25-.13,3.37-.21h0a.2.2,0,0,1,.05.4c-1.12.2-2.24.33-3.37.43s-2.27.16-3.41.18-2.27,0-3.4-.14c-.57,0-1.13-.12-1.7-.19s-1.12-.16-1.68-.28a.2.2,0,0,1,.06-.4Z" transform="translate(-9.15 -12.52)"/><path class="cls-2" d="M61.38,50.43,60,52.65s10.25-1.21,13.74-.25S67.47,48.24,61.38,50.43Z" transform="translate(-9.15 -12.52)"/><path class="cls-2" d="M42.55,50.43,44,52.65s-10.26-1.21-13.74-.25S36.45,48.24,42.55,50.43Z" transform="translate(-9.15 -12.52)"/><path class="cls-2" d="M63.27,62.39s3.64.67,8.38-2.06c0,0-.75-1.26,2.76-3.7C74.41,56.63,64.14,60.27,63.27,62.39Z" transform="translate(-9.15 -12.52)"/><path class="cls-2" d="M60.08,61.57s1.54-8.76,14.33-4.94c0,0-2,1.4-4.16,3.16A10.38,10.38,0,0,1,60.08,61.57Z" transform="translate(-9.15 -12.52)"/><path class="cls-9" d="M70.76,58a6.37,6.37,0,0,1-2.08,2.62l-.29.21A8.58,8.58,0,0,1,66.14,62a8.18,8.18,0,0,1-2.5.42h-.37a7.26,7.26,0,0,1-3.19-.82A7.15,7.15,0,0,1,62.15,59l.27-.21a8.25,8.25,0,0,1,2.28-1.17,8.79,8.79,0,0,1,2.5-.44h.33A6.59,6.59,0,0,1,70.76,58Z" transform="translate(-9.15 -12.52)"/><path class="cls-2" d="M68.79,59.9a5,5,0,0,1-.16,1,2.65,2.65,0,0,1-.26.21,7.76,7.76,0,0,1-2.18,1,3.33,3.33,0,0,1-1.55.33l-1.37-.06a3.36,3.36,0,0,1-1.22-2.69,3.29,3.29,0,0,1,.1-.71,2,2,0,0,1,.08-.26A3.36,3.36,0,0,1,67.32,57l.21.15A3.37,3.37,0,0,1,68.79,59.9Z" transform="translate(-9.15 -12.52)"/><path class="cls-2" d="M41.05,62.39s-3.64.67-8.38-2.06c0,0,.75-1.26-2.76-3.7C29.91,56.63,40.18,60.27,41.05,62.39Z" transform="translate(-9.15 -12.52)"/><path class="cls-2" d="M44.24,61.57s-1.54-8.76-14.33-4.94c0,0,2,1.4,4.16,3.16A10.38,10.38,0,0,0,44.24,61.57Z" transform="translate(-9.15 -12.52)"/><path class="cls-9" d="M33.56,58a6.37,6.37,0,0,0,2.08,2.62l.29.21A8.58,8.58,0,0,0,38.18,62a8.16,8.16,0,0,0,2.49.42h.38a7.26,7.26,0,0,0,3.19-.82A7.15,7.15,0,0,0,42.17,59l-.27-.21a8.54,8.54,0,0,0-2.28-1.17,8.79,8.79,0,0,0-2.5-.44h-.33A6.59,6.59,0,0,0,33.56,58Z" transform="translate(-9.15 -12.52)"/><path class="cls-2" d="M35.53,59.9a6,6,0,0,0,.15,1,2.78,2.78,0,0,0,.27.21,7.76,7.76,0,0,0,2.18,1,3.33,3.33,0,0,0,1.55.33l1.37-.06a3.36,3.36,0,0,0,1.22-2.69,3.29,3.29,0,0,0-.1-.71,2,2,0,0,0-.08-.26A3.36,3.36,0,0,0,37,57l-.21.15A3.37,3.37,0,0,0,35.53,59.9Z" transform="translate(-9.15 -12.52)"/><g class="cls-6"><path class="cls-7" d="M75.54,80h0a8.66,8.66,0,0,1-3.38-6c-1-7,3.24-16.45,2.08-19.27-1.66-4-8.48-6.61-14.63-8.7s-5.19-9.63-8.52-13.36c3.76,2.54,6.06,7,9.77,8.93l.18.1C69.6,46,75.5,48.63,76.25,54S74.89,66,74,70c-.09.39-.16.78-.22,1.16s-.06.5-.08.75l0,.37a13.12,13.12,0,0,0,0,2,13.72,13.72,0,0,0,.62,2.93,2.64,2.64,0,0,0,.1.3,1.06,1.06,0,0,0,.09.25,1.75,1.75,0,0,0,.12.32c.06.16.12.32.19.47a2,2,0,0,0,.11.26l.22.48,0,0,.12.24C75.37,79.69,75.45,79.85,75.54,80Z" transform="translate(-9.15 -12.52)"/></g><path class="cls-2" d="M92,116.72c-3.92,5-11.67,16.21-5.88,25.06a.56.56,0,0,1-.76.79c-5.82-3.57-18.82-13.44-10-26.14C86.48,100.39,94.93,113,92,116.72Z" transform="translate(-9.15 -12.52)"/><path class="cls-2" d="M22.89,62.39a2.08,2.08,0,0,0-.56,0l-.29,0a1.2,1.2,0,0,0-.27.08,2,2,0,0,0-.92.65,3,3,0,0,0-.49,1.08c0,.21-.07.42-.1.62l0,.64v0a.19.19,0,0,1-.21.19.21.21,0,0,1-.2-.19v-.68c0-.23,0-.46.06-.69a3.5,3.5,0,0,1,.51-1.33,2.72,2.72,0,0,1,1.14-.93l.35-.12.36-.08a3.15,3.15,0,0,1,.76,0,.37.37,0,0,1-.06.74h0Z" transform="translate(-9.15 -12.52)"/><path class="cls-2" d="M20.68,62.75c.11-.15.18-.16.25-.14l.19.06.36.15a4.52,4.52,0,0,1,.69.36,4.44,4.44,0,0,1,1.15,1.05,4.69,4.69,0,0,1,.76,1.34,5.6,5.6,0,0,1,.21.73c.05.24.07.49.11.74a.21.21,0,0,1-.4.09v0c-.08-.22-.13-.45-.2-.67s-.16-.43-.27-.63l-.15-.31-.19-.28a1.65,1.65,0,0,0-.19-.27,2.65,2.65,0,0,0-.21-.26,4.36,4.36,0,0,0-1-.85,6.54,6.54,0,0,0-.59-.3l-.31-.12-.16,0c-.05,0-.09,0-.1-.22V63A.39.39,0,0,1,20.68,62.75Z" transform="translate(-9.15 -12.52)"/><path class="cls-3" d="M27.22,73.6c.24.88.5,1.75.77,2.61s.54,1.67.88,2.5l-.07.19c.08.19.08.26-.11.34a.38.38,0,0,1-.48-.21v0c-.29-.88-.53-1.76-.76-2.64s-.43-1.78-.62-2.67a.21.21,0,0,1,.16-.24.21.21,0,0,1,.24.14Z" transform="translate(-9.15 -12.52)"/><path class="cls-2" d="M33.38,29.45a.78.78,0,0,1-.59-.32,5.1,5.1,0,0,1-.19-.5c-.12-.34-.22-.68-.31-1a12.41,12.41,0,0,1-.33-2.1,10.48,10.48,0,0,1,.56-4.19,10.64,10.64,0,0,1,2.15-3.59,13.23,13.23,0,0,1,3.19-2.6.2.2,0,0,1,.23.33,16.37,16.37,0,0,0-2.79,2.79c-.21.25-.37.53-.56.79s-.34.55-.48.84a9.71,9.71,0,0,0-.73,1.77,10.06,10.06,0,0,0-.38,3.78,11,11,0,0,0,.32,1.88c.08.31.18.61.28.91a3.43,3.43,0,0,1,.16.45.76.76,0,0,1-.17.59l0,0A.33.33,0,0,1,33.38,29.45Z" transform="translate(-9.15 -12.52)"/><path class="cls-2" d="M30.82,27.93c0-.16.07-.28.11-.4a3.07,3.07,0,0,1,.11-.36c.08-.24.17-.47.26-.7.18-.46.38-.91.6-1.34a19,19,0,0,1,1.52-2.49,21,21,0,0,1,4-4.14,24.33,24.33,0,0,1,4.91-2.95,33.48,33.48,0,0,1,5.38-1.84,45.5,45.5,0,0,1,11.19-1.18,77,77,0,0,1,11.16,1,.21.21,0,0,1,.17.24.22.22,0,0,1-.23.17,74.9,74.9,0,0,0-11.09-.68A44.56,44.56,0,0,0,48,14.73a30.69,30.69,0,0,0-5.13,1.92,22.47,22.47,0,0,0-4.57,2.92,19.66,19.66,0,0,0-3.62,3.95,17.75,17.75,0,0,0-1.32,2.32,10.68,10.68,0,0,0-.51,1.21c-.07.21-.15.42-.21.62s-.06.21-.08.31a2.27,2.27,0,0,0-.07.28v0a.87.87,0,0,1-1,.67.84.84,0,0,1-.66-1Z" transform="translate(-9.15 -12.52)"/><path class="cls-2" d="M37.9,30.29c.38-.07.7-.11,1-.15s.68-.06,1-.08a17.36,17.36,0,0,1,2,0,17.77,17.77,0,0,1,4,.66,14.17,14.17,0,0,1,3.71,1.7,12.89,12.89,0,0,1,3,2.73A51,51,0,0,0,58,40.9a16.47,16.47,0,0,0,3.15,2.2,29.63,29.63,0,0,0,3.54,1.59.2.2,0,0,1,.12.26.2.2,0,0,1-.25.12,31.21,31.21,0,0,1-3.67-1.47,17.08,17.08,0,0,1-3.34-2.17A50,50,0,0,1,52,35.79a11.74,11.74,0,0,0-2.86-2.4A12.53,12.53,0,0,0,45.67,32,15.49,15.49,0,0,0,42,31.5c-.63,0-1.26,0-1.88.07l-.93.11c-.3.05-.63.1-.89.17h0a.8.8,0,1,1-.36-1.55Z" transform="translate(-9.15 -12.52)"/><path class="cls-2" d="M75.65,76.12A40,40,0,0,1,78.88,82a40.88,40.88,0,0,1,2.33,6.29,30.38,30.38,0,0,1,.76,3.3,27.43,27.43,0,0,1,.4,3.4,16.52,16.52,0,0,1-.19,3.5,6.92,6.92,0,0,1-.19.88c0,.14-.07.29-.11.44l-.15.43-.15.43-.16.39-.33.77c-.91,2.06-1.91,4-2.92,6s-2,3.9-2.94,5.87c-.45,1-.89,2-1.27,3a22.72,22.72,0,0,0-1,3.06,11,11,0,0,0-.36,3.11,4.9,4.9,0,0,0,1,2.83h0a.33.33,0,0,1-.06.46.34.34,0,0,1-.44,0,5.48,5.48,0,0,1-1.44-3.17,11.64,11.64,0,0,1,.15-3.44,32.52,32.52,0,0,1,2-6.41c1.69-4.11,3.79-8,5.47-12l.3-.75.14-.38c0-.12.08-.23.12-.35l.11-.35c0-.12.06-.24.09-.36l.08-.36c0-.13,0-.25.06-.38A14.88,14.88,0,0,0,80.37,95a31,31,0,0,0-1.11-6.27c-1.11-4.16-2.64-8.24-4.18-12.35h0a.35.35,0,0,1,.2-.43A.32.32,0,0,1,75.65,76.12Z" transform="translate(-9.15 -12.52)"/><path class="cls-5" d="M36.74,113.81S44.66,122.24,52,125c0,0,9.43-3.3,15.28-11.18C67.31,113.81,50,109.91,36.74,113.81Z" transform="translate(-9.15 -12.52)"/><path class="cls-4" d="M52.18,114.79a29.32,29.32,0,0,1-5.4-.51,27.78,27.78,0,0,1-8.07-2.82.22.22,0,0,1,.23-.38,27,27,0,0,0,7.94,2.77,27.39,27.39,0,0,0,18.25-2.77.22.22,0,0,1,.3.09.24.24,0,0,1-.09.3A27.71,27.71,0,0,1,52.18,114.79Z" transform="translate(-9.15 -12.52)"/></g></g></g></svg>