<svg xmlns="http://www.w3.org/2000/svg" viewBox="0 0 86.4 125.19"><defs><style>.cls-1{isolation:isolate;}.cls-13,.cls-2{fill:#393f4a;}.cls-3{fill:#f8be92;}.cls-4{fill:#fff;}.cls-5{mix-blend-mode:multiply;opacity:0.15;}.cls-6{fill:#58211a;}.cls-7{fill:#333842;}.cls-8{fill:#d4d3d3;}.cls-9{fill:#d7dde4;}.cls-10{fill:#eaeaea;}.cls-11{fill:#efb38a;}.cls-12{fill:#d09c77;}.cls-13{fill-rule:evenodd;}</style></defs><g class="cls-1"><g id="Ebene_1" data-name="Ebene 1"><g id="Schritt_4"><path class="cls-2" d="M85.29,69.59c.25-.23.52-.52.78-.8s.51-.56.76-.85c.5-.58,1-1.19,1.43-1.8a31.48,31.48,0,0,0,2.43-3.91,21.92,21.92,0,0,0,2.54-8.76,18.42,18.42,0,0,0-.32-4.57,19.52,19.52,0,0,0-1.49-4.38,26.59,26.59,0,0,0-5.59-7.44.13.13,0,0,1,0-.19.12.12,0,0,1,.18,0,27.19,27.19,0,0,1,6,7.35,19.79,19.79,0,0,1,1.73,4.48,19.37,19.37,0,0,1,.54,4.8A23.14,23.14,0,0,1,92,62.86a30.56,30.56,0,0,1-2.38,4.21c-.46.67-.93,1.33-1.43,2-.25.32-.5.63-.77.94s-.52.61-.84.93a.91.91,0,0,1-1.3-1.27l0,0Z" transform="translate(-13.15 -15)"/><path class="cls-2" d="M24.53,69.73s-4.7-7.66-2.59-11.93,3.25-6,2.59-10.78-1-12.62,2-15.46,3.93-3.41,4.85-5.92,1.46-8.92,9.09-8.92,9.57,4.93,14.77,5.58,14.31-3.67,20.54,2.07,3.81,11.22,7.62,13.73,8.09,5.29,8.46,12.73-4.5,19.41-4.5,19.41H83.53S79,34.47,57.72,34.47,30.6,70.8,30.6,70.8Z" transform="translate(-13.15 -15)"/><path class="cls-3" d="M84.64,61.54c0-14.87-11-27.1-25.07-28.62a26.66,26.66,0,0,0-3-.16A27.26,27.26,0,0,0,47,34.49h0A28.76,28.76,0,0,0,28.55,61.54c0,.24,0,.48,0,.72h0s0,.1,0,.28a1.7,1.7,0,0,0,0,.22c.19,4.92,2.51,46.13,28.18,46.13,12.06,0,18.9-10.51,22.78-20.23,4.94-12.36,5.1-26.4,5.1-26.4h0C84.63,62,84.64,61.78,84.64,61.54Z" transform="translate(-13.15 -15)"/><path class="cls-2" d="M57.63,69.65c.34.74.63,1.49.9,2.25s.53,1.53.75,2.3a29.33,29.33,0,0,1,1,4.75,10.87,10.87,0,0,1,0,2.49A3.34,3.34,0,0,1,60,82.72a3.29,3.29,0,0,1-1,.94,10.88,10.88,0,0,1-2.19,1.14,18.92,18.92,0,0,1-2.3.79.21.21,0,0,1-.25-.15.19.19,0,0,1,.12-.24h0a22.13,22.13,0,0,0,4.21-2.12,2.71,2.71,0,0,0,.74-.73,2.79,2.79,0,0,0,.3-1,10.61,10.61,0,0,0,0-2.32c-.09-.78-.23-1.56-.38-2.34s-.34-1.55-.54-2.32a47.21,47.21,0,0,0-1.45-4.55h0a.2.2,0,0,1,.12-.26A.21.21,0,0,1,57.63,69.65Z" transform="translate(-13.15 -15)"/><path class="cls-2" d="M65.06,59.71l-.36,2.63s10.27-.41,13.93.44C82.51,63.68,71.4,57.42,65.06,59.71Z" transform="translate(-13.15 -15)"/><path class="cls-2" d="M48.52,59.87l.17,2.43s-9.69-.11-13.93.53C31.55,63.31,42.16,57.63,48.52,59.87Z" transform="translate(-13.15 -15)"/><path class="cls-4" d="M77.24,67.73a7.66,7.66,0,0,1-3.18,2.62,7.48,7.48,0,0,1-2.84.62,9.91,9.91,0,0,1-3-.39,7.12,7.12,0,0,1-3.06-1.69,9.14,9.14,0,0,1,4.52-3.21,5.53,5.53,0,0,1,1.53-.16,11,11,0,0,1,1.17.12A11.35,11.35,0,0,1,77.24,67.73Z" transform="translate(-13.15 -15)"/><path class="cls-2" d="M74.33,69.63a4.1,4.1,0,0,1-.27.72,7.48,7.48,0,0,1-2.84.62,9.91,9.91,0,0,1-3-.39,3.33,3.33,0,0,1-.42-2.66,3.66,3.66,0,0,1,.25-.68l.13-.23a3.44,3.44,0,0,1,1.5-1.33,5.53,5.53,0,0,1,1.53-.16,11,11,0,0,1,1.17.12,3.43,3.43,0,0,1,1.19.82c.06.07.12.13.17.2A3.39,3.39,0,0,1,74.33,69.63Z" transform="translate(-13.15 -15)"/><path class="cls-2" d="M65.06,68.84a8.41,8.41,0,0,1,1.11-1.34,9.55,9.55,0,0,1,1.36-1.09,7.56,7.56,0,0,1,3.33-1.2,8.36,8.36,0,0,1,3.54.44,13.18,13.18,0,0,1,3.18,1.6l-.68,1a12.27,12.27,0,0,0-2.82-1.69,7.55,7.55,0,0,0-3.18-.62,6.94,6.94,0,0,0-3.15.88,8.53,8.53,0,0,0-2.54,2.17Z" transform="translate(-13.15 -15)"/><path class="cls-4" d="M37.87,67.69A7.48,7.48,0,0,0,41,70.33a7.29,7.29,0,0,0,2.84.64,10,10,0,0,0,3-.37A7.19,7.19,0,0,0,50,68.93a9.07,9.07,0,0,0-4.51-3.24,5.41,5.41,0,0,0-1.52-.17,8.76,8.76,0,0,0-1.17.11A11.38,11.38,0,0,0,37.87,67.69Z" transform="translate(-13.15 -15)"/><path class="cls-2" d="M40.76,69.61a6,6,0,0,0,.27.72,7.29,7.29,0,0,0,2.84.64,10,10,0,0,0,3-.37,3.37,3.37,0,0,0,.44-2.66,3.09,3.09,0,0,0-.26-.68c0-.08-.08-.16-.13-.24a3.36,3.36,0,0,0-1.49-1.33,5.41,5.41,0,0,0-1.52-.17,8.76,8.76,0,0,0-1.17.11,3.37,3.37,0,0,0-1.2.82l-.17.2A3.41,3.41,0,0,0,40.76,69.61Z" transform="translate(-13.15 -15)"/><path class="cls-2" d="M50,68.88a8,8,0,0,0-1.1-1.35,9,9,0,0,0-1.36-1.1,7.37,7.37,0,0,0-3.32-1.21,8.25,8.25,0,0,0-3.55.41,13.33,13.33,0,0,0-3.18,1.59l.67,1A12.11,12.11,0,0,1,41,66.5a7.57,7.57,0,0,1,3.18-.61,7,7,0,0,1,3.15.9A8.69,8.69,0,0,1,49.89,69Z" transform="translate(-13.15 -15)"/><g class="cls-5"><path class="cls-6" d="M48.06,71.6a16.32,16.32,0,0,1-2.3.42,18.09,18.09,0,0,1-2.33.12,14.16,14.16,0,0,1-2.34-.23,8.8,8.8,0,0,1-2.23-.77.17.17,0,0,1-.07-.24.17.17,0,0,1,.21-.08h0a12.91,12.91,0,0,0,2.19.52,20.9,20.9,0,0,0,2.25.17c.76,0,1.51,0,2.27-.06s1.52-.11,2.28-.19h0a.17.17,0,0,1,.2.15A.18.18,0,0,1,48.06,71.6Z" transform="translate(-13.15 -15)"/></g><g class="cls-5"><path class="cls-6" d="M67,71.41c.71.07,1.44.12,2.16.16s1.44.06,2.15,0a21.33,21.33,0,0,0,2.13-.18,11.36,11.36,0,0,0,2.07-.5h0a.18.18,0,0,1,.14.32A7.55,7.55,0,0,1,73.5,72a12.66,12.66,0,0,1-2.21.24,16.42,16.42,0,0,1-2.22-.1,14.88,14.88,0,0,1-2.18-.39.18.18,0,0,1-.12-.22.17.17,0,0,1,.19-.12Z" transform="translate(-13.15 -15)"/></g><path class="cls-2" d="M84.2,68.63c-1-21.52-4.29-24.29-9.12-24.87a9.66,9.66,0,0,0-3.85.42c-3.66,1-7.68,3.54-13.16,3.88-5.7.36-9.16-2.63-14.66-3.84h0a21.27,21.27,0,0,0-5.73-.46c-9.33.47-8.63,24.8-8.63,24.8-4.66-3.81.59-26.1,1.55-30.37a4.25,4.25,0,0,1,1.34-2,17.72,17.72,0,0,1,3.28-2.3c5.47-3.11,14.27-5.86,18-5.86,5.48,0,20.16,3.06,23.77,5.48s10.55,13.3,11.23,20.73S84.2,68.63,84.2,68.63Z" transform="translate(-13.15 -15)"/><path class="cls-2" d="M66.41,24.05c-.88-.1-1.67-.24-2.49-.4s-1.63-.34-2.43-.55a30,30,0,0,1-4.73-1.62,22,22,0,0,1-2.26-1.17L54,20l-.51-.29c-.33-.19-.68-.37-1-.55a33.9,33.9,0,0,0-4.35-1.83,26.92,26.92,0,0,0-4.56-1.14,13.63,13.63,0,0,0-4.64,0,7.69,7.69,0,0,0-2.15.78A6.51,6.51,0,0,0,35,18.48a9,9,0,0,0-1.78,4.3.15.15,0,0,1-.16.11.13.13,0,0,1-.11-.15,9.37,9.37,0,0,1,1.61-4.61,7.13,7.13,0,0,1,1.84-1.71,8.26,8.26,0,0,1,2.32-1,14.58,14.58,0,0,1,5-.35,27.39,27.39,0,0,1,4.86.9,36.8,36.8,0,0,1,4.66,1.64l1.13.52.57.28.54.29a17,17,0,0,0,2.09.93A28.26,28.26,0,0,0,62,20.86c.77.15,1.54.27,2.31.38s1.57.19,2.3.23h0a1.3,1.3,0,1,1-.15,2.59Z" transform="translate(-13.15 -15)"/><path class="cls-7" d="M71.23,44.18c-3.66,1-7.68,3.54-13.16,3.88-5.7.36-9.16-2.63-14.66-3.84h0c-.66-.17-1.35-.32-2.07-.46-5.5-1-8.2-4.06-9.4-7.54-2.17-6.31.58-14.09.58-14.09a16.81,16.81,0,0,0,2.7,11.79C44.15,46.61,71.23,44.18,71.23,44.18Z" transform="translate(-13.15 -15)"/><path class="cls-8" d="M33.43,118.2s23-3.36,45.19.77c0,0-1.57,9.53-22.14,9.53S33.43,118.2,33.43,118.2Z" transform="translate(-13.15 -15)"/><path class="cls-9" d="M99.55,129.73a90.24,90.24,0,0,1-20.4,7.72,95.68,95.68,0,0,1-19.53,2.68c-1.08,0-2.17.05-3.27.05s-2,0-2.94,0a92.38,92.38,0,0,1-40.26-10.41l25.37-9H74.19Z" transform="translate(-13.15 -15)"/><path class="cls-3" d="M78,123,56.62,125.3l-20.92-3a73.83,73.83,0,0,0,1.44-26q0-.22-.06-.42c-.07-.45-.11-.68-.11-.68l.36.31C65.87,119.7,75.81,93.7,75.81,93.7c-2.59,19.29,0,26.16,1.44,28.36A3.61,3.61,0,0,0,78,123Z" transform="translate(-13.15 -15)"/><g class="cls-5"><path class="cls-6" d="M77.25,122.06c-29.18-2.69-38.92-23-40.11-25.68L37,96.07l.06-.11c.08-.13.16-.25.25-.37C65.87,119.7,75.81,93.7,75.81,93.7,73.22,113,75.83,119.86,77.25,122.06Z" transform="translate(-13.15 -15)"/></g><path class="cls-10" d="M33.43,118.2s-4.24.66-8.78,7.43c0,0,11.39,6.06,20.57,8.11,0,0-.29-6.88,6.31-9.15A72.41,72.41,0,0,1,33.43,118.2Z" transform="translate(-13.15 -15)"/><path class="cls-10" d="M78.62,119a18.91,18.91,0,0,1,9.64,6.74s-11.11,6.15-20.29,8.2c0,0,.29-6.88-6.31-9.15A57.92,57.92,0,0,0,78.62,119Z" transform="translate(-13.15 -15)"/><path class="cls-3" d="M61.82,123.56l-2.2,16.57c-1.08,0-2.17.05-3.27.05s-2,0-2.94,0l-2-16.69C54.74,119.34,61.82,123.56,61.82,123.56Z" transform="translate(-13.15 -15)"/><path class="cls-11" d="M81.42,83.15c-.55,1.9-1.19,3.82-1.94,5.7-3.88,9.72-8.54,20.23-22.78,20.23-16.15,0-22.57-13.39-24.56-25,1.15,2,4.86,7.78,10.54,6.61,6.69-1.4,7.5-3.13,14.55-3.17s10.38,4.84,14.92,4.14C76,91.06,80.19,85,81.42,83.15Z" transform="translate(-13.15 -15)"/><path class="cls-3" d="M32.94,86.36a4.1,4.1,0,0,1-.53.5,3.62,3.62,0,0,1-.85.51,1.93,1.93,0,0,1-.86.11c-2.77-.24-6.28-6-8-10.38-1.87-4.83-.45-7.69,2.42-8.79a4,4,0,0,1,1.26-.25c2.9-.1,6.84,2.44,8.46,6.63C36.43,78.7,35.09,84.05,32.94,86.36Z" transform="translate(-13.15 -15)"/><path class="cls-2" d="M27.39,71.19a2.68,2.68,0,0,0-.57,0l-.29,0c-.09,0-.19,0-.28.08a2.12,2.12,0,0,0-.93.66,3.16,3.16,0,0,0-.5,1.1c0,.21-.07.42-.1.63l0,.64v0a.2.2,0,0,1-.21.2.21.21,0,0,1-.2-.2v-.69c0-.23,0-.46.06-.7a3.56,3.56,0,0,1,.52-1.34A2.61,2.61,0,0,1,26,70.69a2.09,2.09,0,0,1,.35-.13l.36-.08a3.07,3.07,0,0,1,.75,0,.39.39,0,0,1,.36.31.38.38,0,0,1-.4.44h0Z" transform="translate(-13.15 -15)"/><path class="cls-2" d="M25.15,71.55c.11-.14.18-.15.25-.13l.19.06a2.39,2.39,0,0,1,.37.15,4.84,4.84,0,0,1,1.87,1.42,4.93,4.93,0,0,1,.76,1.36,6.91,6.91,0,0,1,.22.74c.05.25.07.5.11.75a.21.21,0,0,1-.18.23.19.19,0,0,1-.22-.14v0c-.07-.23-.13-.46-.2-.68a6.14,6.14,0,0,0-.27-.64l-.16-.31-.18-.29a2.83,2.83,0,0,0-.2-.28,2.53,2.53,0,0,0-.22-.26,4.73,4.73,0,0,0-1.63-1.16,2.85,2.85,0,0,0-.31-.12l-.16,0c-.05,0-.09-.05-.1-.22v-.12A.41.41,0,0,1,25.15,71.55Z" transform="translate(-13.15 -15)"/><g class="cls-5"><path class="cls-6" d="M32.94,86.36a4.1,4.1,0,0,1-.53.5c-.14-.5-.28-1-.41-1.5-.22-.9-.43-1.8-.63-2.71a.21.21,0,0,1,.4-.09h0c.25.88.51,1.76.79,2.64C32.69,85.6,32.81,86,32.94,86.36Z" transform="translate(-13.15 -15)"/></g><path class="cls-3" d="M90.57,77.1c-1.68,4.37-5.19,10.14-8,10.38a1.93,1.93,0,0,1-.86-.11,3.62,3.62,0,0,1-.85-.51,4.1,4.1,0,0,1-.53-.5c-2.15-2.31-3.49-7.66-1.94-11.67C80.05,70.5,84,68,86.89,68.06a4,4,0,0,1,1.26.25C91,69.41,92.44,72.27,90.57,77.1Z" transform="translate(-13.15 -15)"/><path class="cls-2" d="M85.82,70.44a3.2,3.2,0,0,1,.77,0l.36.08a2.6,2.6,0,0,1,.36.13,2.64,2.64,0,0,1,1.15.94A3.4,3.4,0,0,1,89,73c0,.24,0,.47.06.7v.69a.21.21,0,0,1-.21.2.2.2,0,0,1-.2-.19v0l0-.64c0-.21-.06-.42-.1-.63A3,3,0,0,0,88,72a2.07,2.07,0,0,0-.93-.66c-.09,0-.19,0-.28-.08l-.29,0a2.68,2.68,0,0,0-.57,0h0a.36.36,0,0,1-.38-.18.38.38,0,0,1,.27-.57Z" transform="translate(-13.15 -15)"/><path class="cls-2" d="M84.39,75.9c-.15-.08-.16-.15-.14-.22l0-.19a3,3,0,0,1,.09-.38,4.89,4.89,0,0,1,.26-.73l.17-.36.2-.34a2.27,2.27,0,0,1,.22-.32c.08-.1.16-.21.25-.31a4.62,4.62,0,0,1,1.22-1,4.39,4.39,0,0,1,1.46-.52.21.21,0,0,1,.23.18.19.19,0,0,1-.13.22h0a4.47,4.47,0,0,0-1.21.62,4.39,4.39,0,0,0-1,.93,4.71,4.71,0,0,0-.68,1.17c-.1.2-.14.43-.22.64s0,.23-.07.34l0,.17c0,.06,0,.11-.22.14h0A.53.53,0,0,1,84.39,75.9Z" transform="translate(-13.15 -15)"/><g class="cls-5"><path class="cls-6" d="M81.94,82.65c-.19.91-.4,1.81-.63,2.71-.13.5-.26,1-.41,1.5a4.1,4.1,0,0,1-.53-.5c.13-.38.25-.76.38-1.16.28-.88.54-1.76.79-2.64h0a.21.21,0,0,1,.4.09Z" transform="translate(-13.15 -15)"/></g><g class="cls-5"><path class="cls-6" d="M61.25,98.66c-.71-.13-1.43-.22-2.14-.31s-1.43-.15-2.15-.18a16.8,16.8,0,0,0-2.13,0,11.53,11.53,0,0,0-2.1.36h0a.17.17,0,0,1-.21-.12.19.19,0,0,1,.09-.21,8.19,8.19,0,0,1,2.16-.61A13.87,13.87,0,0,1,57,97.53a18.23,18.23,0,0,1,2.21.25,14.58,14.58,0,0,1,2.14.54.18.18,0,0,1,.11.22.17.17,0,0,1-.19.12Z" transform="translate(-13.15 -15)"/></g><path class="cls-12" d="M63.22,93.21c0,1-2.73,2.53-6.1,2.53S51,94.22,51,93.21s2.71-.87,6.09-.87S63.22,92.19,63.22,93.21Z" transform="translate(-13.15 -15)"/><path class="cls-2" d="M50.39,92.49a12.91,12.91,0,0,0,1.65.59,8.52,8.52,0,0,0,.87.22l.43.1.44.08a20,20,0,0,0,3.54.27l.89,0,.44,0,.44-.06.89-.1.88-.16.44-.07.43-.11L62.6,93c.58-.14,1.15-.34,1.73-.5h0a.22.22,0,0,1,.28.15.23.23,0,0,1-.13.27l-.86.34-.43.16a3.16,3.16,0,0,1-.43.16l-.88.26-.44.13L61,94l-.9.19-.91.13-.46.06-.46,0c-.31,0-.62,0-.93,0a16.87,16.87,0,0,1-3.68-.34,12.28,12.28,0,0,1-3.49-1.26.24.24,0,0,1-.08-.31.22.22,0,0,1,.29-.09Z" transform="translate(-13.15 -15)"/><path class="cls-13" d="M65.5,95.21a6.76,6.76,0,0,0,1.16-2.72A10.78,10.78,0,0,0,60,90.76a16.56,16.56,0,0,1-3,.14,16.56,16.56,0,0,1-3-.14,10.78,10.78,0,0,0-6.65,1.73,6.76,6.76,0,0,0,1.16,2.72A28,28,0,0,0,53,97.75c-.74-.43-.8-1.8-.8-1.8C53.59,97.27,57,97.27,57,97.27s3.41,0,4.84-1.32c0,0-.06,1.37-.8,1.8A28.4,28.4,0,0,0,65.5,95.21ZM69.37,90c1.36,1.11,6.64,3.06,8.24-.54s4.49-9.82,4.66-16.32l1.31,1.21s-.12,13.37-2.69,19.34-12.93,14.69-16.7,16a20.56,20.56,0,0,1-7,1.32h-.28a20.56,20.56,0,0,1-7-1.32c-3.77-1.27-14.12-10-16.7-16S30.6,74.82,30.6,74.82l1.49-1.69c.17,6.49,2.7,12.78,4.3,16.37s6.88,1.65,8.24.54c1.62-1.31,6.95-3.23,8.8-3.12a13.26,13.26,0,0,1,3.57.66l.06,0a12.3,12.3,0,0,1,3.51-.64C62.42,86.81,67.75,88.73,69.37,90Z" transform="translate(-13.15 -15)"/></g></g></g></svg>