<svg id="Ebene_1" data-name="Ebene 1" xmlns="http://www.w3.org/2000/svg" xmlns:xlink="http://www.w3.org/1999/xlink" viewBox="0 0 682.12 859.97"><defs><style>.cls-1{fill:none;}.cls-2{clip-path:url(#clip-path);}.cls-3{fill:#1e1e1c;}.cls-4{isolation:isolate;font-size:13.69px;fill:#3d3d3b;font-family:AmazonEmber-Thin, Amazon Ember;font-weight:200;letter-spacing:0.34em;}</style><clipPath id="clip-path" transform="translate(59.97 0)"><rect class="cls-1" x="1.43" width="593.2" height="841"/></clipPath></defs><g class="cls-2"><path class="cls-3" d="M-48.23,0H-60V1.34h11.74q8.28,0,12.55,4.84t4.26,14.07v1.64q0,9.38-4.47,14.15T-49.2,40.82h-9.37V12.22H-60v30h11q9.38,0,14.21-5.36t4.82-15.7q0-10.41-4.66-15.76T-48.23,0Z" transform="translate(59.97 0)"/><polygon class="cls-3" points="40.05 19.91 40.05 18.61 40.05 0.01 38.65 0.01 38.65 42.19 40.05 42.19 40.05 23.23 40.05 21.25 40.05 19.91"/><polygon class="cls-3" points="64.62 0.01 64.62 19.91 48.26 19.91 48.26 21.25 64.62 21.25 64.62 42.19 66.02 42.19 66.02 0.01 64.62 0.01"/><rect class="cls-3" y="45.18" width="66.02" height="1.54"/><text class="cls-4" transform="translate(1.6 58.79)">CLINIC</text><path class="cls-3" d="M74.58,0H62.84V1.34H74.58q8.28,0,12.55,4.84t4.26,14.07v1.64q0,9.38-4.47,14.15T73.61,40.82H64.23V12.22H62.84v30h11q9.36,0,14.21-5.36t4.82-15.7q0-10.41-4.66-15.76T74.58,0Z" transform="translate(59.97 0)"/><polygon class="cls-3" points="162.86 19.91 162.86 18.61 162.86 0.01 161.46 0.01 161.46 42.19 162.86 42.19 162.86 23.23 162.86 21.25 162.86 19.91"/><polygon class="cls-3" points="187.43 0.01 187.43 19.91 171.07 19.91 171.07 21.25 187.43 21.25 187.43 42.19 188.83 42.19 188.83 0.01 187.43 0.01"/><rect class="cls-3" x="122.81" y="45.18" width="66.02" height="1.54"/><text class="cls-4" transform="translate(124.4 58.79)">CLINIC</text><path class="cls-3" d="M197.39,0H185.64V1.34h11.75q8.28,0,12.55,4.84t4.26,14.07v1.64q0,9.38-4.47,14.15t-13.32,4.78H187V12.22h-1.4v30h11q9.38,0,14.21-5.36t4.83-15.7q0-10.41-4.66-15.76T197.39,0Z" transform="translate(59.97 0)"/><polygon class="cls-3" points="285.67 19.91 285.67 18.61 285.67 0.01 284.27 0.01 284.27 42.19 285.67 42.19 285.67 23.23 285.67 21.25 285.67 19.91"/><polygon class="cls-3" points="310.24 0.01 310.24 19.91 293.87 19.91 293.87 21.25 310.24 21.25 310.24 42.19 311.64 42.19 311.64 0.01 310.24 0.01"/><rect class="cls-3" x="245.61" y="45.18" width="66.02" height="1.54"/><text class="cls-4" transform="translate(247.21 58.79)">CLINIC</text><path class="cls-3" d="M320.19,0H308.45V1.34h11.74q8.3,0,12.56,4.84T337,20.25v1.64q0,9.38-4.48,14.15t-13.31,4.78h-9.37V12.22h-1.4v30h11q9.38,0,14.21-5.36t4.82-15.7q0-10.41-4.66-15.76T320.19,0Z" transform="translate(59.97 0)"/><polygon class="cls-3" points="408.47 19.91 408.47 18.61 408.47 0.01 407.07 0.01 407.07 42.19 408.47 42.19 408.47 23.23 408.47 21.25 408.47 19.91"/><polygon class="cls-3" points="433.04 0.01 433.04 19.91 416.68 19.91 416.68 21.25 433.04 21.25 433.04 42.19 434.44 42.19 434.44 0.01 433.04 0.01"/><rect class="cls-3" x="368.42" y="45.18" width="66.02" height="1.54"/><text class="cls-4" transform="translate(370.02 58.79)">CLINIC</text><path class="cls-3" d="M443,0H431.26V1.34H443q8.28,0,12.55,4.84t4.26,14.07v1.64q0,9.38-4.47,14.15T442,40.82h-9.37V12.22h-1.4v30h11q9.38,0,14.21-5.36t4.82-15.7q0-10.41-4.66-15.76T443,0Z" transform="translate(59.97 0)"/><polygon class="cls-3" points="531.28 19.91 531.28 18.61 531.28 0.01 529.88 0.01 529.88 42.19 531.28 42.19 531.28 23.23 531.28 21.25 531.28 19.91"/><polygon class="cls-3" points="555.85 0.01 555.85 19.91 539.49 19.91 539.49 21.25 555.85 21.25 555.85 42.19 557.25 42.19 557.25 0.01 555.85 0.01"/><rect class="cls-3" x="491.23" y="45.18" width="66.02" height="1.54"/><text class="cls-4" transform="translate(492.83 58.79)">CLINIC</text><path class="cls-3" d="M565.81,0H554.06V1.34h11.75q8.28,0,12.55,4.84t4.26,14.07v1.64q0,9.38-4.47,14.15t-13.31,4.78h-9.38V12.22h-1.4v30h11q9.38,0,14.21-5.36t4.83-15.7q0-10.41-4.66-15.76T565.81,0Z" transform="translate(59.97 0)"/><polygon class="cls-3" points="654.09 19.91 654.09 18.61 654.09 0.01 652.69 0.01 652.69 42.19 654.09 42.19 654.09 23.23 654.09 21.25 654.09 19.91"/><polygon class="cls-3" points="678.66 0.01 678.66 19.91 662.29 19.91 662.29 21.25 678.66 21.25 678.66 42.19 680.06 42.19 680.06 0.01 678.66 0.01"/><rect class="cls-3" x="614.04" y="45.18" width="66.02" height="1.54"/><text class="cls-4" transform="translate(615.63 58.79)">CLINIC</text><path class="cls-3" d="M13.18,72.5H1.43v1.34H13.18q8.28,0,12.55,4.84T30,92.75v1.64q0,9.38-4.47,14.15T12.2,113.32H2.83V84.72H1.43v30h11q9.38,0,14.21-5.36t4.82-15.7q0-10.39-4.66-15.76T13.18,72.5Z" transform="translate(59.97 0)"/><polygon class="cls-3" points="101.45 92.42 101.45 91.11 101.45 72.52 100.06 72.52 100.06 114.69 101.45 114.69 101.45 95.73 101.45 93.75 101.45 92.42"/><polygon class="cls-3" points="126.03 72.52 126.03 92.42 109.66 92.42 109.66 93.75 126.03 93.75 126.03 114.69 127.42 114.69 127.42 72.52 126.03 72.52"/><rect class="cls-3" x="61.4" y="117.68" width="66.02" height="1.54"/><text class="cls-4" transform="translate(63 131.29)">CLINIC</text><path class="cls-3" d="M136,72.5H124.24v1.34H136q8.28,0,12.56,4.84t4.26,14.07v1.64q0,9.38-4.48,14.15T135,113.32h-9.37V84.72h-1.4v30h11q9.38,0,14.21-5.36t4.82-15.7q0-10.39-4.66-15.76T136,72.5Z" transform="translate(59.97 0)"/><polygon class="cls-3" points="224.26 92.42 224.26 91.11 224.26 72.52 222.86 72.52 222.86 114.69 224.26 114.69 224.26 95.73 224.26 93.75 224.26 92.42"/><polygon class="cls-3" points="248.83 72.52 248.83 92.42 232.47 92.42 232.47 93.75 248.83 93.75 248.83 114.69 250.23 114.69 250.23 72.52 248.83 72.52"/><rect class="cls-3" x="184.21" y="117.68" width="66.02" height="1.54"/><text class="cls-4" transform="translate(185.81 131.29)">CLINIC</text><path class="cls-3" d="M258.79,72.5H247.05v1.34h11.74q8.28,0,12.55,4.84t4.26,14.07v1.64q0,9.38-4.47,14.15t-13.31,4.78h-9.37V84.72h-1.4v30h11q9.36,0,14.21-5.36t4.82-15.7q0-10.39-4.66-15.76T258.79,72.5Z" transform="translate(59.97 0)"/><polygon class="cls-3" points="347.07 92.42 347.07 91.11 347.07 72.52 345.67 72.52 345.67 114.69 347.07 114.69 347.07 95.73 347.07 93.75 347.07 92.42"/><polygon class="cls-3" points="371.64 72.52 371.64 92.42 355.28 92.42 355.28 93.75 371.64 93.75 371.64 114.69 373.04 114.69 373.04 72.52 371.64 72.52"/><rect class="cls-3" x="307.02" y="117.68" width="66.02" height="1.54"/><text class="cls-4" transform="translate(308.62 131.29)">CLINIC</text><path class="cls-3" d="M381.6,72.5H369.85v1.34H381.6q8.28,0,12.55,4.84t4.26,14.07v1.64q0,9.38-4.47,14.15t-13.32,4.78h-9.37V84.72h-1.4v30h11q9.38,0,14.21-5.36t4.83-15.7q0-10.39-4.66-15.76T381.6,72.5Z" transform="translate(59.97 0)"/><polygon class="cls-3" points="469.88 92.42 469.88 91.11 469.88 72.52 468.48 72.52 468.48 114.69 469.88 114.69 469.88 95.73 469.88 93.75 469.88 92.42"/><polygon class="cls-3" points="494.45 72.52 494.45 92.42 478.08 92.42 478.08 93.75 494.45 93.75 494.45 114.69 495.85 114.69 495.85 72.52 494.45 72.52"/><rect class="cls-3" x="429.83" y="117.68" width="66.02" height="1.54"/><text class="cls-4" transform="translate(431.42 131.29)">CLINIC</text><path class="cls-3" d="M504.41,72.5H492.66v1.34h11.75q8.28,0,12.55,4.84t4.26,14.07v1.64q0,9.38-4.48,14.15t-13.31,4.78h-9.37V84.72h-1.4v30h11q9.38,0,14.21-5.36t4.82-15.7q0-10.39-4.66-15.76T504.41,72.5Z" transform="translate(59.97 0)"/><polygon class="cls-3" points="592.68 92.42 592.68 91.11 592.68 72.52 591.28 72.52 591.28 114.69 592.68 114.69 592.68 95.73 592.68 93.75 592.68 92.42"/><polygon class="cls-3" points="617.25 72.52 617.25 92.42 600.89 92.42 600.89 93.75 617.25 93.75 617.25 114.69 618.65 114.69 618.65 72.52 617.25 72.52"/><rect class="cls-3" x="552.63" y="117.68" width="66.02" height="1.54"/><text class="cls-4" transform="translate(554.23 131.29)">CLINIC</text><path class="cls-3" d="M-48.23,145H-60v1.34h11.74q8.28,0,12.55,4.84t4.26,14.07v1.64q0,9.38-4.47,14.15t-13.31,4.78h-9.37v-28.6H-60v30h11q9.38,0,14.21-5.36t4.82-15.7q0-10.4-4.66-15.76T-48.23,145Z" transform="translate(59.97 0)"/><polygon class="cls-3" points="40.05 164.92 40.05 163.61 40.05 145.02 38.65 145.02 38.65 187.19 40.05 187.19 40.05 168.23 40.05 166.25 40.05 164.92"/><polygon class="cls-3" points="64.62 145.02 64.62 164.92 48.26 164.92 48.26 166.25 64.62 166.25 64.62 187.19 66.02 187.19 66.02 145.02 64.62 145.02"/><rect class="cls-3" y="190.18" width="66.02" height="1.54"/><text class="cls-4" transform="translate(1.6 203.8)">CLINIC</text><path class="cls-3" d="M74.58,145H62.84v1.34H74.58q8.28,0,12.55,4.84t4.26,14.07v1.64q0,9.38-4.47,14.15t-13.31,4.78H64.23v-28.6H62.84v30h11q9.36,0,14.21-5.36t4.82-15.7q0-10.4-4.66-15.76T74.58,145Z" transform="translate(59.97 0)"/><polygon class="cls-3" points="162.86 164.92 162.86 163.61 162.86 145.02 161.46 145.02 161.46 187.19 162.86 187.19 162.86 168.23 162.86 166.25 162.86 164.92"/><polygon class="cls-3" points="187.43 145.02 187.43 164.92 171.07 164.92 171.07 166.25 187.43 166.25 187.43 187.19 188.83 187.19 188.83 145.02 187.43 145.02"/><rect class="cls-3" x="122.81" y="190.18" width="66.02" height="1.54"/><text class="cls-4" transform="translate(124.4 203.8)">CLINIC</text><path class="cls-3" d="M197.39,145H185.64v1.34h11.75q8.28,0,12.55,4.84t4.26,14.07v1.64q0,9.38-4.47,14.15t-13.32,4.78H187v-28.6h-1.4v30h11q9.38,0,14.21-5.36t4.83-15.7q0-10.4-4.66-15.76T197.39,145Z" transform="translate(59.97 0)"/><polygon class="cls-3" points="285.67 164.92 285.67 163.61 285.67 145.02 284.27 145.02 284.27 187.19 285.67 187.19 285.67 168.23 285.67 166.25 285.67 164.92"/><polygon class="cls-3" points="310.24 145.02 310.24 164.92 293.87 164.92 293.87 166.25 310.24 166.25 310.24 187.19 311.64 187.19 311.64 145.02 310.24 145.02"/><rect class="cls-3" x="245.61" y="190.18" width="66.02" height="1.54"/><text class="cls-4" transform="translate(247.21 203.8)">CLINIC</text><path class="cls-3" d="M320.19,145H308.45v1.34h11.74q8.3,0,12.56,4.84T337,165.25v1.64q0,9.38-4.48,14.15t-13.31,4.78h-9.37v-28.6h-1.4v30h11q9.38,0,14.21-5.36t4.82-15.7q0-10.4-4.66-15.76T320.19,145Z" transform="translate(59.97 0)"/><polygon class="cls-3" points="408.47 164.92 408.47 163.61 408.47 145.02 407.07 145.02 407.07 187.19 408.47 187.19 408.47 168.23 408.47 166.25 408.47 164.92"/><polygon class="cls-3" points="433.04 145.02 433.04 164.92 416.68 164.92 416.68 166.25 433.04 166.25 433.04 187.19 434.44 187.19 434.44 145.02 433.04 145.02"/><rect class="cls-3" x="368.42" y="190.18" width="66.02" height="1.54"/><text class="cls-4" transform="translate(370.02 203.8)">CLINIC</text><path class="cls-3" d="M443,145H431.26v1.34H443q8.28,0,12.55,4.84t4.26,14.07v1.64q0,9.38-4.47,14.15T442,185.82h-9.37v-28.6h-1.4v30h11q9.38,0,14.21-5.36t4.82-15.7q0-10.4-4.66-15.76T443,145Z" transform="translate(59.97 0)"/><polygon class="cls-3" points="531.28 164.92 531.28 163.61 531.28 145.02 529.88 145.02 529.88 187.19 531.28 187.19 531.28 168.23 531.28 166.25 531.28 164.92"/><polygon class="cls-3" points="555.85 145.02 555.85 164.92 539.49 164.92 539.49 166.25 555.85 166.25 555.85 187.19 557.25 187.19 557.25 145.02 555.85 145.02"/><rect class="cls-3" x="491.23" y="190.18" width="66.02" height="1.54"/><text class="cls-4" transform="translate(492.83 203.8)">CLINIC</text><path class="cls-3" d="M565.81,145H554.06v1.34h11.75q8.28,0,12.55,4.84t4.26,14.07v1.64q0,9.38-4.47,14.15t-13.31,4.78h-9.38v-28.6h-1.4v30h11q9.38,0,14.21-5.36t4.83-15.7q0-10.4-4.66-15.76T565.81,145Z" transform="translate(59.97 0)"/><polygon class="cls-3" points="654.09 164.92 654.09 163.61 654.09 145.02 652.69 145.02 652.69 187.19 654.09 187.19 654.09 168.23 654.09 166.25 654.09 164.92"/><polygon class="cls-3" points="678.66 145.02 678.66 164.92 662.29 164.92 662.29 166.25 678.66 166.25 678.66 187.19 680.06 187.19 680.06 145.02 678.66 145.02"/><rect class="cls-3" x="614.04" y="190.18" width="66.02" height="1.54"/><text class="cls-4" transform="translate(615.63 203.8)">CLINIC</text><path class="cls-3" d="M13.18,217.5H1.43v1.34H13.18q8.28,0,12.55,4.84T30,237.75v1.64q0,9.38-4.47,14.15T12.2,258.32H2.83v-28.6H1.43v30h11q9.38,0,14.21-5.36t4.82-15.7q0-10.4-4.66-15.76T13.18,217.5Z" transform="translate(59.97 0)"/><polygon class="cls-3" points="101.45 237.42 101.45 236.11 101.45 217.52 100.06 217.52 100.06 259.69 101.45 259.69 101.45 240.73 101.45 238.75 101.45 237.42"/><polygon class="cls-3" points="126.03 217.52 126.03 237.42 109.66 237.42 109.66 238.75 126.03 238.75 126.03 259.69 127.42 259.69 127.42 217.52 126.03 217.52"/><rect class="cls-3" x="61.4" y="262.68" width="66.02" height="1.54"/><text class="cls-4" transform="translate(63 276.3)">CLINIC</text><path class="cls-3" d="M136,217.5H124.24v1.34H136q8.28,0,12.56,4.84t4.26,14.07v1.64q0,9.38-4.48,14.15T135,258.32h-9.37v-28.6h-1.4v30h11q9.38,0,14.21-5.36t4.82-15.7q0-10.4-4.66-15.76T136,217.5Z" transform="translate(59.97 0)"/><polygon class="cls-3" points="224.26 237.42 224.26 236.11 224.26 217.52 222.86 217.52 222.86 259.69 224.26 259.69 224.26 240.73 224.26 238.75 224.26 237.42"/><polygon class="cls-3" points="248.83 217.52 248.83 237.42 232.47 237.42 232.47 238.75 248.83 238.75 248.83 259.69 250.23 259.69 250.23 217.52 248.83 217.52"/><rect class="cls-3" x="184.21" y="262.68" width="66.02" height="1.54"/><text class="cls-4" transform="translate(185.81 276.3)">CLINIC</text><path class="cls-3" d="M258.79,217.5H247.05v1.34h11.74q8.28,0,12.55,4.84t4.26,14.07v1.64q0,9.38-4.47,14.15t-13.31,4.78h-9.37v-28.6h-1.4v30h11q9.36,0,14.21-5.36t4.82-15.7q0-10.4-4.66-15.76T258.79,217.5Z" transform="translate(59.97 0)"/><polygon class="cls-3" points="347.07 237.42 347.07 236.11 347.07 217.52 345.67 217.52 345.67 259.69 347.07 259.69 347.07 240.73 347.07 238.75 347.07 237.42"/><polygon class="cls-3" points="371.64 217.52 371.64 237.42 355.28 237.42 355.28 238.75 371.64 238.75 371.64 259.69 373.04 259.69 373.04 217.52 371.64 217.52"/><rect class="cls-3" x="307.02" y="262.68" width="66.02" height="1.54"/><text class="cls-4" transform="translate(308.62 276.3)">CLINIC</text><path class="cls-3" d="M381.6,217.5H369.85v1.34H381.6q8.28,0,12.55,4.84t4.26,14.07v1.64q0,9.38-4.47,14.15t-13.32,4.78h-9.37v-28.6h-1.4v30h11q9.38,0,14.21-5.36t4.83-15.7q0-10.4-4.66-15.76T381.6,217.5Z" transform="translate(59.97 0)"/><polygon class="cls-3" points="469.88 237.42 469.88 236.11 469.88 217.52 468.48 217.52 468.48 259.69 469.88 259.69 469.88 240.73 469.88 238.75 469.88 237.42"/><polygon class="cls-3" points="494.45 217.52 494.45 237.42 478.08 237.42 478.08 238.75 494.45 238.75 494.45 259.69 495.85 259.69 495.85 217.52 494.45 217.52"/><rect class="cls-3" x="429.83" y="262.68" width="66.02" height="1.54"/><text class="cls-4" transform="translate(431.42 276.3)">CLINIC</text><path class="cls-3" d="M504.41,217.5H492.66v1.34h11.75q8.28,0,12.55,4.84t4.26,14.07v1.64q0,9.38-4.48,14.15t-13.31,4.78h-9.37v-28.6h-1.4v30h11q9.38,0,14.21-5.36t4.82-15.7q0-10.4-4.66-15.76T504.41,217.5Z" transform="translate(59.97 0)"/><polygon class="cls-3" points="592.68 237.42 592.68 236.11 592.68 217.52 591.28 217.52 591.28 259.69 592.68 259.69 592.68 240.73 592.68 238.75 592.68 237.42"/><polygon class="cls-3" points="617.25 217.52 617.25 237.42 600.89 237.42 600.89 238.75 617.25 238.75 617.25 259.69 618.65 259.69 618.65 217.52 617.25 217.52"/><rect class="cls-3" x="552.63" y="262.68" width="66.02" height="1.54"/><text class="cls-4" transform="translate(554.23 276.3)">CLINIC</text><path class="cls-3" d="M-48.23,290H-60v1.34h11.74q8.28,0,12.55,4.84t4.26,14.07v1.64q0,9.38-4.47,14.15t-13.31,4.78h-9.37v-28.6H-60v30h11q9.38,0,14.21-5.36t4.82-15.7q0-10.39-4.66-15.76T-48.23,290Z" transform="translate(59.97 0)"/><polygon class="cls-3" points="40.05 309.92 40.05 308.61 40.05 290.02 38.65 290.02 38.65 332.19 40.05 332.19 40.05 313.23 40.05 311.26 40.05 309.92"/><polygon class="cls-3" points="64.62 290.02 64.62 309.92 48.26 309.92 48.26 311.26 64.62 311.26 64.62 332.19 66.02 332.19 66.02 290.02 64.62 290.02"/><rect class="cls-3" y="335.18" width="66.02" height="1.54"/><text class="cls-4" transform="translate(1.6 348.8)">CLINIC</text><path class="cls-3" d="M74.58,290H62.84v1.34H74.58q8.28,0,12.55,4.84t4.26,14.07v1.64q0,9.38-4.47,14.15t-13.31,4.78H64.23v-28.6H62.84v30h11q9.36,0,14.21-5.36t4.82-15.7q0-10.39-4.66-15.76T74.58,290Z" transform="translate(59.97 0)"/><polygon class="cls-3" points="162.86 309.92 162.86 308.61 162.86 290.02 161.46 290.02 161.46 332.19 162.86 332.19 162.86 313.23 162.86 311.26 162.86 309.92"/><polygon class="cls-3" points="187.43 290.02 187.43 309.92 171.07 309.92 171.07 311.26 187.43 311.26 187.43 332.19 188.83 332.19 188.83 290.02 187.43 290.02"/><rect class="cls-3" x="122.81" y="335.18" width="66.02" height="1.54"/><text class="cls-4" transform="translate(124.4 348.8)">CLINIC</text><path class="cls-3" d="M197.39,290H185.64v1.34h11.75q8.28,0,12.55,4.84t4.26,14.07v1.64q0,9.38-4.47,14.15t-13.32,4.78H187v-28.6h-1.4v30h11q9.38,0,14.21-5.36t4.83-15.7q0-10.39-4.66-15.76T197.39,290Z" transform="translate(59.97 0)"/><polygon class="cls-3" points="285.67 309.92 285.67 308.61 285.67 290.02 284.27 290.02 284.27 332.19 285.67 332.19 285.67 313.23 285.67 311.26 285.67 309.92"/><polygon class="cls-3" points="310.24 290.02 310.24 309.92 293.87 309.92 293.87 311.26 310.24 311.26 310.24 332.19 311.64 332.19 311.64 290.02 310.24 290.02"/><rect class="cls-3" x="245.61" y="335.18" width="66.02" height="1.54"/><text class="cls-4" transform="translate(247.21 348.8)">CLINIC</text><path class="cls-3" d="M320.19,290H308.45v1.34h11.74q8.3,0,12.56,4.84T337,310.25v1.64q0,9.38-4.48,14.15t-13.31,4.78h-9.37v-28.6h-1.4v30h11q9.38,0,14.21-5.36t4.82-15.7q0-10.39-4.66-15.76T320.19,290Z" transform="translate(59.97 0)"/><polygon class="cls-3" points="408.47 309.92 408.47 308.61 408.47 290.02 407.07 290.02 407.07 332.19 408.47 332.19 408.47 313.23 408.47 311.26 408.47 309.92"/><polygon class="cls-3" points="433.04 290.02 433.04 309.92 416.68 309.92 416.68 311.26 433.04 311.26 433.04 332.19 434.44 332.19 434.44 290.02 433.04 290.02"/><rect class="cls-3" x="368.42" y="335.18" width="66.02" height="1.54"/><text class="cls-4" transform="translate(370.02 348.8)">CLINIC</text><path class="cls-3" d="M443,290H431.26v1.34H443q8.28,0,12.55,4.84t4.26,14.07v1.64q0,9.38-4.47,14.15T442,330.82h-9.37v-28.6h-1.4v30h11q9.38,0,14.21-5.36t4.82-15.7q0-10.39-4.66-15.76T443,290Z" transform="translate(59.97 0)"/><polygon class="cls-3" points="531.28 309.92 531.28 308.61 531.28 290.02 529.88 290.02 529.88 332.19 531.28 332.19 531.28 313.23 531.28 311.26 531.28 309.92"/><polygon class="cls-3" points="555.85 290.02 555.85 309.92 539.49 309.92 539.49 311.26 555.85 311.26 555.85 332.19 557.25 332.19 557.25 290.02 555.85 290.02"/><rect class="cls-3" x="491.23" y="335.18" width="66.02" height="1.54"/><text class="cls-4" transform="translate(492.83 348.8)">CLINIC</text><path class="cls-3" d="M565.81,290H554.06v1.34h11.75q8.28,0,12.55,4.84t4.26,14.07v1.64q0,9.38-4.47,14.15t-13.31,4.78h-9.38v-28.6h-1.4v30h11q9.38,0,14.21-5.36t4.83-15.7q0-10.39-4.66-15.76T565.81,290Z" transform="translate(59.97 0)"/><polygon class="cls-3" points="654.09 309.92 654.09 308.61 654.09 290.02 652.69 290.02 652.69 332.19 654.09 332.19 654.09 313.23 654.09 311.26 654.09 309.92"/><polygon class="cls-3" points="678.66 290.02 678.66 309.92 662.29 309.92 662.29 311.26 678.66 311.26 678.66 332.19 680.06 332.19 680.06 290.02 678.66 290.02"/><rect class="cls-3" x="614.04" y="335.18" width="66.02" height="1.54"/><text class="cls-4" transform="translate(615.63 348.8)">CLINIC</text><path class="cls-3" d="M13.18,362.5H1.43v1.34H13.18q8.28,0,12.55,4.84T30,382.75v1.65q0,9.36-4.47,14.14T12.2,403.32H2.83v-28.6H1.43v30h11q9.38,0,14.21-5.35t4.82-15.71q0-10.39-4.66-15.76T13.18,362.5Z" transform="translate(59.97 0)"/><polygon class="cls-3" points="101.45 382.42 101.45 381.11 101.45 362.52 100.06 362.52 100.06 404.69 101.45 404.69 101.45 385.73 101.45 383.76 101.45 382.42"/><polygon class="cls-3" points="126.03 362.52 126.03 382.42 109.66 382.42 109.66 383.76 126.03 383.76 126.03 404.69 127.42 404.69 127.42 362.52 126.03 362.52"/><rect class="cls-3" x="61.4" y="407.68" width="66.02" height="1.54"/><text class="cls-4" transform="translate(63 421.3)">CLINIC</text><path class="cls-3" d="M136,362.5H124.24v1.34H136q8.28,0,12.56,4.84t4.26,14.07v1.65q0,9.36-4.48,14.14T135,403.32h-9.37v-28.6h-1.4v30h11q9.38,0,14.21-5.35t4.82-15.71q0-10.39-4.66-15.76T136,362.5Z" transform="translate(59.97 0)"/><polygon class="cls-3" points="224.26 382.42 224.26 381.11 224.26 362.52 222.86 362.52 222.86 404.69 224.26 404.69 224.26 385.73 224.26 383.76 224.26 382.42"/><polygon class="cls-3" points="248.83 362.52 248.83 382.42 232.47 382.42 232.47 383.76 248.83 383.76 248.83 404.69 250.23 404.69 250.23 362.52 248.83 362.52"/><rect class="cls-3" x="184.21" y="407.68" width="66.02" height="1.54"/><text class="cls-4" transform="translate(185.81 421.3)">CLINIC</text><path class="cls-3" d="M258.79,362.5H247.05v1.34h11.74q8.28,0,12.55,4.84t4.26,14.07v1.65q0,9.36-4.47,14.14t-13.31,4.78h-9.37v-28.6h-1.4v30h11q9.36,0,14.21-5.35t4.82-15.71q0-10.39-4.66-15.76T258.79,362.5Z" transform="translate(59.97 0)"/><polygon class="cls-3" points="347.07 382.42 347.07 381.11 347.07 362.52 345.67 362.52 345.67 404.69 347.07 404.69 347.07 385.73 347.07 383.76 347.07 382.42"/><polygon class="cls-3" points="371.64 362.52 371.64 382.42 355.28 382.42 355.28 383.76 371.64 383.76 371.64 404.69 373.04 404.69 373.04 362.52 371.64 362.52"/><rect class="cls-3" x="307.02" y="407.68" width="66.02" height="1.54"/><text class="cls-4" transform="translate(308.62 421.3)">CLINIC</text><path class="cls-3" d="M381.6,362.5H369.85v1.34H381.6q8.28,0,12.55,4.84t4.26,14.07v1.65q0,9.36-4.47,14.14t-13.32,4.78h-9.37v-28.6h-1.4v30h11q9.38,0,14.21-5.35t4.83-15.71q0-10.39-4.66-15.76T381.6,362.5Z" transform="translate(59.97 0)"/><polygon class="cls-3" points="469.88 382.42 469.88 381.11 469.88 362.52 468.48 362.52 468.48 404.69 469.88 404.69 469.88 385.73 469.88 383.76 469.88 382.42"/><polygon class="cls-3" points="494.45 362.52 494.45 382.42 478.08 382.42 478.08 383.76 494.45 383.76 494.45 404.69 495.85 404.69 495.85 362.52 494.45 362.52"/><rect class="cls-3" x="429.83" y="407.68" width="66.02" height="1.54"/><text class="cls-4" transform="translate(431.42 421.3)">CLINIC</text><path class="cls-3" d="M504.41,362.5H492.66v1.34h11.75q8.28,0,12.55,4.84t4.26,14.07v1.65q0,9.36-4.48,14.14t-13.31,4.78h-9.37v-28.6h-1.4v30h11q9.38,0,14.21-5.35t4.82-15.71q0-10.39-4.66-15.76T504.41,362.5Z" transform="translate(59.97 0)"/><polygon class="cls-3" points="592.68 382.42 592.68 381.11 592.68 362.52 591.28 362.52 591.28 404.69 592.68 404.69 592.68 385.73 592.68 383.76 592.68 382.42"/><polygon class="cls-3" points="617.25 362.52 617.25 382.42 600.89 382.42 600.89 383.76 617.25 383.76 617.25 404.69 618.65 404.69 618.65 362.52 617.25 362.52"/><rect class="cls-3" x="552.63" y="407.68" width="66.02" height="1.54"/><text class="cls-4" transform="translate(554.23 421.3)">CLINIC</text><path class="cls-3" d="M-48.23,435H-60v1.34h11.74q8.28,0,12.55,4.84t4.26,14.07v1.65q0,9.36-4.47,14.14t-13.31,4.78h-9.37v-28.6H-60v30h11q9.38,0,14.21-5.35t4.82-15.71q0-10.39-4.66-15.76T-48.23,435Z" transform="translate(59.97 0)"/><polygon class="cls-3" points="40.05 454.92 40.05 453.61 40.05 435.02 38.65 435.02 38.65 477.19 40.05 477.19 40.05 458.23 40.05 456.26 40.05 454.92"/><polygon class="cls-3" points="64.62 435.02 64.62 454.92 48.26 454.92 48.26 456.26 64.62 456.26 64.62 477.19 66.02 477.19 66.02 435.02 64.62 435.02"/><rect class="cls-3" y="480.18" width="66.02" height="1.54"/><text class="cls-4" transform="translate(1.6 493.8)">CLINIC</text><path class="cls-3" d="M74.58,435H62.84v1.34H74.58q8.28,0,12.55,4.84t4.26,14.07v1.65q0,9.36-4.47,14.14t-13.31,4.78H64.23v-28.6H62.84v30h11q9.36,0,14.21-5.35t4.82-15.71q0-10.39-4.66-15.76T74.58,435Z" transform="translate(59.97 0)"/><polygon class="cls-3" points="162.86 454.92 162.86 453.61 162.86 435.02 161.46 435.02 161.46 477.19 162.86 477.19 162.86 458.23 162.86 456.26 162.86 454.92"/><polygon class="cls-3" points="187.43 435.02 187.43 454.92 171.07 454.92 171.07 456.26 187.43 456.26 187.43 477.19 188.83 477.19 188.83 435.02 187.43 435.02"/><rect class="cls-3" x="122.81" y="480.18" width="66.02" height="1.54"/><text class="cls-4" transform="translate(124.4 493.8)">CLINIC</text><path class="cls-3" d="M197.39,435H185.64v1.34h11.75q8.28,0,12.55,4.84t4.26,14.07v1.65q0,9.36-4.47,14.14t-13.32,4.78H187v-28.6h-1.4v30h11q9.38,0,14.21-5.35t4.83-15.71q0-10.39-4.66-15.76T197.39,435Z" transform="translate(59.97 0)"/><polygon class="cls-3" points="285.67 454.92 285.67 453.61 285.67 435.02 284.27 435.02 284.27 477.19 285.67 477.19 285.67 458.23 285.67 456.26 285.67 454.92"/><polygon class="cls-3" points="310.24 435.02 310.24 454.92 293.87 454.92 293.87 456.26 310.24 456.26 310.24 477.19 311.64 477.19 311.64 435.02 310.24 435.02"/><rect class="cls-3" x="245.61" y="480.18" width="66.02" height="1.54"/><text class="cls-4" transform="translate(247.21 493.8)">CLINIC</text><path class="cls-3" d="M320.19,435H308.45v1.34h11.74q8.3,0,12.56,4.84T337,455.25v1.65q0,9.36-4.48,14.14t-13.31,4.78h-9.37v-28.6h-1.4v30h11q9.38,0,14.21-5.35t4.82-15.71q0-10.39-4.66-15.76T320.19,435Z" transform="translate(59.97 0)"/><polygon class="cls-3" points="408.47 454.92 408.47 453.61 408.47 435.02 407.07 435.02 407.07 477.19 408.47 477.19 408.47 458.23 408.47 456.26 408.47 454.92"/><polygon class="cls-3" points="433.04 435.02 433.04 454.92 416.68 454.92 416.68 456.26 433.04 456.26 433.04 477.19 434.44 477.19 434.44 435.02 433.04 435.02"/><rect class="cls-3" x="368.42" y="480.18" width="66.02" height="1.54"/><text class="cls-4" transform="translate(370.02 493.8)">CLINIC</text><path class="cls-3" d="M443,435H431.26v1.34H443q8.28,0,12.55,4.84t4.26,14.07v1.65q0,9.36-4.47,14.14T442,475.82h-9.37v-28.6h-1.4v30h11q9.38,0,14.21-5.35t4.82-15.71q0-10.39-4.66-15.76T443,435Z" transform="translate(59.97 0)"/><polygon class="cls-3" points="531.28 454.92 531.28 453.61 531.28 435.02 529.88 435.02 529.88 477.19 531.28 477.19 531.28 458.23 531.28 456.26 531.28 454.92"/><polygon class="cls-3" points="555.85 435.02 555.85 454.92 539.49 454.92 539.49 456.26 555.85 456.26 555.85 477.19 557.25 477.19 557.25 435.02 555.85 435.02"/><rect class="cls-3" x="491.23" y="480.18" width="66.02" height="1.54"/><text class="cls-4" transform="translate(492.83 493.8)">CLINIC</text><path class="cls-3" d="M565.81,435H554.06v1.34h11.75q8.28,0,12.55,4.84t4.26,14.07v1.65q0,9.36-4.47,14.14t-13.31,4.78h-9.38v-28.6h-1.4v30h11q9.38,0,14.21-5.35t4.83-15.71q0-10.39-4.66-15.76T565.81,435Z" transform="translate(59.97 0)"/><polygon class="cls-3" points="654.09 454.92 654.09 453.61 654.09 435.02 652.69 435.02 652.69 477.19 654.09 477.19 654.09 458.23 654.09 456.26 654.09 454.92"/><polygon class="cls-3" points="678.66 435.02 678.66 454.92 662.29 454.92 662.29 456.26 678.66 456.26 678.66 477.19 680.06 477.19 680.06 435.02 678.66 435.02"/><rect class="cls-3" x="614.04" y="480.18" width="66.02" height="1.54"/><text class="cls-4" transform="translate(615.63 493.8)">CLINIC</text><path class="cls-3" d="M13.18,507.5H1.43v1.34H13.18q8.28,0,12.55,4.84T30,527.75v1.65q0,9.36-4.47,14.14T12.2,548.32H2.83v-28.6H1.43v30h11q9.38,0,14.21-5.35t4.82-15.7q0-10.41-4.66-15.77T13.18,507.5Z" transform="translate(59.97 0)"/><polygon class="cls-3" points="101.45 527.42 101.45 526.11 101.45 507.52 100.06 507.52 100.06 549.69 101.45 549.69 101.45 530.74 101.45 528.76 101.45 527.42"/><polygon class="cls-3" points="126.03 507.52 126.03 527.42 109.66 527.42 109.66 528.76 126.03 528.76 126.03 549.69 127.42 549.69 127.42 507.52 126.03 507.52"/><rect class="cls-3" x="61.4" y="552.68" width="66.02" height="1.54"/><text class="cls-4" transform="translate(63 566.3)">CLINIC</text><path class="cls-3" d="M136,507.5H124.24v1.34H136q8.28,0,12.56,4.84t4.26,14.07v1.65q0,9.36-4.48,14.14T135,548.32h-9.37v-28.6h-1.4v30h11q9.38,0,14.21-5.35t4.82-15.7q0-10.41-4.66-15.77T136,507.5Z" transform="translate(59.97 0)"/><polygon class="cls-3" points="224.26 527.42 224.26 526.11 224.26 507.52 222.86 507.52 222.86 549.69 224.26 549.69 224.26 530.74 224.26 528.76 224.26 527.42"/><polygon class="cls-3" points="248.83 507.52 248.83 527.42 232.47 527.42 232.47 528.76 248.83 528.76 248.83 549.69 250.23 549.69 250.23 507.52 248.83 507.52"/><rect class="cls-3" x="184.21" y="552.68" width="66.02" height="1.54"/><text class="cls-4" transform="translate(185.81 566.3)">CLINIC</text><path class="cls-3" d="M258.79,507.5H247.05v1.34h11.74q8.28,0,12.55,4.84t4.26,14.07v1.65q0,9.36-4.47,14.14t-13.31,4.78h-9.37v-28.6h-1.4v30h11q9.36,0,14.21-5.35t4.82-15.7q0-10.41-4.66-15.77T258.79,507.5Z" transform="translate(59.97 0)"/><polygon class="cls-3" points="347.07 527.42 347.07 526.11 347.07 507.52 345.67 507.52 345.67 549.69 347.07 549.69 347.07 530.74 347.07 528.76 347.07 527.42"/><polygon class="cls-3" points="371.64 507.52 371.64 527.42 355.28 527.42 355.28 528.76 371.64 528.76 371.64 549.69 373.04 549.69 373.04 507.52 371.64 507.52"/><rect class="cls-3" x="307.02" y="552.68" width="66.02" height="1.54"/><text class="cls-4" transform="translate(308.62 566.3)">CLINIC</text><path class="cls-3" d="M381.6,507.5H369.85v1.34H381.6q8.28,0,12.55,4.84t4.26,14.07v1.65q0,9.36-4.47,14.14t-13.32,4.78h-9.37v-28.6h-1.4v30h11q9.38,0,14.21-5.35t4.83-15.7q0-10.41-4.66-15.77T381.6,507.5Z" transform="translate(59.97 0)"/><polygon class="cls-3" points="469.88 527.42 469.88 526.11 469.88 507.52 468.48 507.52 468.48 549.69 469.88 549.69 469.88 530.74 469.88 528.76 469.88 527.42"/><polygon class="cls-3" points="494.45 507.52 494.45 527.42 478.08 527.42 478.08 528.76 494.45 528.76 494.45 549.69 495.85 549.69 495.85 507.52 494.45 507.52"/><rect class="cls-3" x="429.83" y="552.68" width="66.02" height="1.54"/><text class="cls-4" transform="translate(431.42 566.3)">CLINIC</text><path class="cls-3" d="M504.41,507.5H492.66v1.34h11.75q8.28,0,12.55,4.84t4.26,14.07v1.65q0,9.36-4.48,14.14t-13.31,4.78h-9.37v-28.6h-1.4v30h11q9.38,0,14.21-5.35t4.82-15.7q0-10.41-4.66-15.77T504.41,507.5Z" transform="translate(59.97 0)"/><polygon class="cls-3" points="592.68 527.42 592.68 526.11 592.68 507.52 591.28 507.52 591.28 549.69 592.68 549.69 592.68 530.74 592.68 528.76 592.68 527.42"/><polygon class="cls-3" points="617.25 507.52 617.25 527.42 600.89 527.42 600.89 528.76 617.25 528.76 617.25 549.69 618.65 549.69 618.65 507.52 617.25 507.52"/><rect class="cls-3" x="552.63" y="552.68" width="66.02" height="1.54"/><text class="cls-4" transform="translate(554.23 566.3)">CLINIC</text><path class="cls-3" d="M-48.23,580H-60v1.34h11.74q8.28,0,12.55,4.84t4.26,14.07v1.65q0,9.36-4.47,14.15t-13.31,4.77h-9.37v-28.6H-60v30h11q9.38,0,14.21-5.35t4.82-15.7q0-10.41-4.66-15.77T-48.23,580Z" transform="translate(59.97 0)"/><polygon class="cls-3" points="40.05 599.92 40.05 598.61 40.05 580.02 38.65 580.02 38.65 622.19 40.05 622.19 40.05 603.24 40.05 601.26 40.05 599.92"/><polygon class="cls-3" points="64.62 580.02 64.62 599.92 48.26 599.92 48.26 601.26 64.62 601.26 64.62 622.19 66.02 622.19 66.02 580.02 64.62 580.02"/><rect class="cls-3" y="625.18" width="66.02" height="1.54"/><text class="cls-4" transform="translate(1.6 638.8)">CLINIC</text><path class="cls-3" d="M74.58,580H62.84v1.34H74.58q8.28,0,12.55,4.84t4.26,14.07v1.65q0,9.36-4.47,14.15t-13.31,4.77H64.23v-28.6H62.84v30h11q9.36,0,14.21-5.35t4.82-15.7q0-10.41-4.66-15.77T74.58,580Z" transform="translate(59.97 0)"/><polygon class="cls-3" points="162.86 599.92 162.86 598.61 162.86 580.02 161.46 580.02 161.46 622.19 162.86 622.19 162.86 603.24 162.86 601.26 162.86 599.92"/><polygon class="cls-3" points="187.43 580.02 187.43 599.92 171.07 599.92 171.07 601.26 187.43 601.26 187.43 622.19 188.83 622.19 188.83 580.02 187.43 580.02"/><rect class="cls-3" x="122.81" y="625.18" width="66.02" height="1.54"/><text class="cls-4" transform="translate(124.4 638.8)">CLINIC</text><path class="cls-3" d="M197.39,580H185.64v1.34h11.75q8.28,0,12.55,4.84t4.26,14.07v1.65q0,9.36-4.47,14.15t-13.32,4.77H187v-28.6h-1.4v30h11q9.38,0,14.21-5.35t4.83-15.7q0-10.41-4.66-15.77T197.39,580Z" transform="translate(59.97 0)"/><polygon class="cls-3" points="285.67 599.92 285.67 598.61 285.67 580.02 284.27 580.02 284.27 622.19 285.67 622.19 285.67 603.24 285.67 601.26 285.67 599.92"/><polygon class="cls-3" points="310.24 580.02 310.24 599.92 293.87 599.92 293.87 601.26 310.24 601.26 310.24 622.19 311.64 622.19 311.64 580.02 310.24 580.02"/><rect class="cls-3" x="245.61" y="625.18" width="66.02" height="1.54"/><text class="cls-4" transform="translate(247.21 638.8)">CLINIC</text><path class="cls-3" d="M320.19,580H308.45v1.34h11.74q8.3,0,12.56,4.84T337,600.25v1.65q0,9.36-4.48,14.15t-13.31,4.77h-9.37v-28.6h-1.4v30h11q9.38,0,14.21-5.35t4.82-15.7q0-10.41-4.66-15.77T320.19,580Z" transform="translate(59.97 0)"/><polygon class="cls-3" points="408.47 599.92 408.47 598.61 408.47 580.02 407.07 580.02 407.07 622.19 408.47 622.19 408.47 603.24 408.47 601.26 408.47 599.92"/><polygon class="cls-3" points="433.04 580.02 433.04 599.92 416.68 599.92 416.68 601.26 433.04 601.26 433.04 622.19 434.44 622.19 434.44 580.02 433.04 580.02"/><rect class="cls-3" x="368.42" y="625.18" width="66.02" height="1.54"/><text class="cls-4" transform="translate(370.02 638.8)">CLINIC</text><path class="cls-3" d="M443,580H431.26v1.34H443q8.28,0,12.55,4.84t4.26,14.07v1.65q0,9.36-4.47,14.15T442,620.82h-9.37v-28.6h-1.4v30h11q9.38,0,14.21-5.35t4.82-15.7q0-10.41-4.66-15.77T443,580Z" transform="translate(59.97 0)"/><polygon class="cls-3" points="531.28 599.92 531.28 598.61 531.28 580.02 529.88 580.02 529.88 622.19 531.28 622.19 531.28 603.24 531.28 601.26 531.28 599.92"/><polygon class="cls-3" points="555.85 580.02 555.85 599.92 539.49 599.92 539.49 601.26 555.85 601.26 555.85 622.19 557.25 622.19 557.25 580.02 555.85 580.02"/><rect class="cls-3" x="491.23" y="625.18" width="66.02" height="1.54"/><text class="cls-4" transform="translate(492.83 638.8)">CLINIC</text><path class="cls-3" d="M565.81,580H554.06v1.34h11.75q8.28,0,12.55,4.84t4.26,14.07v1.65q0,9.36-4.47,14.15t-13.31,4.77h-9.38v-28.6h-1.4v30h11q9.38,0,14.21-5.35t4.83-15.7q0-10.41-4.66-15.77T565.81,580Z" transform="translate(59.97 0)"/><polygon class="cls-3" points="654.09 599.92 654.09 598.61 654.09 580.02 652.69 580.02 652.69 622.19 654.09 622.19 654.09 603.24 654.09 601.26 654.09 599.92"/><polygon class="cls-3" points="678.66 580.02 678.66 599.92 662.29 599.92 662.29 601.26 678.66 601.26 678.66 622.19 680.06 622.19 680.06 580.02 678.66 580.02"/><rect class="cls-3" x="614.04" y="625.18" width="66.02" height="1.54"/><text class="cls-4" transform="translate(615.63 638.8)">CLINIC</text><path class="cls-3" d="M13.18,652.5H1.43v1.34H13.18q8.28,0,12.55,4.84T30,672.75v1.65q0,9.36-4.47,14.15T12.2,693.32H2.83v-28.6H1.43v30h11q9.38,0,14.21-5.35t4.82-15.7q0-10.41-4.66-15.77T13.18,652.5Z" transform="translate(59.97 0)"/><polygon class="cls-3" points="101.45 672.42 101.45 671.11 101.45 652.52 100.06 652.52 100.06 694.69 101.45 694.69 101.45 675.74 101.45 673.76 101.45 672.42"/><polygon class="cls-3" points="126.03 652.52 126.03 672.42 109.66 672.42 109.66 673.76 126.03 673.76 126.03 694.69 127.42 694.69 127.42 652.52 126.03 652.52"/><rect class="cls-3" x="61.4" y="697.68" width="66.02" height="1.54"/><text class="cls-4" transform="translate(63 711.3)">CLINIC</text><path class="cls-3" d="M136,652.5H124.24v1.34H136q8.28,0,12.56,4.84t4.26,14.07v1.65q0,9.36-4.48,14.15T135,693.32h-9.37v-28.6h-1.4v30h11q9.38,0,14.21-5.35t4.82-15.7q0-10.41-4.66-15.77T136,652.5Z" transform="translate(59.97 0)"/><polygon class="cls-3" points="224.26 672.42 224.26 671.11 224.26 652.52 222.86 652.52 222.86 694.69 224.26 694.69 224.26 675.74 224.26 673.76 224.26 672.42"/><polygon class="cls-3" points="248.83 652.52 248.83 672.42 232.47 672.42 232.47 673.76 248.83 673.76 248.83 694.69 250.23 694.69 250.23 652.52 248.83 652.52"/><rect class="cls-3" x="184.21" y="697.68" width="66.02" height="1.54"/><text class="cls-4" transform="translate(185.81 711.3)">CLINIC</text><path class="cls-3" d="M258.79,652.5H247.05v1.34h11.74q8.28,0,12.55,4.84t4.26,14.07v1.65q0,9.36-4.47,14.15t-13.31,4.77h-9.37v-28.6h-1.4v30h11q9.36,0,14.21-5.35t4.82-15.7q0-10.41-4.66-15.77T258.79,652.5Z" transform="translate(59.97 0)"/><polygon class="cls-3" points="347.07 672.42 347.07 671.11 347.07 652.52 345.67 652.52 345.67 694.69 347.07 694.69 347.07 675.74 347.07 673.76 347.07 672.42"/><polygon class="cls-3" points="371.64 652.52 371.64 672.42 355.28 672.42 355.28 673.76 371.64 673.76 371.64 694.69 373.04 694.69 373.04 652.52 371.64 652.52"/><rect class="cls-3" x="307.02" y="697.68" width="66.02" height="1.54"/><text class="cls-4" transform="translate(308.62 711.3)">CLINIC</text><path class="cls-3" d="M381.6,652.5H369.85v1.34H381.6q8.28,0,12.55,4.84t4.26,14.07v1.65q0,9.36-4.47,14.15t-13.32,4.77h-9.37v-28.6h-1.4v30h11q9.38,0,14.21-5.35t4.83-15.7q0-10.41-4.66-15.77T381.6,652.5Z" transform="translate(59.97 0)"/><polygon class="cls-3" points="469.88 672.42 469.88 671.11 469.88 652.52 468.48 652.52 468.48 694.69 469.88 694.69 469.88 675.74 469.88 673.76 469.88 672.42"/><polygon class="cls-3" points="494.45 652.52 494.45 672.42 478.08 672.42 478.08 673.76 494.45 673.76 494.45 694.69 495.85 694.69 495.85 652.52 494.45 652.52"/><rect class="cls-3" x="429.83" y="697.68" width="66.02" height="1.54"/><text class="cls-4" transform="translate(431.42 711.3)">CLINIC</text><path class="cls-3" d="M504.41,652.5H492.66v1.34h11.75q8.28,0,12.55,4.84t4.26,14.07v1.65q0,9.36-4.48,14.15t-13.31,4.77h-9.37v-28.6h-1.4v30h11q9.38,0,14.21-5.35t4.82-15.7q0-10.41-4.66-15.77T504.41,652.5Z" transform="translate(59.97 0)"/><polygon class="cls-3" points="592.68 672.42 592.68 671.11 592.68 652.52 591.28 652.52 591.28 694.69 592.68 694.69 592.68 675.74 592.68 673.76 592.68 672.42"/><polygon class="cls-3" points="617.25 652.52 617.25 672.42 600.89 672.42 600.89 673.76 617.25 673.76 617.25 694.69 618.65 694.69 618.65 652.52 617.25 652.52"/><rect class="cls-3" x="552.63" y="697.68" width="66.02" height="1.54"/><text class="cls-4" transform="translate(554.23 711.3)">CLINIC</text><path class="cls-3" d="M-48.23,725H-60v1.34h11.74q8.28,0,12.55,4.84t4.26,14.07v1.65q0,9.38-4.47,14.15t-13.31,4.77h-9.37v-28.6H-60v30h11q9.38,0,14.21-5.35t4.82-15.7q0-10.41-4.66-15.77T-48.23,725Z" transform="translate(59.97 0)"/><polygon class="cls-3" points="40.05 744.92 40.05 743.62 40.05 725.02 38.65 725.02 38.65 767.19 40.05 767.19 40.05 748.24 40.05 746.26 40.05 744.92"/><polygon class="cls-3" points="64.62 725.02 64.62 744.92 48.26 744.92 48.26 746.26 64.62 746.26 64.62 767.19 66.02 767.19 66.02 725.02 64.62 725.02"/><rect class="cls-3" y="770.18" width="66.02" height="1.54"/><text class="cls-4" transform="translate(1.6 783.8)">CLINIC</text><path class="cls-3" d="M74.58,725H62.84v1.34H74.58q8.28,0,12.55,4.84t4.26,14.07v1.65q0,9.38-4.47,14.15t-13.31,4.77H64.23v-28.6H62.84v30h11q9.36,0,14.21-5.35t4.82-15.7q0-10.41-4.66-15.77T74.58,725Z" transform="translate(59.97 0)"/><polygon class="cls-3" points="162.86 744.92 162.86 743.62 162.86 725.02 161.46 725.02 161.46 767.19 162.86 767.19 162.86 748.24 162.86 746.26 162.86 744.92"/><polygon class="cls-3" points="187.43 725.02 187.43 744.92 171.07 744.92 171.07 746.26 187.43 746.26 187.43 767.19 188.83 767.19 188.83 725.02 187.43 725.02"/><rect class="cls-3" x="122.81" y="770.18" width="66.02" height="1.54"/><text class="cls-4" transform="translate(124.4 783.8)">CLINIC</text><path class="cls-3" d="M197.39,725H185.64v1.34h11.75q8.28,0,12.55,4.84t4.26,14.07v1.65q0,9.38-4.47,14.15t-13.32,4.77H187v-28.6h-1.4v30h11q9.38,0,14.21-5.35t4.83-15.7q0-10.41-4.66-15.77T197.39,725Z" transform="translate(59.97 0)"/><polygon class="cls-3" points="285.67 744.92 285.67 743.62 285.67 725.02 284.27 725.02 284.27 767.19 285.67 767.19 285.67 748.24 285.67 746.26 285.67 744.92"/><polygon class="cls-3" points="310.24 725.02 310.24 744.92 293.87 744.92 293.87 746.26 310.24 746.26 310.24 767.19 311.64 767.19 311.64 725.02 310.24 725.02"/><rect class="cls-3" x="245.61" y="770.18" width="66.02" height="1.54"/><text class="cls-4" transform="translate(247.21 783.8)">CLINIC</text><path class="cls-3" d="M320.19,725H308.45v1.34h11.74q8.3,0,12.56,4.84T337,745.25v1.65q0,9.38-4.48,14.15t-13.31,4.77h-9.37v-28.6h-1.4v30h11q9.38,0,14.21-5.35t4.82-15.7q0-10.41-4.66-15.77T320.19,725Z" transform="translate(59.97 0)"/><polygon class="cls-3" points="408.47 744.92 408.47 743.62 408.47 725.02 407.07 725.02 407.07 767.19 408.47 767.19 408.47 748.24 408.47 746.26 408.47 744.92"/><polygon class="cls-3" points="433.04 725.02 433.04 744.92 416.68 744.92 416.68 746.26 433.04 746.26 433.04 767.19 434.44 767.19 434.44 725.02 433.04 725.02"/><rect class="cls-3" x="368.42" y="770.18" width="66.02" height="1.54"/><text class="cls-4" transform="translate(370.02 783.8)">CLINIC</text><path class="cls-3" d="M443,725H431.26v1.34H443q8.28,0,12.55,4.84t4.26,14.07v1.65q0,9.38-4.47,14.15T442,765.82h-9.37v-28.6h-1.4v30h11q9.38,0,14.21-5.35t4.82-15.7q0-10.41-4.66-15.77T443,725Z" transform="translate(59.97 0)"/><polygon class="cls-3" points="531.28 744.92 531.28 743.62 531.28 725.02 529.88 725.02 529.88 767.19 531.28 767.19 531.28 748.24 531.28 746.26 531.28 744.92"/><polygon class="cls-3" points="555.85 725.02 555.85 744.92 539.49 744.92 539.49 746.26 555.85 746.26 555.85 767.19 557.25 767.19 557.25 725.02 555.85 725.02"/><rect class="cls-3" x="491.23" y="770.18" width="66.02" height="1.54"/><text class="cls-4" transform="translate(492.83 783.8)">CLINIC</text><path class="cls-3" d="M565.81,725H554.06v1.34h11.75q8.28,0,12.55,4.84t4.26,14.07v1.65q0,9.38-4.47,14.15t-13.31,4.77h-9.38v-28.6h-1.4v30h11q9.38,0,14.21-5.35t4.83-15.7q0-10.41-4.66-15.77T565.81,725Z" transform="translate(59.97 0)"/><polygon class="cls-3" points="654.09 744.92 654.09 743.62 654.09 725.02 652.69 725.02 652.69 767.19 654.09 767.19 654.09 748.24 654.09 746.26 654.09 744.92"/><polygon class="cls-3" points="678.66 725.02 678.66 744.92 662.29 744.92 662.29 746.26 678.66 746.26 678.66 767.19 680.06 767.19 680.06 725.02 678.66 725.02"/><rect class="cls-3" x="614.04" y="770.18" width="66.02" height="1.54"/><text class="cls-4" transform="translate(615.63 783.8)">CLINIC</text><path class="cls-3" d="M13.18,797.5H1.43v1.34H13.18q8.28,0,12.55,4.84T30,817.75v1.65q0,9.38-4.47,14.15T12.2,838.32H2.83v-28.6H1.43v30h11q9.38,0,14.21-5.35t4.82-15.7q0-10.41-4.66-15.76T13.18,797.5Z" transform="translate(59.97 0)"/><polygon class="cls-3" points="101.45 817.42 101.45 816.12 101.45 797.52 100.06 797.52 100.06 839.69 101.45 839.69 101.45 820.74 101.45 818.76 101.45 817.42"/><polygon class="cls-3" points="126.03 797.52 126.03 817.42 109.66 817.42 109.66 818.76 126.03 818.76 126.03 839.69 127.42 839.69 127.42 797.52 126.03 797.52"/><rect class="cls-3" x="61.4" y="842.68" width="66.02" height="1.54"/><text class="cls-4" transform="translate(63 856.3)">CLINIC</text><path class="cls-3" d="M136,797.5H124.24v1.34H136q8.28,0,12.56,4.84t4.26,14.07v1.65q0,9.38-4.48,14.15T135,838.32h-9.37v-28.6h-1.4v30h11q9.38,0,14.21-5.35t4.82-15.7q0-10.41-4.66-15.76T136,797.5Z" transform="translate(59.97 0)"/><polygon class="cls-3" points="224.26 817.42 224.26 816.12 224.26 797.52 222.86 797.52 222.86 839.69 224.26 839.69 224.26 820.74 224.26 818.76 224.26 817.42"/><polygon class="cls-3" points="248.83 797.52 248.83 817.42 232.47 817.42 232.47 818.76 248.83 818.76 248.83 839.69 250.23 839.69 250.23 797.52 248.83 797.52"/><rect class="cls-3" x="184.21" y="842.68" width="66.02" height="1.54"/><text class="cls-4" transform="translate(185.81 856.3)">CLINIC</text><path class="cls-3" d="M258.79,797.5H247.05v1.34h11.74q8.28,0,12.55,4.84t4.26,14.07v1.65q0,9.38-4.47,14.15t-13.31,4.77h-9.37v-28.6h-1.4v30h11q9.36,0,14.21-5.35t4.82-15.7q0-10.41-4.66-15.76T258.79,797.5Z" transform="translate(59.97 0)"/><polygon class="cls-3" points="347.07 817.42 347.07 816.12 347.07 797.52 345.67 797.52 345.67 839.69 347.07 839.69 347.07 820.74 347.07 818.76 347.07 817.42"/><polygon class="cls-3" points="371.64 797.52 371.64 817.42 355.28 817.42 355.28 818.76 371.64 818.76 371.64 839.69 373.04 839.69 373.04 797.52 371.64 797.52"/><rect class="cls-3" x="307.02" y="842.68" width="66.02" height="1.54"/><text class="cls-4" transform="translate(308.62 856.3)">CLINIC</text><path class="cls-3" d="M381.6,797.5H369.85v1.34H381.6q8.28,0,12.55,4.84t4.26,14.07v1.65q0,9.38-4.47,14.15t-13.32,4.77h-9.37v-28.6h-1.4v30h11q9.38,0,14.21-5.35t4.83-15.7q0-10.41-4.66-15.76T381.6,797.5Z" transform="translate(59.97 0)"/><polygon class="cls-3" points="469.88 817.42 469.88 816.12 469.88 797.52 468.48 797.52 468.48 839.69 469.88 839.69 469.88 820.74 469.88 818.76 469.88 817.42"/><polygon class="cls-3" points="494.45 797.52 494.45 817.42 478.08 817.42 478.08 818.76 494.45 818.76 494.45 839.69 495.85 839.69 495.85 797.52 494.45 797.52"/><rect class="cls-3" x="429.83" y="842.68" width="66.02" height="1.54"/><text class="cls-4" transform="translate(431.42 856.3)">CLINIC</text><path class="cls-3" d="M504.41,797.5H492.66v1.34h11.75q8.28,0,12.55,4.84t4.26,14.07v1.65q0,9.38-4.48,14.15t-13.31,4.77h-9.37v-28.6h-1.4v30h11q9.38,0,14.21-5.35t4.82-15.7q0-10.41-4.66-15.76T504.41,797.5Z" transform="translate(59.97 0)"/><polygon class="cls-3" points="592.68 817.42 592.68 816.12 592.68 797.52 591.28 797.52 591.28 839.69 592.68 839.69 592.68 820.74 592.68 818.76 592.68 817.42"/><polygon class="cls-3" points="617.25 797.52 617.25 817.42 600.89 817.42 600.89 818.76 617.25 818.76 617.25 839.69 618.65 839.69 618.65 797.52 617.25 797.52"/><rect class="cls-3" x="552.63" y="842.68" width="66.02" height="1.54"/><text class="cls-4" transform="translate(554.23 856.3)">CLINIC</text></g></svg>